<svg width="80" height="80" viewBox="0 0 80 80" fill="none" xmlns="http://www.w3.org/2000/svg">
<path d="M39.664 79.328C61.5698 79.328 79.328 61.5698 79.328 39.664C79.328 17.7582 61.5698 0 39.664 0C17.7582 0 0 17.7582 0 39.664C0 61.5698 17.7582 79.328 39.664 79.328Z" fill="#121212"/>
<path d="M32.312 56.624C44.0823 56.624 53.624 47.0823 53.624 35.312C53.624 23.5417 44.0823 14 32.312 14C20.5417 14 11 23.5417 11 35.312C11 47.0823 20.5417 56.624 32.312 56.624Z" fill="#1D1D1D"/>
<path d="M56.88 65.5039C62.6017 65.5039 67.24 60.8656 67.24 55.1439C67.24 49.4223 62.6017 44.7839 56.88 44.7839C51.1583 44.7839 46.52 49.4223 46.52 55.1439C46.52 60.8656 51.1583 65.5039 56.88 65.5039Z" fill="#1D1D1D"/>
<path fill-rule="evenodd" clip-rule="evenodd" d="M29.4 45.2681C27.055 45.2681 25.036 43.567 24.71 41.211L24.58 40.425H34.22L34.09 41.211C33.7 43.567 31.745 45.2681 29.4 45.2681ZM49.203 45.2681C46.858 45.2681 44.903 43.567 44.513 41.211L44.383 40.425H54.023L53.893 41.211C53.503 43.567 51.548 45.2681 49.203 45.2681Z" fill="#0ABB92"/>
<path fill-rule="evenodd" clip-rule="evenodd" d="M33.5699 53.9061L33.8949 53.0561C34.4809 51.3541 36.7609 50.1111 39.3019 50.1111C41.8419 50.1111 44.1219 51.3541 44.7079 53.0561L45.0339 53.9061H33.5699Z" fill="#1D1D1D"/>
<path fill-rule="evenodd" clip-rule="evenodd" d="M31.94 40.4901L31.81 41.2761C31.485 43.1741 30.117 44.6791 28.228 45.1371C28.618 45.2031 29.009 45.2681 29.4 45.2681C31.745 45.2681 33.7 43.5671 34.09 41.2761L34.22 40.4911H31.94V40.4901ZM51.744 40.4901L51.614 41.2761C51.288 43.1741 49.92 44.6791 48.031 45.1371C48.421 45.2031 48.812 45.2681 49.203 45.2681C51.548 45.2681 53.568 43.567 53.893 41.211L54.023 40.425L51.743 40.4911L51.744 40.4901Z" fill="#00D09C"/>
<path d="M54.545 40.229L50.115 29.235H52.135C52.525 29.235 52.785 28.973 52.785 28.58C52.785 28.188 52.525 27.926 52.135 27.926H39.888V26.028C39.888 25.635 39.628 25.374 39.237 25.374C38.846 25.374 38.585 25.635 38.585 26.028V27.926H26.34C25.949 27.926 25.688 28.188 25.688 28.58C25.688 28.973 25.948 29.235 26.34 29.235H28.424L24.06 40.229C24.06 40.294 23.994 40.359 23.994 40.491C23.994 43.501 26.404 45.922 29.401 45.922C30.1131 45.9222 30.8183 45.7816 31.4759 45.5084C32.1335 45.2352 32.7307 44.8348 33.2332 44.3302C33.7356 43.8255 34.1333 43.2266 34.4036 42.5677C34.6739 41.9089 34.8113 41.2031 34.808 40.491C34.808 40.425 34.808 40.294 34.743 40.229L30.313 29.235H38.521V49.456C35.394 49.718 32.984 51.616 32.984 53.906C32.984 54.299 33.244 54.561 33.635 54.561H44.709C45.1 54.561 45.361 54.299 45.361 53.906C45.361 51.616 42.951 49.718 39.824 49.456V29.235H48.162L43.862 40.229C43.862 40.294 43.797 40.359 43.797 40.491C43.797 43.501 46.207 45.922 49.204 45.922C49.9161 45.9222 50.6213 45.7816 51.2789 45.5084C51.9365 45.2352 52.5337 44.8348 53.0362 44.3302C53.5386 43.8255 53.9363 43.2266 54.2066 42.5677C54.4769 41.9089 54.6143 41.2031 54.611 40.491C54.611 40.36 54.611 40.294 54.546 40.229H54.545ZM29.4 44.614C27.38 44.614 25.687 43.108 25.361 41.145H33.439C33.113 43.108 31.419 44.614 29.4 44.614ZM33.178 39.836H25.622L29.4 30.347L33.178 39.837V39.836ZM44.057 53.252H34.481C34.937 51.812 36.957 50.765 39.237 50.765C41.517 50.765 43.536 51.812 44.057 53.252ZM49.203 30.347L52.981 39.837H45.425L49.203 30.347ZM49.203 44.614C47.183 44.614 45.49 43.108 45.164 41.145H53.242C52.916 43.108 51.222 44.614 49.203 44.614Z" fill="#EBEBF5"/>
</svg>
