<svg width="80" height="80" viewBox="0 0 80 80" fill="none" xmlns="http://www.w3.org/2000/svg">
<path d="M39.664 79.328C61.5698 79.328 79.328 61.5698 79.328 39.664C79.328 17.7582 61.5698 0 39.664 0C17.7582 0 0 17.7582 0 39.664C0 61.5698 17.7582 79.328 39.664 79.328Z" fill="#121212"/>
<path d="M32.312 56.624C44.0823 56.624 53.624 47.0823 53.624 35.312C53.624 23.5417 44.0823 14 32.312 14C20.5417 14 11 23.5417 11 35.312C11 47.0823 20.5417 56.624 32.312 56.624Z" fill="#1D1D1D"/>
<path d="M56.88 65.5039C62.6017 65.5039 67.24 60.8656 67.24 55.1439C67.24 49.4223 62.6017 44.7839 56.88 44.7839C51.1583 44.7839 46.52 49.4223 46.52 55.1439C46.52 60.8656 51.1583 65.5039 56.88 65.5039Z" fill="#1D1D1D"/>
<path fill-rule="evenodd" clip-rule="evenodd" d="M51.4152 49.0251C52.6917 48.2346 53.7452 47.1311 54.4755 45.8192C55.2058 44.5073 55.5888 43.0305 55.5882 41.5291C55.589 40.0264 55.2055 38.5485 54.4743 37.2358C53.743 35.9231 52.6882 34.8192 51.4102 34.0291" fill="#0ABB92"/>
<path d="M30.8511 36.1402C30.8511 35.3283 30.1932 34.6702 29.3816 34.6702C28.57 34.6702 27.9121 35.3283 27.9121 36.1402V45.9372C27.9121 46.749 28.57 47.4072 29.3816 47.4072C30.1932 47.4072 30.8511 46.749 30.8511 45.9372V36.1402Z" fill="#0ABB92" stroke="#EBEBF5" stroke-width="1.462"/>
<path fill-rule="evenodd" clip-rule="evenodd" d="M31.3522 34.4181L48.0532 27.4031C48.2021 27.3404 48.3643 27.3156 48.5252 27.3307C48.686 27.3459 48.8407 27.4006 48.9753 27.49C49.1099 27.5794 49.2203 27.7007 49.2967 27.843C49.3731 27.9854 49.4131 28.1445 49.4132 28.3061V53.7721C49.4133 53.9338 49.3734 54.093 49.2971 54.2355C49.2207 54.378 49.1103 54.4994 48.9757 54.5889C48.8411 54.6784 48.6864 54.7332 48.5254 54.7484C48.3644 54.7636 48.2022 54.7388 48.0532 54.6761L31.3522 47.6591C31.1744 47.5843 31.0227 47.4587 30.916 47.2981C30.8092 47.1375 30.7523 46.9489 30.7522 46.7561V35.3221C30.7523 35.1292 30.8092 34.9407 30.916 34.7801C31.0227 34.6194 31.1744 34.4939 31.3522 34.4191V34.4181Z" fill="#1D1D1D" stroke="#EBEBF5" stroke-width="1.462"/>
</svg>
