<svg width="80" height="80" viewBox="0 0 80 80" fill="none" xmlns="http://www.w3.org/2000/svg">
<path d="M39.664 79.328C61.5698 79.328 79.328 61.5698 79.328 39.664C79.328 17.7582 61.5698 0 39.664 0C17.7582 0 0 17.7582 0 39.664C0 61.5698 17.7582 79.328 39.664 79.328Z" fill="#121212"/>
<path d="M32.312 56.624C44.0823 56.624 53.624 47.0823 53.624 35.312C53.624 23.5417 44.0823 14 32.312 14C20.5417 14 11 23.5417 11 35.312C11 47.0823 20.5417 56.624 32.312 56.624Z" fill="#1D1D1D"/>
<path d="M56.88 65.5039C62.6017 65.5039 67.24 60.8656 67.24 55.1439C67.24 49.4223 62.6017 44.7839 56.88 44.7839C51.1583 44.7839 46.52 49.4223 46.52 55.1439C46.52 60.8656 51.1583 65.5039 56.88 65.5039Z" fill="#1D1D1D"/>
<path fill-rule="evenodd" clip-rule="evenodd" d="M25.5421 28.0501H52.0231C52.3983 28.0495 52.77 28.1229 53.1168 28.2661C53.4637 28.4093 53.7789 28.6194 54.0445 28.8844C54.3101 29.1495 54.5209 29.4643 54.6647 29.8108C54.8086 30.1573 54.8828 30.5288 54.8831 30.9041V50.6881C54.8827 51.0632 54.8084 51.4346 54.6645 51.781C54.5205 52.1274 54.3097 52.4421 54.0441 52.707C53.7785 52.972 53.4634 53.182 53.1166 53.3251C52.7698 53.4682 52.3982 53.5416 52.0231 53.541H25.5431C25.168 53.5416 24.7964 53.4682 24.4496 53.3251C24.1029 53.182 23.7877 52.972 23.5221 52.707C23.2565 52.4421 23.0457 52.1274 22.9017 51.781C22.7578 51.4346 22.6835 51.0632 22.6831 50.6881V30.9041C22.6834 30.5289 22.7575 30.1575 22.9014 29.811C23.0452 29.4646 23.2559 29.1498 23.5214 28.8848C23.7869 28.6198 24.102 28.4096 24.4487 28.2664C24.7954 28.1232 25.167 28.0497 25.5421 28.0501Z" fill="#1D1D1D" stroke="#EBEBF5" stroke-width="1.342"/>
<path fill-rule="evenodd" clip-rule="evenodd" d="M28.8961 28.0501H52.0231C52.3983 28.0495 52.77 28.1229 53.1168 28.2661C53.4636 28.4093 53.7789 28.6194 54.0445 28.8844C54.3101 29.1495 54.5208 29.4643 54.6647 29.8108C54.8086 30.1573 54.8828 30.5288 54.8831 30.9041V50.6881C54.8827 51.0632 54.8084 51.4346 54.6644 51.781C54.5205 52.1274 54.3097 52.4421 54.0441 52.707C53.7785 52.972 53.4633 53.182 53.1166 53.3251C52.7698 53.4682 52.3982 53.5416 52.0231 53.541H28.8971C28.522 53.5414 28.1506 53.468 27.8039 53.3248C27.4573 53.1816 27.1422 52.9716 26.8767 52.7067C26.6112 52.4417 26.4005 52.1271 26.2566 51.7808C26.1127 51.4344 26.0385 51.0631 26.0381 50.6881V30.9041C26.0383 30.529 26.1125 30.1577 26.2563 29.8113C26.4 29.4649 26.6106 29.1502 26.876 28.8851C27.1414 28.6201 27.4564 28.41 27.803 28.2667C28.1496 28.1234 28.521 28.0498 28.8961 28.0501Z" fill="#1D1D1D" stroke="#EBEBF5" stroke-width="1.342"/>
<path fill-rule="evenodd" clip-rule="evenodd" d="M47.3972 36.1001H55.6602C56.7132 36.1001 57.5662 36.9521 57.5662 38.0021V43.5891C57.5662 44.6391 56.7132 45.4911 55.6602 45.4911H47.3972C47.1472 45.4914 46.8995 45.4424 46.6684 45.3469C46.4373 45.2515 46.2273 45.1115 46.0503 44.9348C45.8733 44.7582 45.7328 44.5485 45.6369 44.3176C45.541 44.0867 45.4915 43.8391 45.4912 43.5891V38.0021C45.4912 36.9521 46.3442 36.1001 47.3972 36.1001Z" fill="#1D1D1D" stroke="#EBEBF5" stroke-width="1.342"/>
<path d="M50.187 42.8082C51.2982 42.8082 52.199 41.9074 52.199 40.7962C52.199 39.685 51.2982 38.7842 50.187 38.7842C49.0759 38.7842 48.175 39.685 48.175 40.7962C48.175 41.9074 49.0759 42.8082 50.187 42.8082Z" fill="#EBEBF5"/>
<path d="M34.7932 39.0651H37.8982C38.0069 39.0657 38.1131 39.0972 38.2046 39.1559C38.296 39.2147 38.3688 39.2983 38.4144 39.3969C38.4601 39.4955 38.4767 39.6051 38.4623 39.7128C38.4479 39.8205 38.4031 39.9219 38.3332 40.0051L31.5452 47.9701C31.5052 48.0174 31.45 48.0493 31.3892 48.0604C31.3283 48.0716 31.2654 48.0614 31.2112 48.0315C31.157 48.0015 31.1149 47.9538 31.0919 47.8963C31.0689 47.8388 31.0666 47.7752 31.0852 47.7161L32.9902 41.6741H31.8052C31.7201 41.674 31.6361 41.6549 31.5593 41.6182C31.4825 41.5816 31.4148 41.5283 31.3612 41.4622C31.3076 41.3961 31.2694 41.319 31.2493 41.2363C31.2292 41.1536 31.2278 41.0674 31.2452 40.9841L32.8492 33.5581C32.8952 33.3454 33.0126 33.1548 33.182 33.0182C33.3514 32.8815 33.5625 32.807 33.7802 32.8071H37.5972C37.6985 32.8074 37.7979 32.8345 37.8852 32.8858C37.9725 32.937 38.0447 33.0105 38.0943 33.0988C38.144 33.1871 38.1693 33.2869 38.1677 33.3882C38.1661 33.4895 38.1376 33.5885 38.0852 33.6751L34.7932 39.0661V39.0651Z" fill="#0ABB92"/>
</svg>
