<svg width="80" height="80" viewBox="0 0 80 80" fill="none" xmlns="http://www.w3.org/2000/svg">
<path d="M39.664 79.328C61.5698 79.328 79.328 61.5698 79.328 39.664C79.328 17.7582 61.5698 0 39.664 0C17.7582 0 0 17.7582 0 39.664C0 61.5698 17.7582 79.328 39.664 79.328Z" fill="#121212"/>
<path d="M32.312 56.624C44.0823 56.624 53.624 47.0823 53.624 35.312C53.624 23.5417 44.0823 14 32.312 14C20.5417 14 11 23.5417 11 35.312C11 47.0823 20.5417 56.624 32.312 56.624Z" fill="#1D1D1D"/>
<path d="M56.88 65.5039C62.6017 65.5039 67.24 60.8656 67.24 55.1439C67.24 49.4223 62.6017 44.7839 56.88 44.7839C51.1583 44.7839 46.52 49.4223 46.52 55.1439C46.52 60.8656 51.1583 65.5039 56.88 65.5039Z" fill="#1D1D1D"/>
<path fill-rule="evenodd" clip-rule="evenodd" d="M33.4065 27.8601L35.847 30.3005H45.5506C46.2092 30.3005 46.7709 30.5427 47.2357 31.0269C47.7006 31.5111 47.933 32.0825 47.933 32.741V44.827C47.933 45.4855 47.7006 46.0569 47.2357 46.5411C46.7709 47.0253 46.2092 47.2674 45.5506 47.2674H26.1433C25.4848 47.2674 24.9231 47.0253 24.4583 46.5411C23.9934 46.0569 23.761 45.4855 23.761 44.827V30.3005C23.761 29.642 23.9934 29.0706 24.4583 28.5864C24.9231 28.1022 25.4848 27.8601 26.1433 27.8601H33.4065Z" fill="#1D1D1D" stroke="#EBEBF5" stroke-width="1.3536"/>
<path d="M32.7893 33.9299H39.9039V34.9288H32.7893V33.9299ZM32.7893 37.9744V36.9755H39.9039V37.9744H32.7893ZM32.7893 41.02V40.0211H39.9039V41.02H32.7893ZM31.2665 39.7531C31.4777 39.7531 31.6584 39.8302 31.8087 39.9845C31.9589 40.1388 32.034 40.3175 32.034 40.5206C32.034 40.7236 31.9569 40.9002 31.8026 41.0505C31.6483 41.2007 31.4696 41.2759 31.2665 41.2759C31.0635 41.2759 30.8869 41.2007 30.7366 41.0505C30.5864 40.9002 30.5112 40.7236 30.5112 40.5206C30.5112 40.3175 30.5843 40.1388 30.7305 39.9845C30.8767 39.8302 31.0554 39.7531 31.2665 39.7531ZM31.2665 33.6619C31.4777 33.6619 31.6584 33.737 31.8087 33.8872C31.9589 34.0375 32.034 34.2182 32.034 34.4294C32.034 34.6405 31.9589 34.8192 31.8087 34.9654C31.6584 35.1116 31.4777 35.1847 31.2665 35.1847C31.0554 35.1847 30.8767 35.1116 30.7305 34.9654C30.5843 34.8192 30.5112 34.6405 30.5112 34.4294C30.5112 34.2182 30.5843 34.0375 30.7305 33.8872C30.8767 33.737 31.0554 33.6619 31.2665 33.6619ZM31.2665 36.7075C31.4777 36.7075 31.6584 36.7826 31.8087 36.9328C31.9589 37.0831 32.034 37.2638 32.034 37.475C32.034 37.6861 31.9589 37.8648 31.8087 38.011C31.6584 38.1572 31.4777 38.2303 31.2665 38.2303C31.0554 38.2303 30.8767 38.1572 30.7305 38.011C30.5843 37.8648 30.5112 37.6861 30.5112 37.475C30.5112 37.2638 30.5843 37.0831 30.7305 36.9328C30.8767 36.7826 31.0554 36.7075 31.2665 36.7075Z" fill="#EBEBF5"/>
<path d="M47.6513 51.8773C52.9025 51.8773 57.1595 47.6203 57.1595 42.3691C57.1595 37.1178 52.9025 32.8608 47.6513 32.8608C42.4 32.8608 38.1431 37.1178 38.1431 42.3691C38.1431 47.6203 42.4 51.8773 47.6513 51.8773Z" fill="#0ABB92" stroke="#1D1D1D" stroke-width="1.3536"/>
<path d="M44.0168 41.5455C44.0089 41.5455 44.0049 41.5435 44.0049 41.5396C44.0049 41.5356 44.0029 41.5336 43.999 41.5336H43.9454L43.9335 41.5217H43.8978L43.8859 41.5098H43.874L43.8621 41.4979H43.8383V41.486H43.8264L43.8146 41.4741H43.8027V41.4622H43.7908L43.767 41.4384H43.7551C43.7471 41.4226 43.7392 41.4107 43.7313 41.4027C43.7233 41.4027 43.7194 41.4008 43.7194 41.3968V41.3908L43.7075 41.379V41.3671H43.6956V41.3552L43.6837 41.3433V41.3373C43.6837 41.3333 43.6817 41.3314 43.6777 41.3314H43.6718V41.3195L43.6599 41.3076V41.2897C43.6599 41.2858 43.6579 41.2838 43.6539 41.2838H43.648V41.2719C43.648 41.2639 43.646 41.26 43.642 41.26C43.6381 41.26 43.6361 41.258 43.6361 41.254V41.2124L43.6242 41.2005V41.0339L43.6361 41.022V40.9864C43.644 40.9784 43.648 40.9725 43.648 40.9685V40.9507L43.6599 40.9388V40.9269L43.6718 40.915V40.909C43.6718 40.9051 43.6738 40.9011 43.6777 40.8971L43.6837 40.8912V40.8852C43.6837 40.8813 43.6857 40.8793 43.6896 40.8793C43.6936 40.8793 43.6956 40.8773 43.6956 40.8733V40.8674L43.7075 40.8555C43.7075 40.8476 43.7114 40.8436 43.7194 40.8436V40.8317H43.7313L45.8608 38.7022C45.9401 38.6149 46.0393 38.5713 46.1582 38.5713C46.2772 38.5713 46.3763 38.6149 46.4557 38.7022C46.5429 38.7894 46.5865 38.8905 46.5865 39.0055C46.5865 39.1205 46.5429 39.2217 46.4557 39.3089L45.0756 40.6889H51.5594C51.6784 40.6889 51.7795 40.7306 51.8628 40.8138C51.9461 40.8971 51.9877 40.9983 51.9877 41.1172C51.9877 41.2362 51.9461 41.3373 51.8628 41.4206C51.7795 41.5039 51.6784 41.5455 51.5594 41.5455H44.0168ZM51.5832 43.8535C51.5911 43.8535 51.5951 43.8555 51.5951 43.8594C51.5951 43.8634 51.5971 43.8654 51.6011 43.8654H51.6546L51.6665 43.8773H51.7022V43.8892H51.726L51.7379 43.9011H51.7617V43.913H51.7736L51.7855 43.9249H51.7974V43.9368H51.8093L51.833 43.9606H51.8449C51.8529 43.9764 51.8608 43.9883 51.8687 43.9963C51.8767 43.9963 51.8806 43.9982 51.8806 44.0022V44.0082L51.8925 44.0201V44.032H51.9044V44.0439H51.9104C51.9143 44.0439 51.9163 44.0458 51.9163 44.0498V44.0617C51.9163 44.0657 51.9183 44.0676 51.9223 44.0676C51.9262 44.0676 51.9282 44.0696 51.9282 44.0736V44.0795L51.9401 44.0914V44.1093C51.9401 44.1132 51.9421 44.1152 51.9461 44.1152H51.952V44.139L51.958 44.145C51.9619 44.1489 51.9639 44.1529 51.9639 44.1569V44.1866L51.9758 44.1985V44.3651L51.9639 44.377V44.4127L51.952 44.4246V44.4483L51.9401 44.4602V44.4721L51.9282 44.484V44.49C51.9282 44.4939 51.9262 44.4979 51.9223 44.5019L51.9163 44.5078V44.5138C51.9163 44.5177 51.9143 44.5197 51.9104 44.5197C51.9064 44.5197 51.9044 44.5217 51.9044 44.5257V44.5316L51.8925 44.5435C51.8925 44.5515 51.8905 44.5554 51.8866 44.5554H51.8806V44.5673H51.8687L51.8628 44.5733C51.8588 44.5772 51.8568 44.5832 51.8568 44.5911L49.7511 46.6969C49.6638 46.7841 49.5607 46.8277 49.4418 46.8277C49.3228 46.8277 49.2237 46.7841 49.1444 46.6969C49.0571 46.6175 49.0135 46.5184 49.0135 46.3994C49.0135 46.2805 49.0571 46.1774 49.1444 46.0901L50.5244 44.7101H44.0406C43.9296 44.7101 43.8304 44.6684 43.7432 44.5852C43.6559 44.5019 43.6123 44.4008 43.6123 44.2818C43.6123 44.1628 43.6559 44.0617 43.7432 43.9784C43.8304 43.8951 43.9296 43.8535 44.0406 43.8535H51.5832Z" fill="#EBEBF5"/>
</svg>
