<svg width="80" height="80" viewBox="0 0 80 80" fill="none" xmlns="http://www.w3.org/2000/svg">
<path d="M39.664 79.328C61.5698 79.328 79.328 61.5698 79.328 39.664C79.328 17.7582 61.5698 0 39.664 0C17.7582 0 0 17.7582 0 39.664C0 61.5698 17.7582 79.328 39.664 79.328Z" fill="#121212"/>
<path d="M32.312 56.624C44.0823 56.624 53.624 47.0823 53.624 35.312C53.624 23.5417 44.0823 14 32.312 14C20.5417 14 11 23.5417 11 35.312C11 47.0823 20.5417 56.624 32.312 56.624Z" fill="#1D1D1D"/>
<path d="M56.88 65.5039C62.6017 65.5039 67.24 60.8656 67.24 55.1439C67.24 49.4223 62.6017 44.7839 56.88 44.7839C51.1583 44.7839 46.52 49.4223 46.52 55.1439C46.52 60.8656 51.1583 65.5039 56.88 65.5039Z" fill="#1D1D1D"/>
<path d="M36.655 47.9811C42.9102 47.9811 47.981 42.9103 47.981 36.6551C47.981 30.3999 42.9102 25.3291 36.655 25.3291C30.3998 25.3291 25.329 30.3999 25.329 36.6551C25.329 42.9103 30.3998 47.9811 36.655 47.9811Z" fill="#1D1D1D"/>
<path d="M54.3719 53.0801L46.9239 45.6331C48.9949 43.2591 50.1344 40.2144 50.1309 37.0641C50.1309 29.8541 44.2669 23.9971 37.0639 23.9971C29.8539 23.9971 23.9969 29.8611 23.9969 37.0641C23.9969 44.2671 29.8609 50.1311 37.0639 50.1311C40.3389 50.1311 43.3359 48.9211 45.6329 46.9241L53.0799 54.3721C53.2513 54.5438 53.4834 54.6411 53.7259 54.6431C53.9062 54.6412 54.0819 54.5864 54.2312 54.4854C54.3805 54.3844 54.4969 54.2417 54.5657 54.0751C54.6346 53.9086 54.6529 53.7254 54.6184 53.5485C54.584 53.3715 54.4983 53.2087 54.3719 53.0801ZM25.8249 37.0641C25.8249 30.8671 30.8669 25.8321 37.0569 25.8321C43.2549 25.8321 48.2899 30.8741 48.2899 37.0641C48.2899 43.2541 43.2549 48.3041 37.0569 48.3041C30.8669 48.3041 25.8249 43.2611 25.8249 37.0641Z" fill="#EBEBF5"/>
<path fill-rule="evenodd" clip-rule="evenodd" d="M44.354 31.9922H41.467C40.935 31.9922 40.504 32.4442 40.504 33.0022C40.504 33.5602 40.934 34.0122 41.467 34.0122H41.903L37.551 38.2552L34.345 35.7302C34.1691 35.5904 33.9485 35.5192 33.7241 35.5299C33.4997 35.5405 33.2868 35.6323 33.125 35.7882L28.313 40.3352C28.1225 40.5197 28.0091 40.7696 27.9957 41.0345C27.9824 41.2994 28.07 41.5594 28.241 41.7622C28.3227 41.8604 28.4238 41.9408 28.538 41.9982C28.6522 42.0556 28.777 42.0889 28.9046 42.0959C29.0322 42.103 29.1599 42.0836 29.2797 42.0391C29.3996 41.9946 29.5089 41.9258 29.601 41.8372L33.823 37.8462L37.04 40.3782C37.2178 40.5202 37.4415 40.5918 37.6687 40.5794C37.8959 40.5671 38.1106 40.4716 38.272 40.3112L43.392 35.3202V36.0332C43.392 36.5912 43.822 37.0432 44.354 37.0432C44.885 37.0432 45.316 36.5912 45.316 36.0332V33.0032C45.316 32.4442 44.886 31.9922 44.354 31.9922Z" fill="#0ABB92"/>
</svg>
