<svg width="175" height="123" viewBox="0 0 175 123" fill="none" xmlns="http://www.w3.org/2000/svg">
<g clip-path="url(#clip0)">
<path d="M107.54 15.04C100.048 20.286 90.3301 19.947 81.8131 17.217C73.2971 14.487 65.4731 9.627 57.1761 6.174C50.2604 3.28897 42.974 1.3891 35.5301 0.53C24.9541 -0.679 13.1451 0.795 5.77707 9.28C-2.42793 18.723 -1.79793 35.76 7.07307 44.434C11.5881 48.844 17.4991 51.008 22.6541 54.451C27.8091 57.893 32.5841 63.607 32.1461 70.249C31.7391 76.405 27.0131 81.122 22.1231 84.085C18.3431 86.375 13.6891 88.875 13.2331 93.615C12.7931 98.204 16.7071 101.799 20.4441 103.843C32.6371 110.514 47.6601 110.449 59.8101 103.681C64.1421 101.259 68.1211 98.045 72.6651 96.169C84.5961 91.225 97.7451 96.203 110.379 98.022C121.114 99.5601 132.055 98.764 142.455 95.688C148.711 93.839 154.992 91.014 159.387 85.751C162.557 81.955 164.532 77.153 166.385 72.409C168.364 67.3447 170.265 62.2501 172.086 57.127C173.18 54.049 174.256 50.909 174.54 47.614C175.052 41.644 172.894 35.744 169.956 30.704C162.978 18.734 151.227 10.322 138.5 8.185C125.774 6.048 112.31 10.222 102.44 19.354" fill="#0E231E"/>
<path d="M87.5852 16.9129L86.9682 52.7149C86.9682 52.7149 109.311 52.7149 128.322 58.8869L128.692 22.7189C128.692 22.7189 98.2022 15.4299 87.5852 16.9129ZM76.3682 17.9379L76.9862 53.7399C76.9862 53.7399 54.6432 53.7399 35.6342 59.9119L35.2632 23.7439C35.2632 23.7439 65.7532 16.4639 76.3682 17.9379Z" fill="#0B5E49"/>
<path d="M66.819 21.305L67.151 40.503C67.151 40.503 55.1629 40.503 44.9729 43.813L44.7729 24.417C44.7729 24.417 61.1259 20.514 66.819 21.305Z" fill="#0E231E"/>
<path d="M141.86 30.082V65.51C141.86 65.51 149.15 64.644 164.451 83.532L165.809 48.104C165.809 48.104 149.884 30.945 141.86 30.082ZM24.03 30.244V65.672C24.03 65.672 16.746 64.806 1.44801 83.694L0.0830078 48.266C0.0830078 48.266 16.006 31.107 24.029 30.244H24.03Z" fill="#0B5E49"/>
<path d="M93.0691 23.712L108.205 26.419V28.624L93.0691 25.717V23.712Z" fill="#0E231E"/>
<path d="M63.9091 45.015L48.7751 47.722V49.927L63.9091 47.02V45.015ZM93.2701 27.822L120.933 33.536V35.74L93.2701 29.827V27.822ZM93.2701 31.932L120.933 37.644V39.85L93.2701 33.936V31.932Z" fill="#0E231E"/>
<path opacity="0.2" d="M147.987 41.036V42.982L153.921 47.803L154.2 46.134L147.987 41.036Z" fill="#7C7E8C"/>
<path d="M147.987 59.828V61.774L153.921 66.595L154.2 64.926L147.987 59.828ZM148.08 44.373L147.987 46.321L159.205 56.888L159.021 54.664L148.08 44.373ZM147.987 47.99V49.843L159.205 60.598V58.188L147.987 47.99Z" fill="#B0B2BA"/>
<path d="M17.9702 41.457L18.0632 43.405L6.84619 53.972L7.03119 51.748L17.9702 41.457ZM18.0632 45.073V46.927L6.84619 57.682V55.272L18.0632 45.073Z" fill="#B0B2BA"/>
<path opacity="0.1" d="M33.1471 102.569C38.2469 102.569 42.3811 101.825 42.3811 100.907C42.3811 99.9891 38.2469 99.245 33.1471 99.245C28.0473 99.245 23.9131 99.9891 23.9131 100.907C23.9131 101.825 28.0473 102.569 33.1471 102.569Z" fill="#4E6F8A"/>
<path d="M11.2481 91.7679C11.2481 91.7679 12.1371 92.9309 10.8361 94.6839C9.53614 96.4369 8.46314 97.9239 8.89214 99.0189C8.89214 99.0189 10.8541 95.7569 12.4561 95.7109C14.0581 95.6659 13.0061 93.7379 11.2481 91.7679Z" fill="#00D09C"/>
<path opacity="0.1" d="M11.2481 91.7679C11.3261 91.8799 11.3871 92.0029 11.4291 92.1329C12.9881 93.9629 13.8191 95.673 12.3201 95.716C10.9251 95.755 9.2421 98.251 8.8501 98.882C8.8631 98.929 8.8801 98.9769 8.8971 99.0239C8.8971 99.0239 10.8591 95.761 12.4611 95.716C14.0631 95.6709 13.0051 93.7379 11.2481 91.7679Z" fill="black"/>
<path d="M12.902 93.252C12.902 93.662 12.856 93.994 12.8 93.994C12.743 93.994 12.696 93.662 12.696 93.252C12.696 92.842 12.754 93.035 12.811 93.035C12.868 93.035 12.901 92.841 12.901 93.252H12.902Z" fill="#FFD037"/>
<path d="M13.4701 93.738C13.1101 93.934 12.7961 94.052 12.7691 94.004C12.7411 93.955 13.0121 93.754 13.3711 93.558C13.7311 93.362 13.5891 93.505 13.6161 93.558C13.6441 93.612 13.8301 93.544 13.4701 93.738Z" fill="#FFD037"/>
<path d="M6.546 91.7679C6.546 91.7679 5.66 92.9279 6.956 94.6889C8.252 96.4489 9.33 97.9289 8.9 99.0239C8.9 99.0239 6.938 95.761 5.336 95.716C3.734 95.6709 4.79 93.7379 6.546 91.7679Z" fill="#00D09C"/>
<path opacity="0.1" d="M6.54598 91.7679C6.46886 91.8805 6.40793 92.0034 6.36498 92.1329C4.80698 93.9629 3.97498 95.673 5.47398 95.716C6.86998 95.755 8.55198 98.251 8.94398 98.882C8.93123 98.9302 8.91553 98.9776 8.89698 99.0239C8.89698 99.0239 6.93498 95.761 5.33298 95.716C3.73098 95.6709 4.78998 93.7379 6.54598 91.7679Z" fill="black"/>
<path d="M4.89209 93.252C4.89209 93.662 4.93809 93.994 4.99409 93.994C5.05109 93.994 5.09809 93.662 5.09809 93.252C5.09809 92.842 5.04009 93.035 4.98309 93.035C4.92609 93.035 4.89309 92.841 4.89309 93.252H4.89209Z" fill="#FFD037"/>
<path d="M4.32515 93.738C4.68515 93.934 4.99815 94.052 5.02515 94.004C5.05315 93.955 4.78215 93.754 4.42315 93.558C4.06315 93.362 4.20615 93.505 4.17815 93.558C4.15015 93.612 3.96615 93.544 4.32515 93.738Z" fill="#FFD037"/>
<path d="M5.17407 98.872C5.17407 98.872 7.66307 98.796 8.41407 98.262C9.16607 97.726 12.2411 97.09 12.4271 97.947C12.6131 98.804 16.1661 102.206 13.3571 102.228C10.5471 102.251 6.83007 101.791 6.08107 101.334C5.33307 100.877 5.17407 98.872 5.17407 98.872Z" fill="#C5B4B7"/>
<path opacity="0.2" d="M13.407 101.93C10.598 101.953 6.88003 101.493 6.13203 101.036C5.56203 100.689 5.33503 99.444 5.25903 98.869H5.17603C5.17603 98.869 5.33803 100.876 6.08103 101.331C6.82503 101.786 10.548 102.248 13.357 102.225C14.167 102.225 14.449 101.93 14.433 101.503C14.321 101.763 14.011 101.926 13.407 101.93Z" fill="black"/>
<path opacity="0.1" d="M97.281 79.025C105.691 79.025 112.509 77.8573 112.509 76.417C112.509 74.9766 105.691 73.809 97.281 73.809C88.8708 73.809 82.053 74.9766 82.053 76.417C82.053 77.8573 88.8708 79.025 97.281 79.025Z" fill="#4E6F8A"/>
<path d="M94.21 41.216C94.1353 41.3743 94.0806 41.5412 94.047 41.713L94.018 41.849C93.9122 42.4379 93.8388 43.0321 93.798 43.629C93.798 43.629 90.284 43.395 90.893 42.805C91.05 42.642 91.163 42.441 91.217 42.222C91.2718 42.0135 91.306 41.8002 91.319 41.585V41.472C91.3269 41.2291 91.3155 40.986 91.285 40.745C91.285 40.745 92.427 40.745 93.289 40.837C93.869 40.903 94.321 41.018 94.209 41.216H94.21ZM88.118 57.936C86.921 57.897 87.804 55.404 87.942 55.069C88.079 54.733 87.738 53.912 87.738 53.912C87.738 53.912 87.333 51.537 87.333 51.382C87.312 51.058 87.2662 50.736 87.196 50.419C87.1538 50.0955 87.2103 49.7669 87.358 49.476C87.496 49.261 87.475 48.397 87.475 48.397V47.28L87.742 46.927L88.424 47.575L88.614 47.753L88.948 49.003L88.829 50.795L88.766 52.54L89.179 54.954C89.179 54.954 89.324 57.977 88.119 57.936H88.118Z" fill="#D38884"/>
<path opacity="0.1" d="M88.4971 47.871L87.4771 47.447V47.281L87.7421 46.928L88.4261 47.573L88.4971 47.871Z" fill="black"/>
<path d="M88.0281 45.318C87.8967 45.6401 87.8014 45.9759 87.7441 46.319C87.6911 46.649 87.6021 46.971 87.4771 47.279L88.6111 47.751L88.0281 45.318Z" fill="#EBEBF5"/>
<path d="M97.0602 70.102L96.9672 70.303C96.9672 70.303 96.8652 70.969 96.8652 70.985C96.8652 71.001 96.5702 71.445 96.5702 71.445L95.8302 71.607L95.5152 71.568C95.4985 71.3851 95.4705 71.2034 95.4312 71.024C95.325 70.5528 95.1375 70.1038 94.8772 69.697C94.8772 69.697 94.3272 68.343 94.1322 68.167C93.9362 67.99 93.1892 66.203 93.2682 65.772C93.3102 65.535 93.2762 64.742 93.2382 64.081C93.2052 63.541 93.1692 63.088 93.1692 63.088L95.0342 61.986L95.2512 62.328L95.3812 62.53C95.3812 62.53 95.3812 62.57 95.3732 62.634V62.658C95.3518 62.9335 95.2974 63.2054 95.2112 63.468C95.2112 63.468 95.0712 64.47 95.2112 64.646C95.3502 64.823 95.7942 67.183 95.8932 68.275V68.374C95.9322 68.876 96.2432 69.323 96.5552 69.65C96.7113 69.8138 96.8802 69.9649 97.0602 70.102Z" fill="#D38884"/>
<path opacity="0.1" d="M95.515 71.565L95.829 71.604L96.569 71.442C96.569 71.442 96.865 70.996 96.865 70.982C96.865 70.967 96.967 70.3 96.967 70.3L97.061 70.099L97.072 70.075C96.8908 69.9495 96.7206 69.809 96.563 69.655C96.5449 69.6391 96.5275 69.6225 96.511 69.605C96.495 69.587 96.617 70.253 96.053 70.543C95.779 70.683 95.554 70.793 95.397 70.867L95.515 71.565Z" fill="black"/>
<path d="M97.1902 70.196L97.0852 70.421C97.0852 70.421 96.9832 71.087 96.9832 71.103C96.9832 71.12 96.6882 71.563 96.6882 71.563L95.9482 71.725L95.5222 71.675C95.5222 71.589 95.5072 71.468 95.4862 71.32C95.4717 71.2213 95.4533 71.1233 95.4312 71.026C95.5932 70.953 95.8442 70.833 96.1662 70.666C96.7322 70.376 96.6252 69.728 96.6252 69.728C96.7472 69.85 96.8762 69.965 97.0122 70.071C97.0902 70.127 97.1532 70.171 97.1902 70.196Z" fill="#CEDDF9"/>
<path opacity="0.1" d="M97.1901 70.196L97.0851 70.421C97.0851 70.421 96.9831 71.087 96.9831 71.103C96.9831 71.12 96.6881 71.563 96.6881 71.563L95.9481 71.725L95.5221 71.675C95.5221 71.589 95.5071 71.468 95.4861 71.32C95.5761 71.325 95.6661 71.337 95.7551 71.358C95.7551 71.358 96.7651 71.573 96.8151 70.773C96.8441 70.319 96.9381 70.141 97.0121 70.071C97.0901 70.127 97.1531 70.171 97.1901 70.196Z" fill="black"/>
<path d="M97.1161 70.1429C97.1161 70.1429 96.8651 70.0879 96.8141 70.8859C96.7641 71.6849 95.7551 71.4709 95.7551 71.4709C95.7551 71.4709 95.2591 71.3479 95.2551 71.5539C95.2711 71.7439 95.3151 71.9309 95.3871 72.1079C95.3871 72.1079 95.4171 72.5839 95.5101 72.6979C95.6041 72.8109 95.5441 73.2319 95.5441 73.2319C95.5441 73.2319 95.5841 73.5459 96.3641 73.2319C96.3641 73.2319 97.0611 73.0879 97.6391 72.2219C97.6591 72.1919 97.5711 72.1029 98.0761 71.9219C98.5821 71.7399 100.02 70.5769 99.9161 70.0079C99.9049 69.9139 99.8665 69.8252 99.8055 69.7527C99.7446 69.6802 99.6638 69.6271 99.5731 69.5999C99.4974 69.5798 99.4185 69.5749 99.3409 69.5856C99.2633 69.5962 99.1886 69.6222 99.1211 69.6619C98.9845 69.7357 98.8432 69.8005 98.6981 69.8559C98.5058 69.9338 98.3029 69.9823 98.0961 69.9999C97.9375 70.0138 97.7806 70.0439 97.6281 70.0899C97.4653 70.1533 97.2885 70.1716 97.1161 70.1429Z" fill="#CC8294"/>
<path d="M91.3941 64.6441C91.2826 64.7364 91.1864 64.8457 91.1091 64.9681C90.8241 65.4041 90.6521 66.0131 90.4611 66.2761C90.2111 66.6161 90.1371 67.2771 90.1371 67.2771C90.0701 67.7111 89.1501 70.0311 88.9011 70.4421C88.6511 70.8541 88.3051 71.9731 88.3051 71.9731C88.0921 72.2391 88.1051 72.6341 88.1261 72.8231C88.1261 72.8551 88.1261 72.8811 88.1361 72.8981C88.1461 72.9161 88.1361 72.9291 88.1361 72.9291V72.9401L87.7961 73.5191L86.7141 73.3691L86.1541 72.9891C86.2011 72.9151 86.2411 72.8371 86.2761 72.7571C86.5761 72.0901 86.7881 70.8971 86.7881 70.8971C86.7881 70.8971 87.0901 69.5371 87.0671 69.2191C87.0741 68.7861 87.1041 68.3541 87.1561 67.9231C87.1561 67.9231 88.0081 65.3231 88.2801 64.9031C88.3941 64.7361 88.4641 64.5431 88.4841 64.3431C88.4893 64.3029 88.4893 64.2622 88.4841 64.2221L88.8511 63.8571C88.8511 63.8571 91.8641 64.2701 91.3941 64.6441Z" fill="#D38884"/>
<path opacity="0.1" d="M88.147 72.816V72.944L87.807 73.522L86.725 73.372L86.166 72.992C86.212 72.918 86.253 72.841 86.288 72.761C86.56 72.683 87.182 72.903 87.182 72.903C87.182 72.903 87.854 73.031 88.138 72.825C88.138 72.824 88.141 72.819 88.148 72.815L88.147 72.816Z" fill="black"/>
<path d="M87.8831 74.3601L86.7851 74.6221L85.7771 73.8771L85.8291 73.4571C85.9125 73.4061 85.9847 73.3389 86.0415 73.2593C86.0982 73.1797 86.1382 73.0895 86.1591 72.9941C86.2181 72.6841 87.1751 73.0241 87.1751 73.0241C87.1751 73.0241 87.8751 73.1561 88.1471 72.9341C88.1281 73.1371 88.1461 73.3431 88.1991 73.5401C88.2251 73.636 88.2821 73.7207 88.3611 73.7811C88.6411 73.9741 87.8831 74.3601 87.8831 74.3601Z" fill="#CEDDF9"/>
<path opacity="0.1" d="M87.8831 74.36L86.7851 74.622L85.7771 73.877L85.8291 73.457C85.8996 73.414 85.9621 73.3592 86.0141 73.295H86.2341C86.3961 73.311 86.8011 74.032 86.8011 74.032C87.7961 74.099 88.0971 73.773 88.1991 73.533C88.2249 73.6294 88.2819 73.7145 88.3611 73.775C88.6411 73.975 87.8831 74.36 87.8831 74.36Z" fill="black"/>
<path d="M86.8012 74.154C86.8012 74.154 86.4032 73.433 86.2342 73.418C86.092 73.41 85.9494 73.41 85.8072 73.418C85.8072 73.418 85.3662 74.463 85.2042 74.552C85.0422 74.642 84.8052 75.142 84.8052 75.142C84.8052 75.142 85.9722 76.276 87.0992 76.054C87.4592 76.059 87.8132 76.147 88.1332 76.312C88.6542 76.584 90.8332 76.378 91.0992 75.9C91.2972 75.54 91.3762 75.28 91.2012 75.09C91.1489 75.0357 91.0845 74.9946 91.0131 74.9703C90.9418 74.9459 90.8657 74.939 90.7912 74.95C90.5172 74.988 89.9012 74.982 89.3622 74.32C89.3622 74.32 88.3682 73.409 88.2872 73.407C88.2062 73.405 88.3532 74.257 86.8012 74.154Z" fill="#CC8294"/>
<path opacity="0.1" d="M95.3822 62.649L95.3742 62.659C95.3062 62.733 94.8272 63.259 94.6812 63.297C94.4402 63.3878 94.2045 63.4919 93.9752 63.609C93.9752 63.609 93.6802 64.003 93.4452 64.022C93.374 64.0321 93.3041 64.0506 93.2372 64.077C93.2052 63.538 93.1692 63.084 93.1692 63.084L95.0342 61.986L95.2512 62.328C95.3002 62.466 95.3552 62.594 95.3732 62.634L95.3832 62.649H95.3822Z" fill="black"/>
<path d="M88.604 55.069C88.604 55.069 87.879 56.015 88.604 57.27C88.994 57.976 89.499 58.613 90.096 59.154L92.568 64.277C92.568 64.277 93.216 63.924 93.453 63.904C93.689 63.884 93.983 63.493 93.983 63.493C94.212 63.375 94.448 63.27 94.689 63.178C94.851 63.139 95.39 62.53 95.39 62.53C95.39 62.53 95.12 61.942 95.18 61.785C95.24 61.628 95.003 61.235 95.003 61.235C94.9294 61.0381 94.8751 60.8345 94.841 60.627C94.841 60.465 94.585 60.097 94.585 60.097C94.585 60.097 94.331 59.703 94.331 59.488C94.331 59.273 93.951 58.422 93.951 58.422L93.851 54.696L88.604 55.069Z" fill="#B8DBEF"/>
<path opacity="0.05" d="M95.3821 62.834C95.3821 62.834 94.8381 63.442 94.6811 63.482C94.44 63.5737 94.2043 63.6788 93.9751 63.797C93.9751 63.797 93.6801 64.189 93.4451 64.208C93.2759 64.2431 93.1124 64.3013 92.9591 64.381C92.7491 64.477 92.5591 64.581 92.5591 64.581L90.0851 59.458C89.8686 59.2694 89.6676 59.0638 89.4841 58.843C89.1491 58.448 88.8508 58.0233 88.5931 57.574C88.3097 57.1188 88.209 56.5733 88.3111 56.047C88.3571 55.805 88.4531 55.577 88.5931 55.374L90.3531 55.25L93.8561 55L93.8861 56.103L93.9501 58.726C93.9501 58.726 94.0071 58.857 94.0781 59.031C94.1901 59.271 94.2721 59.525 94.3231 59.786C94.3231 60.003 94.5771 60.395 94.5771 60.395C94.5771 60.395 94.8331 60.767 94.8331 60.925C94.8681 61.132 94.9221 61.336 94.9951 61.534C94.9951 61.534 95.2321 61.926 95.1731 62.081C95.1151 62.237 95.3831 62.834 95.3831 62.834H95.3821Z" fill="black"/>
<path opacity="0.1" d="M91.394 64.644C91.2826 64.7364 91.1864 64.8457 91.109 64.968C90.041 65.046 88.8 64.482 88.478 64.333C88.4832 64.2929 88.4832 64.2522 88.478 64.212L88.844 63.847C88.844 63.847 91.864 64.27 91.394 64.644Z" fill="black"/>
<path d="M94.5431 56.23C94.5431 56.23 94.3811 56.78 94.3281 57.014C94.2741 57.249 94.1511 58.409 94.1511 58.409L94.0831 58.733L92.9631 64.079L92.7171 65.241C92.2871 65.477 91.2071 64.847 91.2071 64.847C89.9501 64.987 88.4001 64.181 88.4001 64.181C88.4001 64.181 88.6541 63.357 88.5961 62.945C88.5381 62.534 88.9491 62.198 88.9491 62.198C88.8521 61.826 89.2041 60.196 89.2041 60.196C89.2041 60.196 89.2841 59.588 89.5781 59.431C89.8731 59.274 89.5391 59.039 89.4601 58.9C89.432 58.7801 89.4415 58.6544 89.4871 58.54C89.5131 58.45 89.5431 58.36 89.5771 58.273C88.8291 57.525 88.7141 56.355 88.7131 55.705C88.7108 55.5468 88.7174 55.3885 88.7331 55.231L90.3531 54.947L93.8931 54.328L94.2551 55.44L94.3451 55.718L94.5431 56.23Z" fill="#B8DBEF"/>
<path opacity="0.1" d="M94.2102 41.216C94.1355 41.3743 94.0808 41.5413 94.0471 41.713L94.0182 41.849C93.6762 42.071 93.4662 42.073 93.0282 42.073C92.8782 42.073 92.7942 41.785 92.6512 41.749C92.6512 41.749 92.4372 40.978 92.3772 41.628C91.9662 41.543 91.6112 41.864 91.3192 41.584V41.47C91.3271 41.2272 91.3157 40.9841 91.2852 40.743C91.2852 40.743 92.4272 40.743 93.2892 40.835C93.8692 40.903 94.3212 41.018 94.2092 41.216H94.2102Z" fill="black"/>
<path d="M95.02 39.894C95.0196 40.2185 94.9471 40.5387 94.8077 40.8317C94.6684 41.1247 94.4657 41.383 94.2143 41.5881C93.9629 41.7931 93.6691 41.9398 93.3542 42.0174C93.0392 42.0951 92.7109 42.1018 92.393 42.037C91.9878 41.9538 91.6145 41.7574 91.3164 41.4705C91.0184 41.1837 90.8078 40.8182 90.7091 40.4164C90.6105 40.0147 90.6277 39.5932 90.759 39.2009C90.8902 38.8086 91.13 38.4616 91.4506 38.2001C91.7711 37.9386 92.1592 37.7734 92.5699 37.7236C92.9806 37.6739 93.3969 37.7416 93.7706 37.919C94.1444 38.0963 94.4601 38.376 94.6813 38.7256C94.9024 39.0752 95.0199 39.4804 95.02 39.894Z" fill="#D38884"/>
<path opacity="0.1" d="M93.822 43.332C93.806 43.513 93.798 43.63 93.798 43.63C93.798 43.63 90.284 43.395 90.893 42.805C91.05 42.642 91.163 42.441 91.217 42.222L92.742 42.472C92.742 42.472 93.172 42.805 93.506 43.12C93.601 43.204 93.708 43.276 93.822 43.332ZM94.347 55.83C94.193 55.85 94.035 55.839 93.885 55.796C93.8201 55.7752 93.7578 55.7474 93.699 55.713C93.404 55.537 92.424 55.753 92.424 55.753C92.424 55.753 89.754 55.93 89.636 55.753C89.57 55.652 89.098 55.666 88.713 55.697C88.551 55.71 88.413 55.727 88.314 55.737C88.36 55.495 88.456 55.266 88.596 55.064L90.356 54.939L93.896 54.32L94.256 55.432C94.28 55.566 94.31 55.699 94.347 55.83Z" fill="black"/>
<path d="M92.7371 42.59L90.8221 42.276C90.7883 42.3514 90.7385 42.4185 90.6762 42.4727C90.6138 42.5269 90.5404 42.5669 90.4611 42.59C90.2061 42.648 89.0681 43.238 88.5571 43.944L88.0471 44.652C88.0471 44.652 87.6341 45.162 87.7721 45.574C87.9091 45.985 88.0661 47.38 88.0661 47.38L88.2621 48.93C88.2621 48.93 88.6351 50.05 88.5181 50.54C88.4021 51.032 88.5771 53.092 88.5771 53.092L88.1851 55.644C88.1851 55.644 89.5181 55.467 89.6431 55.644C89.7671 55.82 92.4311 55.644 92.4311 55.644C92.4311 55.644 93.4031 55.427 93.7061 55.604C93.9041 55.71 94.1311 55.751 94.3541 55.722C94.3541 55.722 94.1191 54.912 94.2541 54.466C94.3911 54.021 94.3541 53.189 94.3541 53.189C94.3541 53.189 94.5501 51.992 94.4511 51.777C94.3521 51.561 94.6681 50.776 94.6681 50.776L95.7081 45.3C95.7081 45.3 95.5821 44.318 95.0261 43.985C94.4701 43.651 93.8431 43.552 93.5101 43.239C93.1761 42.927 92.7371 42.589 92.7371 42.589V42.59Z" fill="#EBEBF5"/>
<path d="M93.626 47.9879V48.6359L94.231 50.2659L94.449 51.7759C94.449 51.7759 94.843 52.8559 94.843 53.2349C94.843 53.6139 95.803 55.4139 95.803 55.4139C95.803 55.4139 96.066 56.0229 95.935 56.1389C95.804 56.2559 94.666 58.8489 96.097 58.7699C97.527 58.6929 97.078 55.9839 97.078 55.9839L96.882 54.8059C96.882 54.8059 96.607 51.8609 96.607 51.6459C96.607 51.6459 96.254 50.3899 96.215 50.1149C96.176 49.8389 95.92 48.4459 95.92 48.4459L95.705 47.5439L93.626 47.9879Z" fill="#D38884"/>
<path opacity="0.1" d="M92.9381 50.029L90.8041 51.25L90.1421 52.251L91.0251 51.354L92.9381 50.029ZM92.2911 52.368C92.2911 52.368 91.3191 53.002 90.8631 53.002C90.4061 53.002 89.3461 54.09 89.3461 54.09C89.3461 54.09 90.8481 53.118 90.9661 53.149C91.0841 53.179 92.2911 52.369 92.2911 52.369V52.368ZM89.8031 52.707C89.8031 52.707 88.8911 53.531 89.1261 53.62C89.3611 53.71 90.5841 52.707 90.5841 52.707H89.8041H89.8031ZM93.8371 49.763C93.8371 49.763 93.1311 50.721 93.3221 50.706C93.5121 50.691 94.0571 50.146 94.0571 50.146L93.8371 49.763ZM93.9391 50.706C93.9391 50.706 93.1741 51.574 93.2031 51.795C93.2331 52.015 93.9391 50.706 93.9391 50.706ZM94.1321 51.14C94.1321 51.14 93.6171 52.06 93.8371 52.251C94.0571 52.443 94.1321 51.141 94.1321 51.141V51.14ZM93.4641 48.777C93.4641 48.777 93.0801 49.425 93.3611 49.468C93.6411 49.512 93.6681 49.468 93.6681 49.468L93.4641 48.777ZM93.5711 46.407C93.4755 46.803 93.3443 47.1896 93.1791 47.562C93.1177 47.372 93.0669 47.1787 93.0271 46.983C93.1881 46.773 93.3711 46.58 93.5711 46.407ZM94.7401 38.82C94.7019 38.9027 94.6521 38.9794 94.5921 39.048C94.4921 39.139 94.4021 39.241 94.3261 39.353C94.2661 39.52 94.2341 39.696 94.2311 39.873C94.2011 40.048 94.0911 40.243 93.9071 40.247C93.816 40.2396 93.7275 40.2134 93.6471 40.17C93.6071 40.1493 93.5625 40.1392 93.5176 40.1406C93.4726 40.142 93.4287 40.1548 93.3901 40.178C93.3389 40.2298 93.3092 40.2991 93.3071 40.372C93.2847 40.5242 93.276 40.6782 93.2811 40.832C93.2811 40.894 93.2811 40.954 93.2911 41.015C93.3361 41.209 93.3241 41.411 93.2571 41.598C93.1726 41.7336 93.0447 41.8365 92.8941 41.89C92.7307 41.9575 92.5598 42.0055 92.3851 42.033C92.0531 42.073 91.7171 42.084 91.3831 42.065C91.3521 42.0657 91.3212 42.0606 91.2921 42.05C91.2778 42.0444 91.2646 42.0363 91.2531 42.026C91.2901 41.842 91.3101 41.655 91.3131 41.467C91.0881 41.2487 90.9126 40.9846 90.7985 40.6926C90.6845 40.4005 90.6346 40.0874 90.6522 39.7744C90.6698 39.4613 90.7545 39.1558 90.9005 38.8783C91.0465 38.6009 91.2505 38.3581 91.4986 38.1665C91.7467 37.9748 92.0331 37.8387 92.3384 37.7674C92.6437 37.6961 92.9608 37.6913 93.2681 37.7532C93.5754 37.8152 93.8658 37.9426 94.1196 38.1266C94.3734 38.3107 94.5847 38.5471 94.7391 38.82H94.7401Z" fill="black"/>
<path d="M93.826 36.9681C93.625 36.9481 93.436 37.0541 93.237 37.0981C92.831 37.1881 92.415 37.0021 91.997 37.0041C91.637 37.0241 91.287 37.1291 90.976 37.3091C90.724 37.4281 90.494 37.5891 90.296 37.7851C90.096 37.9851 89.981 38.2521 89.972 38.5331C89.999 38.6951 89.994 38.8601 89.957 39.0191C89.915 39.0991 89.865 39.1761 89.807 39.2461C89.7554 39.3291 89.7225 39.4224 89.7106 39.5195C89.6987 39.6165 89.708 39.715 89.738 39.8081C89.822 39.9931 89.935 40.1621 90.074 40.3101C90.343 40.6561 90.511 41.0691 90.752 41.4351C90.8576 41.5938 90.976 41.7436 91.106 41.8831C91.1271 41.9078 91.153 41.9282 91.182 41.9431C91.21 41.9531 91.241 41.9581 91.271 41.9561C91.783 41.9711 92.312 41.9821 92.784 41.7811C92.9349 41.7289 93.0632 41.6261 93.147 41.4901C93.215 41.3031 93.227 41.1001 93.182 40.9071C93.1606 40.6913 93.1657 40.4737 93.197 40.2591C93.199 40.1865 93.2287 40.1175 93.28 40.0661C93.3187 40.0422 93.363 40.0289 93.4084 40.0275C93.4538 40.0261 93.4989 40.0366 93.539 40.0581C93.619 40.1001 93.706 40.1261 93.796 40.1351C93.973 40.1351 94.085 39.9351 94.12 39.7601C94.1005 39.6027 94.1238 39.443 94.1875 39.2978C94.2512 39.1526 94.353 39.0273 94.482 38.9351C94.728 38.6231 94.81 38.2121 94.704 37.8291C94.587 37.4641 94.231 37.0091 93.826 36.9691V36.9681Z" fill="#1E1637"/>
<path opacity="0.1" d="M95.9271 46.272C95.8839 46.5403 95.8839 46.8137 95.9271 47.082C95.9071 47.299 95.9271 48.496 95.9271 48.496C95.2791 48.299 93.6311 48.692 93.6311 48.692L93.4351 48.104C93.3233 47.9589 93.2398 47.794 93.1891 47.618C93.1277 47.4276 93.0769 47.234 93.0371 47.038C92.9511 46.631 92.8871 46.219 92.8441 45.805C92.7611 45.182 93.6891 44.509 94.3931 44.137C95.0961 43.764 95.7111 45.354 95.7111 45.354C95.7111 45.354 96.0041 45.964 95.9271 46.272Z" fill="black"/>
<path d="M95.9271 46.16C95.884 46.4283 95.884 46.7017 95.9271 46.97C95.9071 47.186 95.9271 48.383 95.9271 48.383C95.2791 48.187 93.6311 48.579 93.6311 48.579L93.4351 47.991C93.3229 47.8461 93.2394 47.6812 93.1891 47.505C93.1277 47.3153 93.0769 47.1224 93.0371 46.927C92.9516 46.5196 92.8871 46.1081 92.8441 45.694C92.7611 45.068 93.6891 44.398 94.3931 44.024C95.0961 43.649 95.7111 45.24 95.7111 45.24C95.7111 45.24 96.0041 45.846 95.9271 46.16Z" fill="#EBEBF5"/>
<path opacity="0.2" d="M94.6802 37.8289C94.6469 37.7177 94.5988 37.6114 94.5372 37.5129C94.5472 37.5399 94.5572 37.5659 94.5642 37.5929C94.6712 37.9769 94.5882 38.3879 94.3422 38.6999C94.2135 38.7924 94.1122 38.9178 94.0488 39.063C93.9855 39.2082 93.9625 39.3678 93.9822 39.5249C93.9542 39.6999 93.8422 39.8919 93.6572 39.8989C93.566 39.8913 93.4775 39.8647 93.3972 39.8209C93.3572 39.8003 93.3126 39.7901 93.2676 39.7915C93.2226 39.7929 93.1788 39.8058 93.1402 39.8289C93.0891 39.8812 93.0598 39.9509 93.0582 40.0239C93.0267 40.2385 93.0217 40.4561 93.0432 40.6719C93.0612 40.8689 93.1002 41.0819 93.0072 41.2569C92.922 41.3913 92.7947 41.4936 92.6452 41.5479C92.1732 41.7489 91.6432 41.7379 91.1312 41.7229C91.1009 41.7241 91.0706 41.7193 91.0422 41.7089C91.0125 41.6952 90.9865 41.6746 90.9662 41.6489C90.8351 41.51 90.7169 41.3594 90.6132 41.1989C90.3722 40.8339 90.2032 40.4219 89.9342 40.0759C89.8612 39.9819 89.7722 39.8889 89.7122 39.7899V39.8099C89.7952 39.9949 89.9082 40.1649 90.0482 40.3119C90.3152 40.6569 90.4852 41.0699 90.7252 41.4359C90.8302 41.5959 90.9492 41.7459 91.0802 41.8859C91.1002 41.9099 91.1262 41.9299 91.1542 41.9449C91.1832 41.9549 91.2132 41.9589 91.2442 41.9579C91.7552 41.9729 92.2872 41.9839 92.7562 41.7829C92.9073 41.7305 93.0355 41.6273 93.1192 41.4909C93.1872 41.3049 93.1992 41.1019 93.1552 40.9079C93.1352 40.6921 93.1398 40.4747 93.1692 40.2599C93.1727 40.1877 93.2021 40.1192 93.2522 40.0669C93.291 40.0429 93.3354 40.0295 93.3811 40.0281C93.4267 40.0267 93.4719 40.0373 93.5122 40.0589C93.5922 40.1019 93.6792 40.1279 93.7692 40.1369C93.9472 40.1369 94.0572 39.9369 94.0932 39.7609C94.0956 39.5835 94.1277 39.4078 94.1882 39.2409C94.2639 39.129 94.3532 39.0269 94.4542 38.9369C94.5764 38.7831 94.6607 38.6026 94.7001 38.4101C94.7396 38.2176 94.7331 38.0185 94.6812 37.8289H94.6802Z" fill="black"/>
<path d="M110.474 38.255L109.074 41.229C109.074 41.229 108.869 41.788 108.736 41.892C108.603 41.995 108.016 43.762 108.016 43.762L106.513 46.074L106.411 46.236L105.823 46.074L105.41 44.532L105.434 44.085V44.028C105.434 44.028 106.361 43.056 106.568 42.983C106.568 42.983 106.73 43.003 107.038 42.25C107.346 41.496 107.628 41.334 107.628 41.334L107.79 40.79L109.528 38.021C109.528 38.021 110.986 35.933 111.383 36.86C111.78 37.786 110.474 38.255 110.474 38.255ZM104.662 59.383C104.657 59.433 104.641 59.482 104.615 59.525C104.453 59.762 103.541 64.575 103.541 64.575C103.614 64.899 103.408 65.547 103.275 65.842C103.142 66.136 102.847 67.666 102.847 67.666C102.847 67.666 102.774 70.964 102.585 71.479C102.395 71.994 102.645 73.099 102.645 73.099C102.627 73.606 102.932 74.144 103.113 74.416L103.149 74.468C103.207 74.552 103.246 74.601 103.246 74.601C103.296 74.699 103.366 74.786 103.452 74.855L103.494 74.888C103.744 75.055 104.024 75.173 104.318 75.236H104.348C104.464 75.262 104.542 75.273 104.542 75.273L104.615 75.672L103.835 75.834L102.348 75.936C102.348 75.936 100.596 76.07 100.994 75.288C101.022 75.2357 101.045 75.1816 101.065 75.126C101.081 75.088 101.095 75.049 101.105 75.009C101.345 74.259 101.184 73.347 101.184 73.347L100.845 70.684C100.286 68.21 101.284 65.458 101.284 65.458C101.284 65.458 101.198 65.238 101.389 64.678C101.58 64.12 101.389 62.896 101.389 62.896C101.389 62.896 101.287 61.322 101.154 60.543C101.102 60.2147 101.084 59.8819 101.101 59.55C101.107 59.355 101.125 59.162 101.154 58.97L104.509 58.524C104.509 58.524 104.702 59.07 104.662 59.383Z" fill="#FFD2C6"/>
<path opacity="0.1" d="M104.615 75.6751L103.835 75.8371L102.348 75.9391C102.348 75.9391 100.596 76.0741 100.994 75.2911C101.022 75.2388 101.045 75.1847 101.065 75.1291C101.081 75.0911 101.095 75.0521 101.105 75.0121C101.41 75.0221 101.71 75.0821 101.994 75.1911C102.493 75.3831 102.868 74.8811 102.868 74.8811L103.111 74.4181L103.147 74.3521C103.205 74.4361 103.244 74.4841 103.244 74.4841C103.303 74.598 103.388 74.6964 103.492 74.7711L103.45 74.8571L103.215 75.3531C103.215 75.3531 103.516 75.3831 103.928 75.4501C104.008 75.4707 104.092 75.4603 104.165 75.4209C104.237 75.3816 104.291 75.3162 104.317 75.2381H104.346C104.462 75.2641 104.54 75.2751 104.54 75.2751L104.615 75.6751Z" fill="black"/>
<path d="M105.336 76.0411C105.277 76.3071 103.636 76.3881 103.636 76.3881C103.636 76.3881 102.723 76.3001 102.466 76.5131C102.211 76.7251 101.457 76.6751 101.428 76.6751C101.399 76.6751 101.002 76.6601 100.847 75.9471C100.691 75.2341 101.049 75.1371 101.065 75.1261C101.383 75.1301 101.697 75.1911 101.994 75.3061C102.493 75.4981 102.868 74.9961 102.868 74.9961L103.147 74.4661C103.205 74.5511 103.244 74.5991 103.244 74.5991C103.303 74.713 103.388 74.8114 103.492 74.8861L103.215 75.4681C103.215 75.4681 103.516 75.4981 103.928 75.5631C103.981 75.5754 104.036 75.575 104.089 75.5617C104.142 75.5485 104.191 75.5229 104.231 75.487C104.272 75.4511 104.304 75.406 104.324 75.3554C104.344 75.3048 104.352 75.2502 104.346 75.1961C104.346 75.1961 104.602 75.2701 104.919 75.3581C105.062 75.3989 105.184 75.4917 105.261 75.6182C105.338 75.7448 105.365 75.8957 105.336 76.0411Z" fill="#626696"/>
<path d="M108.428 62.892C108.389 63.127 108.348 63.736 108.348 63.736C108.487 64.246 108.133 65.458 108.133 65.458L107.957 66.149C108.035 67.032 107.471 69.192 107.471 69.192C107.471 69.192 107.093 71.194 106.897 72.058C106.78 72.5376 106.816 73.0418 107 73.5L107.015 73.536C107.015 73.552 107.023 73.568 107.026 73.584C107.068 73.7295 107.141 73.8639 107.241 73.978C107.273 74.0167 107.309 74.0528 107.347 74.086C107.532 74.25 107.743 74.38 107.972 74.472L108.072 74.511C108.174 74.549 108.278 74.581 108.384 74.608H108.419L108.34 75.071L107.3 74.804L105.907 74.352L105.231 73.973C105.231 73.973 105.231 73.936 105.252 73.865V73.852C105.252 73.821 105.265 73.785 105.273 73.743C105.38 73.136 105.646 71.436 105.513 70.179C105.351 68.629 105.999 66.489 106.15 65.98C106.244 65.688 106.284 65.382 106.268 65.076C106.012 64.703 105.954 63.211 105.954 63.211C105.954 63.211 105.482 62.249 105.094 61.229C104.965 60.8958 104.871 60.5499 104.814 60.197C104.768 59.9484 104.749 59.6956 104.757 59.443C104.757 59.443 107.917 56.558 108.264 59.351L108.298 59.625C108.606 62.192 108.466 62.662 108.429 62.891L108.428 62.892Z" fill="#FFD2C6"/>
<path opacity="0.1" d="M108.428 74.622L108.348 75.085L107.308 74.818L105.916 74.366L105.23 73.974C105.23 73.974 105.23 73.937 105.251 73.866V73.853C105.251 73.822 105.264 73.786 105.272 73.744H105.37C105.568 73.724 105.767 73.752 105.953 73.824C106.18 73.908 106.478 74.004 106.538 73.964C106.643 73.9192 106.757 73.8993 106.871 73.906L107.016 73.582L107.038 73.533C107.082 73.653 107.148 73.763 107.231 73.857C107.266 73.898 107.303 73.937 107.343 73.972V74.084L107.335 74.246C107.49 74.346 107.659 74.423 107.835 74.476C107.881 74.4875 107.929 74.4875 107.975 74.476L108.073 74.516C108.176 74.553 108.28 74.586 108.386 74.612L108.428 74.622Z" fill="black"/>
<path d="M107.907 75.615C107.617 75.532 106.917 75.398 106.803 75.502C106.69 75.605 105.72 75.502 105.72 75.502C105.618 75.5004 105.519 75.4725 105.431 75.4209C105.343 75.3694 105.27 75.2961 105.219 75.208C105.016 74.894 105.18 73.878 105.18 73.878H105.251L105.371 73.866C105.569 73.846 105.769 73.873 105.954 73.943C106.181 74.029 106.479 74.126 106.539 74.086C106.644 74.0398 106.758 74.0193 106.873 74.026L107.035 73.661C107.079 73.781 107.145 73.891 107.228 73.985C107.262 74.026 107.3 74.064 107.34 74.099L107.325 74.369C107.481 74.469 107.649 74.546 107.825 74.601C107.868 74.6174 107.915 74.6188 107.958 74.605C108.002 74.5912 108.04 74.563 108.065 74.525C108.073 74.5124 108.079 74.499 108.083 74.485C108.214 74.546 108.353 74.592 108.495 74.62C108.677 74.6011 108.86 74.6493 109.009 74.7555C109.158 74.8617 109.263 75.0187 109.305 75.197C109.459 75.649 108.197 75.697 107.907 75.615Z" fill="#626696"/>
<path opacity="0.1" d="M104.662 59.383L104.482 59.438C104.341 59.4807 104.196 59.5108 104.049 59.528C103.119 59.66 101.589 59.58 101.103 59.55C101.109 59.355 101.127 59.1621 101.156 58.9701L104.511 58.524C104.511 58.524 104.702 59.07 104.661 59.383H104.662Z" fill="black"/>
<path d="M107.59 58.568C107.59 58.568 106.358 58.759 105.355 58.978C105.021 59.051 104.707 59.128 104.482 59.201C104.341 59.244 104.196 59.2751 104.049 59.294C102.933 59.456 100.95 59.305 100.95 59.305C100.406 57.539 101.611 55.315 101.611 55.315C101.584 55.138 101.862 54.595 101.862 54.595V54.578L102.034 53.948H106.611L106.667 54.218L106.784 54.769L107.504 58.182L107.589 58.568H107.59Z" fill="#626696"/>
<path opacity="0.1" d="M108.299 59.639L108.271 59.65L107.735 59.888C107.155 60.155 105.42 60.212 104.819 60.212C104.773 59.9638 104.754 59.7113 104.762 59.459C104.762 59.459 107.922 56.574 108.269 59.367C108.276 59.46 108.287 59.557 108.299 59.639Z" fill="black"/>
<path d="M108.383 59.365L108.271 59.415L107.735 59.653C107.145 59.925 105.353 59.977 104.78 59.977H104.63C104.365 59.969 104.1 59.721 104.1 59.653C104.1 59.618 104.072 59.443 104.05 59.293C104.028 59.173 104.012 59.07 104.012 59.07C103.397 58.8052 102.801 58.4971 102.23 58.148C101.781 57.842 101.895 55.666 101.98 54.573C102.011 54.195 102.039 53.948 102.039 53.948L106.672 54.218L107.32 54.255L107.691 54.338L107.79 54.359C107.79 54.359 108.057 56.303 108.188 56.465C108.32 56.627 108.234 57.171 108.218 57.482C108.218 57.616 108.203 57.749 108.174 57.879C108.174 57.879 108.365 58.424 108.321 58.729C108.301 58.942 108.322 59.159 108.383 59.365Z" fill="#626696"/>
<path d="M103.422 43.232C104.471 43.232 105.321 42.3818 105.321 41.333C105.321 40.2842 104.471 39.434 103.422 39.434C102.373 39.434 101.523 40.2842 101.523 41.333C101.523 42.3818 102.373 43.232 103.422 43.232Z" fill="#FFD2C6"/>
<path d="M102.496 42.1231C102.496 42.1231 102.627 43.9211 102.259 44.3351C101.839 44.7551 101.397 45.1531 100.934 45.5271L101.229 46.7481L102.893 46.9391L104.837 44.8641L104.394 44.3281C104.394 44.3281 104.056 43.1791 104.334 42.6061C104.614 42.0331 102.496 42.1231 102.496 42.1231Z" fill="#FFD2C6"/>
<path opacity="0.1" d="M106.513 46.074L106.411 46.236L105.823 46.074L105.41 44.532L105.434 44.085L105.556 43.91C105.556 43.91 106.204 43.925 106.176 44.514C106.149 45.03 106.444 45.878 106.513 46.074ZM107.793 54.596C107.793 54.596 107.325 54.699 106.789 54.769C106.253 54.839 105.634 54.876 105.379 54.727C104.953 54.474 102.645 54.547 101.977 54.573H101.864L102.036 53.943H106.612L106.669 54.213L107.317 54.251L107.687 54.333C107.756 54.492 107.793 54.596 107.793 54.596Z" fill="black"/>
<path d="M105.44 44.025C105.44 44.025 106.087 44.04 106.058 44.629C106.029 45.219 106.411 46.233 106.411 46.233L106.264 46.572C106.264 46.572 106.058 47.396 106.22 47.602C106.382 47.808 106.97 47.808 106.632 49.501C106.632 49.501 106.559 50.768 106.735 51.179C106.912 51.591 106.912 52.577 107.176 52.99C107.417 53.43 107.624 53.888 107.795 54.36C107.795 54.36 105.882 54.785 105.381 54.492C104.881 54.199 101.804 54.345 101.804 54.345C101.804 54.345 101.819 53.829 101.804 53.769C101.79 53.705 101.789 53.6388 101.802 53.5744C101.814 53.51 101.84 53.449 101.877 53.395C101.981 53.255 102.143 53.019 102.054 52.814C101.964 52.608 102.274 52.304 102.112 51.984C101.95 51.665 101.754 51.602 101.788 51.427C101.797 51.3267 101.785 51.2257 101.754 51.13C101.723 51.0343 101.672 50.9459 101.606 50.87C101.49 50.722 100.694 49.167 100.694 49.167L100.561 48.441C100.561 48.441 99.5381 47.691 99.5571 47.338C99.5771 46.985 99.9441 46.494 99.9441 46.494L100.929 45.522C100.929 45.522 101.475 46.11 102.005 45.904C102.535 45.699 103.674 44.712 103.674 44.712C103.674 44.712 104.08 44.492 104.109 44.33C104.139 44.168 104.389 44.315 104.389 44.315C104.389 44.315 104.757 44.113 104.83 44.184C104.955 44.249 105.09 44.294 105.229 44.315L105.439 44.025H105.44Z" fill="#FFCDE5"/>
<path d="M99.8751 47.092L99.5621 47.338C99.3244 47.8408 99.1904 48.3863 99.1681 48.942C99.0852 49.7775 98.9527 50.6073 98.7711 51.427L98.1531 52.533C98.1531 52.533 97.1371 54.667 97.0041 55.233C96.8711 55.801 96.2681 56.758 96.2681 56.758C96.2681 56.758 94.2221 58.597 95.6501 58.929C97.0771 59.261 97.1221 57.471 97.1221 57.471C97.1221 57.471 97.4461 57.103 97.5091 56.852C97.5731 56.602 99.3741 53.4 99.3741 53.4C99.3741 53.4 100.007 52.538 99.8741 52.081C99.8741 52.081 100.699 50.137 100.699 49.651C100.684 49.2447 100.639 48.84 100.566 48.44L100.699 47.424L99.8751 47.092Z" fill="#FFD2C6"/>
<path opacity="0.1" d="M104.114 51.15C104.114 51.15 102.672 51.905 102.392 51.945C102.112 51.985 103.614 51.783 103.614 51.783L104.114 51.15ZM105.29 51.738C105.29 51.738 103.377 52.386 102.536 52.269C102.536 52.266 104.629 52.666 105.29 51.738Z" fill="black"/>
<path opacity="0.1" d="M105.41 51.95C105.41 51.95 103.686 53.034 102.672 52.857C102.672 52.857 105.042 53.329 105.41 53.077L104.35 52.784C104.35 52.784 105.527 52.161 105.41 51.95ZM103.426 37.99C103.178 37.9289 102.919 37.9218 102.667 37.9691C102.416 38.0163 102.177 38.1169 101.968 38.264C101.673 38.496 101.482 38.851 101.145 39.024C100.97 39.0989 100.79 39.1624 100.607 39.214C100.284 39.346 100.016 39.5826 99.8436 39.8859C99.6716 40.1891 99.6067 40.5414 99.6591 40.886C99.7111 41.177 99.8471 41.446 99.9151 41.734C100.035 42.248 99.9281 42.786 99.7981 43.298C99.4355 44.7174 98.8854 46.0821 98.1621 47.356C98.1054 47.435 98.0772 47.5309 98.0821 47.628C98.1002 47.6932 98.1346 47.7527 98.1821 47.801C98.8621 48.587 99.9641 48.858 101.009 48.893C101.392 48.931 101.779 48.867 102.129 48.707C102.346 48.582 102.533 48.411 102.676 48.207C103.037 47.7122 103.217 47.1078 103.184 46.496C103.157 46.002 102.991 45.503 103.116 45.025C103.129 44.9582 103.159 44.896 103.204 44.845C103.315 44.73 103.502 44.761 103.661 44.741C104.093 44.691 104.371 44.236 104.424 43.803C104.475 43.371 104.367 42.936 104.364 42.507C104.362 41.9323 104.542 41.3717 104.877 40.905C105.021 40.707 105.201 40.513 105.253 40.265C105.315 39.955 105.135 39.725 104.979 39.481C104.738 39.099 104.619 38.653 104.252 38.361C104.009 38.175 103.726 38.0483 103.426 37.991V37.99Z" fill="black"/>
<path d="M103.307 37.8721C103.06 37.8118 102.803 37.8051 102.554 37.8524C102.304 37.8996 102.067 37.9998 101.859 38.1461C101.564 38.3791 101.373 38.7341 101.035 38.9081C100.86 38.9812 100.68 39.0437 100.497 39.0951C100.175 39.227 99.9062 39.4633 99.7343 39.7661C99.5624 40.0689 99.4972 40.4207 99.5492 40.7651C99.6012 41.0551 99.7371 41.3251 99.8051 41.6131C99.9251 42.1261 99.8202 42.6641 99.6882 43.1761C99.3259 44.5927 98.7764 45.9547 98.0541 47.2261C97.996 47.3044 97.9673 47.4007 97.9731 47.4981C97.9891 47.5641 98.0231 47.6241 98.0721 47.6721C98.7521 48.4591 99.8542 48.7281 100.898 48.7641C101.282 48.8021 101.668 48.7381 102.019 48.5791C102.235 48.4534 102.422 48.2821 102.565 48.0771C102.926 47.5821 103.105 46.9771 103.072 46.3661C103.043 45.8801 102.878 45.3731 103.002 44.8961C103.016 44.8297 103.046 44.7678 103.09 44.7161C103.204 44.6001 103.388 44.6311 103.549 44.6131C103.979 44.5631 104.259 44.1061 104.31 43.6751C104.362 43.2451 104.253 42.8081 104.252 42.3791C104.25 41.8049 104.429 41.2447 104.765 40.7791C104.908 40.5791 105.089 40.3851 105.141 40.1311C105.201 39.8201 105.021 39.5931 104.866 39.3471C104.624 38.9661 104.506 38.5191 104.138 38.2271C103.893 38.0458 103.609 37.9243 103.308 37.8721H103.307Z" fill="#985C7E"/>
<path opacity="0.1" d="M102.672 56.277C102.672 56.277 103.05 58.045 103.678 58.524L102.672 56.277Z" fill="black"/>
<g opacity="0.1">
<path opacity="0.1" d="M99.6601 41.163C99.6403 41.0936 99.6183 41.0249 99.5941 40.957C99.6201 41.027 99.6361 41.088 99.6611 41.163H99.6601ZM105.031 39.63C105.038 39.6838 105.038 39.7382 105.031 39.792C104.982 40.04 104.799 40.234 104.655 40.432C104.32 40.8989 104.141 41.4594 104.142 42.034C104.142 42.47 104.252 42.904 104.2 43.33C104.148 43.756 103.876 44.218 103.439 44.266C103.277 44.286 103.094 44.256 102.982 44.37C102.938 44.4216 102.907 44.4835 102.892 44.55C102.768 45.028 102.935 45.522 102.962 46.021C102.992 46.6333 102.811 47.2373 102.447 47.731C102.305 47.9362 102.118 48.107 101.901 48.231C101.551 48.391 101.165 48.455 100.781 48.417C99.7601 48.383 98.6761 48.119 97.9891 47.362C97.9709 47.4073 97.9654 47.4568 97.9731 47.505C97.9891 47.571 98.0231 47.63 98.0721 47.678C98.7521 48.466 99.8541 48.734 100.898 48.77C101.282 48.808 101.668 48.744 102.019 48.585C102.235 48.4594 102.422 48.2881 102.565 48.083C102.926 47.588 103.105 46.984 103.072 46.373C103.043 45.886 102.878 45.379 103.002 44.902C103.016 44.8356 103.046 44.7737 103.09 44.722C103.204 44.607 103.388 44.637 103.549 44.62C103.979 44.57 104.259 44.113 104.31 43.682C104.362 43.251 104.253 42.815 104.252 42.386C104.25 41.8118 104.429 41.2517 104.765 40.786C104.908 40.586 105.089 40.391 105.141 40.137C105.168 39.9602 105.129 39.7797 105.031 39.63Z" fill="black"/>
</g>
<path opacity="0.1" d="M20.927 82.178C22.8203 82.178 24.355 81.7303 24.355 81.178C24.355 80.6257 22.8203 80.178 20.927 80.178C19.0338 80.178 17.499 80.6257 17.499 81.178C17.499 81.7303 19.0338 82.178 20.927 82.178Z" fill="#6C63FF"/>
<path d="M22.1262 75.447C22.1262 75.447 17.6552 77.757 19.9652 80.469C20.0303 80.638 20.1472 80.7821 20.2991 80.8807C20.4511 80.9793 20.6303 81.0274 20.8112 81.018C20.8112 81.018 20.6842 80.789 21.1652 80.606C21.3372 80.54 21.5002 80.454 21.6512 80.35C21.8552 80.21 22.0072 80.007 22.0842 79.772C22.0842 79.772 22.9992 78.549 22.2902 76.286C22.2902 76.286 22.3822 75.638 22.3002 75.542L21.7582 76.286C21.7582 76.286 22.3202 76.663 22.3852 77.217C22.3852 77.217 21.8002 76.287 21.6722 76.394C21.6462 76.415 21.4032 76.801 21.4032 76.801C21.4032 76.801 22.3752 77.461 22.4482 78.319C22.4482 78.319 21.9012 77.119 21.3142 76.947L20.9812 77.551C20.9812 77.551 22.0432 78.199 22.1632 79.171C22.1632 79.171 21.5462 77.937 20.9162 77.689L20.6682 78.327C20.6682 78.327 21.6922 78.975 21.7862 79.785C21.7862 79.785 20.9292 78.431 20.6212 78.475C20.6212 78.475 20.4282 79.074 20.4592 79.258C20.4592 79.258 21.1852 79.744 21.1982 80.219C21.1982 80.219 20.5282 79.374 20.4252 79.43C20.4252 79.43 20.3832 80.28 20.5872 80.726C20.3765 80.3275 20.2741 79.8806 20.2902 79.43C20.0832 79.6131 19.9347 79.8531 19.8632 80.12C19.8632 80.12 19.6702 79.652 20.3032 79.224C20.3032 79.224 20.3632 78.564 20.4362 78.483C20.4362 78.483 19.7512 78.816 19.4642 79.228C19.4642 79.228 19.5712 78.615 20.5012 78.311L20.7382 77.663C20.7382 77.663 19.8082 78.056 19.5192 78.403C19.5192 78.403 19.7272 77.796 20.8152 77.504L21.1392 76.908C21.1392 76.908 20.3132 77.187 19.9092 77.504C19.9092 77.504 20.2222 76.981 21.2392 76.741L21.5012 76.367C21.5012 76.367 20.9002 76.582 20.7332 76.658C20.5662 76.735 20.5322 76.698 20.5322 76.698C20.8382 76.438 21.2112 76.27 21.6082 76.211C21.6082 76.211 22.1662 75.487 22.1262 75.447Z" fill="#00D09C"/>
<path d="M26.5302 79.558C26.9992 79.835 27.7312 80.015 28.6532 79.42L28.6432 80.734C28.7102 81.637 29.8232 84.919 29.8232 84.919L30.6082 87.621C31.1717 89.5292 31.4629 91.5074 31.4732 93.497C31.4532 94.123 31.5382 94.748 31.7242 95.347C32.1422 96.481 31.5622 97.939 31.3062 98.478C30.8807 98.6218 30.4481 98.7437 30.0102 98.843C29.9707 98.852 29.932 98.8637 29.8942 98.878V98.87C29.8942 98.87 28.7142 99.338 28.1902 99.274C27.8002 99.225 27.5552 99.713 27.8662 100.071C27.6112 100.149 27.3462 100.184 27.0802 100.174C26.5552 100.11 26.2942 101.012 27.2762 101.269C28.2582 101.527 33.8302 101.269 33.8302 101.269C33.9872 101.191 34.1136 101.063 34.1897 100.904C34.2657 100.746 34.287 100.568 34.2502 100.396C34.6782 100.38 34.9452 100.367 34.9452 100.367C34.9452 100.367 35.9282 99.917 34.9452 98.694L34.8932 98.734L34.6832 98.115V97.278C34.6832 97.278 35.9282 91.284 35.5352 90.584C35.1412 89.884 34.9452 86.271 34.9452 86.271L35.0762 82.345C35.4312 81.611 35.6142 80.462 35.7062 79.563C35.8402 79.133 35.9242 78.691 35.9582 78.243C35.9722 78.033 35.9852 77.81 35.9932 77.58C35.9984 77.0761 35.9179 76.5749 35.7552 76.098C36.1982 75.438 36.6952 74.813 37.2392 74.233C37.4655 74.0227 37.6374 73.7605 37.7402 73.4692C37.8429 73.1778 37.8735 72.8658 37.8292 72.56L37.5052 70.371L36.7172 66.645C36.8172 65.608 36.6012 65.012 36.3612 64.675C36.4182 64.342 36.4712 64.006 36.5112 63.671C36.6862 62.211 36.6082 60.731 36.2812 59.297C36.1682 58.797 36.0132 58.283 35.6632 57.904C35.2642 57.474 34.6192 57.212 34.4722 56.65C34.4497 56.5075 34.4196 56.3663 34.3822 56.227C34.2372 55.857 33.7822 55.725 33.3832 55.677C32.6732 55.59 31.6482 55.524 30.9662 55.803C30.4922 55.999 29.8322 56.533 29.5752 57.108C29.4199 57.3475 29.362 57.6372 29.4132 57.918C29.4382 58.014 29.4762 58.106 29.5262 58.192C29.4212 58.468 29.3662 58.76 29.3642 59.055C29.3667 59.5595 29.5211 60.0516 29.8072 60.4671C30.0933 60.8827 30.4978 61.2025 30.9682 61.385C30.9822 61.434 30.9982 61.482 31.0102 61.531C31.0402 61.646 31.0602 61.763 31.0732 61.881C31.0622 62.109 31.0472 62.338 31.0362 62.564C31.0301 62.5955 31.0221 62.6265 31.0122 62.657C30.4472 62.907 29.8972 63.187 29.3642 63.497C29.7582 64.076 29.2992 66.522 29.2992 66.522C28.3162 67.102 27.3332 68.582 28.3812 70.127C29.4292 71.67 28.8392 73.327 28.8392 73.327L28.6772 75.844L28.6452 76.346H28.6582L28.6452 76.536H28.6722V76.743C28.2112 76.905 27.5382 77.251 27.1382 77.877C26.9482 78.187 26.7172 78.47 26.4512 78.719C26.3859 78.7714 26.3348 78.8392 26.3022 78.9163C26.2697 78.9933 26.2568 79.0773 26.2647 79.1606C26.2727 79.2439 26.3012 79.3239 26.3477 79.3934C26.3942 79.463 26.4572 79.5199 26.5312 79.559L26.5302 79.558ZM34.4442 72.871C34.4051 72.4359 34.486 71.9984 34.6782 71.606H35.1412C35.1572 71.714 35.1752 71.818 35.1982 71.912C35.3312 72.485 34.7992 72.756 34.4442 72.871Z" fill="url(#paint0_linear)"/>
<path d="M34.574 97.8199L34.827 98.5769L34.01 99.3969L31.298 100.027L29.343 99.8369L29.469 99.1439C29.5062 98.9951 29.5838 98.8593 29.6932 98.7517C29.8026 98.6441 29.9396 98.5687 30.089 98.5339C30.899 98.3439 32.426 97.9139 32.749 97.3149L34.574 97.8199Z" fill="#DB8B8B"/>
<path opacity="0.1" d="M34.574 97.8199L34.827 98.5769L34.01 99.3969L31.298 100.027L29.343 99.8369L29.469 99.1439C29.5062 98.9951 29.5838 98.8593 29.6932 98.7517C29.8026 98.6441 29.9396 98.5687 30.089 98.5339C30.899 98.3439 32.426 97.9139 32.749 97.3149L34.574 97.8199Z" fill="black"/>
<path d="M29.97 99.65L30.35 99.144L29.97 98.561C29.97 98.561 28.836 99.018 28.33 98.954C27.825 98.891 27.574 99.776 28.52 100.027C29.466 100.278 34.827 100.027 34.827 100.027C34.827 100.027 35.773 99.587 34.827 98.387L34.01 99.017C34.01 99.017 32.622 99.776 31.929 99.649H29.97V99.65Z" fill="#2E3037"/>
<path d="M28.2671 100.722L30.2231 100.91L32.9351 100.28L33.7551 99.46L33.6881 99.259L33.5941 98.977L33.5041 98.703L31.6741 98.198C31.5811 98.349 31.4541 98.478 31.3041 98.571C30.7091 98.976 29.6411 99.269 29.0161 99.416L28.9361 99.439C28.8026 99.4831 28.6824 99.5601 28.5864 99.6628C28.4905 99.7656 28.4219 99.8908 28.3871 100.027L28.2671 100.722Z" fill="#DB8B8B"/>
<path opacity="0.1" d="M28.2671 100.722L30.2231 100.91L32.9351 100.28L33.7551 99.46L33.6881 99.259L32.9351 99.837C32.9351 99.837 31.5481 100.596 30.8531 100.469H28.8991L29.2771 99.964L28.9371 99.439C28.8034 99.483 28.683 99.5599 28.5868 99.6627C28.4907 99.7654 28.422 99.8907 28.3871 100.027L28.2671 100.722Z" fill="black"/>
<path d="M28.9001 100.532L29.2771 100.027L28.8991 99.444C28.8991 99.444 27.7651 99.901 27.2591 99.837C26.7511 99.774 26.5021 100.659 27.4481 100.91C28.3941 101.16 33.7541 100.91 33.7541 100.91C33.7541 100.91 34.7001 100.47 33.7541 99.27L32.9341 99.894C32.9341 99.894 31.5481 100.652 30.8531 100.526L28.8991 100.532H28.9001Z" fill="#2E3037"/>
<path d="M30.4751 63.953C30.4751 63.953 33.5031 64.267 33.0671 63.007C32.9441 62.6488 32.9118 62.2657 32.9731 61.892C33.0531 61.429 33.2361 60.991 33.5101 60.609L30.6711 61.051C30.8411 61.336 30.9711 61.642 31.0551 61.961C31.3871 63.3 30.4751 63.953 30.4751 63.953Z" fill="#DB8B8B"/>
<path d="M35.6461 78.332C35.6461 78.332 35.5831 81.044 34.9531 82.369L34.8201 86.215C34.8201 86.215 35.0101 89.746 35.3871 90.441C35.7651 91.136 34.5671 97.001 34.5671 97.001V98.008C34.5671 98.008 32.5511 98.767 31.9761 97.884L32.5521 90.378L32.3041 79.968L35.6461 78.332Z" fill="#474463"/>
<path opacity="0.1" d="M35.6461 78.332C35.6461 78.332 35.5831 81.044 34.9531 82.369L34.8201 86.215C34.8201 86.215 35.0101 89.746 35.3871 90.441C35.7651 91.136 34.5671 97.001 34.5671 97.001V98.008C34.5671 98.008 32.5511 98.767 31.9761 97.884L32.5521 90.378L32.3041 79.968L35.6461 78.332Z" fill="black"/>
<path d="M36.9081 69.6281L37.2861 70.6371L37.6021 72.7821C37.645 73.0808 37.6159 73.3855 37.5173 73.6708C37.4187 73.956 37.2534 74.2136 37.0351 74.4221C36.2781 75.1781 35.2691 76.7561 35.2691 76.7561L34.0701 73.1641C34.0701 73.1641 35.2691 72.9741 35.0801 72.1541C34.8901 71.3351 34.9531 69.8201 34.9531 69.8201L36.9081 69.6281Z" fill="#FC6681"/>
<path opacity="0.05" d="M36.9081 69.6281L37.2861 70.6371L37.6021 72.7821C37.645 73.0808 37.6159 73.3855 37.5173 73.6708C37.4187 73.956 37.2534 74.2136 37.0351 74.4221C36.2781 75.1781 35.2691 76.7561 35.2691 76.7561L34.0701 73.1641C34.0701 73.1641 35.2691 72.9741 35.0801 72.1541C34.8901 71.3351 34.9531 69.8201 34.9531 69.8201L36.9081 69.6281Z" fill="black"/>
<path opacity="0.1" d="M31.303 98.57C32.113 99.844 33.37 99.121 33.593 98.977L33.503 98.703L31.674 98.198C31.581 98.349 31.454 98.478 31.304 98.571L31.303 98.57Z" fill="black"/>
<path d="M28.7732 80.7911C28.8362 81.6741 29.9072 84.8911 29.9072 84.8911L30.6632 87.5381C31.2061 89.4095 31.4858 91.3475 31.4942 93.2961C31.4782 93.9098 31.5619 94.5221 31.7422 95.1091C32.2482 96.4951 31.2382 98.3871 31.2382 98.3871C32.1212 99.9641 33.6342 98.8931 33.6342 98.8931V97.8831C33.6342 97.8831 34.8342 92.3971 34.5172 91.3241C34.2012 90.2521 34.0772 87.3501 34.0772 87.3501V82.1161C35.0845 81.1071 35.6959 79.7699 35.8002 78.3481C35.8172 78.1421 35.8282 77.9251 35.8362 77.7001C35.8882 76.2761 34.9142 74.6101 34.5402 74.0131C34.4927 73.9374 34.4437 73.8628 34.3932 73.7891L28.8172 76.0001H28.8042V76.6931L28.7732 80.7921V80.7911Z" fill="#474463"/>
<path opacity="0.1" d="M30.665 61.051C30.835 61.336 30.964 61.642 31.049 61.961C31.357 62.079 31.6855 62.1336 32.0151 62.1218C32.3446 62.1099 32.6684 62.0318 32.967 61.892C33.047 61.429 33.229 60.991 33.503 60.609L30.665 61.051Z" fill="black"/>
<path d="M31.9251 61.997C33.2831 61.997 34.3841 60.896 34.3841 59.538C34.3841 58.1799 33.2831 57.079 31.9251 57.079C30.567 57.079 29.4661 58.1799 29.4661 59.538C29.4661 60.896 30.567 61.997 31.9251 61.997Z" fill="#DB8B8B"/>
<path opacity="0.1" d="M28.773 76.692H28.799C31.444 77.235 34.764 74.479 34.764 74.479C34.6753 74.3285 34.5984 74.1714 34.534 74.009C34.443 73.867 34.386 73.786 34.386 73.786L28.816 76L28.802 76.22L28.772 76.693L28.773 76.692Z" fill="black"/>
<path d="M29.4741 63.89C29.4741 63.89 33.0061 61.745 34.1411 62.628L35.7181 64.646C35.7181 64.646 36.727 64.96 36.538 66.979L37.2941 70.637L35.0261 71.205C35.0261 71.205 33.6861 72.465 34.7641 74.298C34.7641 74.298 31.4221 77.073 28.7701 76.506L28.9571 73.542C28.9571 73.542 29.5271 71.902 28.5171 70.389C27.5071 68.876 28.4541 67.424 29.4001 66.856C29.4031 66.846 29.8451 64.456 29.4741 63.89Z" fill="#FC6681"/>
<path d="M29.2772 76.756C29.2772 76.756 27.9532 77.006 27.3212 78.016C27.1402 78.319 26.9182 78.596 26.6622 78.841C26.6045 78.8934 26.56 78.9585 26.532 79.0312C26.504 79.1038 26.4933 79.1821 26.5009 79.2596C26.5085 79.3371 26.5341 79.4117 26.5756 79.4776C26.6171 79.5435 26.6735 79.5987 26.7402 79.639C27.2402 79.939 28.0572 80.125 29.0872 79.278C30.8532 77.826 29.2772 76.756 29.2772 76.756Z" fill="#DB8B8B"/>
<path opacity="0.1" d="M31.2322 65.087C31.2322 65.087 32.4942 64.96 32.8082 68.241C33.1232 71.521 33.6282 72.278 33.6282 72.278C33.6282 72.278 33.9442 73.981 33.1882 74.99C32.4312 76 30.9792 78.142 30.9792 78.142C30.9792 78.142 29.4032 78.585 29.0872 77.008L31.0422 73.35C31.0422 73.35 31.3582 72.09 30.6022 71.207C29.8452 70.324 29.2772 64.457 31.2322 65.087Z" fill="black"/>
<path d="M31.1062 64.9021C31.1062 64.9021 32.3682 64.7761 32.6822 68.0551C32.9962 71.3331 33.5032 72.0921 33.5032 72.0921C33.5032 72.0921 33.8172 73.7941 33.0612 74.8031C32.3042 75.8131 30.8532 77.9561 30.8532 77.9561C30.8532 77.9561 29.2772 78.3981 28.9612 76.8221L30.9162 73.1641C30.9162 73.1641 31.2322 71.9021 30.4762 71.0191C29.7192 70.1361 29.1502 64.2671 31.1062 64.9021Z" fill="#FC6681"/>
<path opacity="0.1" d="M30.066 67.2619C30.066 67.2619 29.939 69.2179 30.506 70.2899C31.073 71.3629 31.075 72.75 30.506 73.507L30.066 67.2619ZM29.75 64.8659C29.75 64.8659 30.255 64.363 31.705 64.299C33.155 64.236 33.787 63.7939 33.787 63.7939" fill="black"/>
<path opacity="0.1" d="M33.259 56.3581C33.641 56.4051 34.079 56.536 34.218 56.898C34.254 57.034 34.283 57.173 34.305 57.312C34.448 57.863 35.068 58.122 35.45 58.542C35.789 58.912 35.936 59.417 36.047 59.906C36.361 61.312 36.436 62.7601 36.269 64.1911C36.145 65.2371 35.894 66.2681 35.823 67.3171C35.752 68.3671 35.881 69.4741 36.456 70.3571C36.703 70.7361 37.028 71.069 37.203 71.491C36.842 71.784 36.343 71.8261 35.878 71.8421C35.338 71.8591 34.798 71.8591 34.258 71.8421C33.972 71.854 33.6876 71.7949 33.43 71.67C33.248 71.5543 33.0986 71.3939 32.996 71.2041C32.686 70.6771 32.607 70.046 32.62 69.434C32.633 68.821 32.73 68.215 32.742 67.604C32.742 67.27 32.722 66.917 32.532 66.645C32.3747 66.4631 32.1969 66.3 32.002 66.159C31.328 65.561 31.096 64.6011 31.073 63.7001C31.051 62.8001 31.198 61.895 31.122 60.996C31.092 60.645 30.96 60.222 30.615 60.154C30.5061 60.1481 30.3978 60.1341 30.291 60.112C30.012 60.005 30.04 59.612 29.967 59.326C29.877 59.002 29.604 58.756 29.527 58.43C29.345 57.667 30.315 56.757 30.952 56.486C31.588 56.216 32.575 56.2741 33.259 56.3581Z" fill="black"/>
<path d="M33.3222 56.2319C33.7042 56.2799 34.1422 56.4119 34.2812 56.7719C34.3172 56.9079 34.3472 57.0469 34.3682 57.1879C34.5112 57.7379 35.1312 57.9979 35.5142 58.4159C35.8522 58.7859 36.0002 59.2899 36.1102 59.7799C36.4242 61.1849 36.4992 62.6339 36.3322 64.0649C36.2092 65.1109 35.9582 66.1409 35.8862 67.1909C35.8152 68.2409 35.9452 69.3469 36.5202 70.2309C36.7662 70.6089 37.0922 70.9429 37.2662 71.3639C36.9062 71.6569 36.4062 71.6999 35.9412 71.7159C35.4012 71.7329 34.8592 71.7329 34.3132 71.7159C34.0272 71.7279 33.7427 71.6688 33.4852 71.5439C33.3035 71.4282 33.1542 71.2682 33.0512 71.0789C32.7412 70.5509 32.6622 69.9189 32.6752 69.3069C32.6882 68.6939 32.7852 68.0889 32.7972 67.4769C32.7972 67.1459 32.7772 66.7909 32.5872 66.5189C32.4295 66.3374 32.2517 66.1743 32.0572 66.0329C31.3832 65.4349 31.1492 64.4759 31.1272 63.5729C31.1042 62.6709 31.2532 61.7689 31.1772 60.8699C31.1472 60.5179 31.0152 60.0959 30.6702 60.0269C30.5613 60.021 30.453 60.007 30.3462 59.9849C30.0672 59.8779 30.0952 59.4859 30.0222 59.1999C29.9322 58.8759 29.6592 58.6299 29.5822 58.3039C29.4002 57.5419 30.3702 56.6299 31.0072 56.3599C31.6432 56.0899 32.6382 56.1539 33.3222 56.2319Z" fill="#472727"/>
<path opacity="0.1" d="M155.705 113.375C157.852 113.375 159.593 112.927 159.593 112.375C159.593 111.823 157.852 111.375 155.705 111.375C153.558 111.375 151.817 111.823 151.817 112.375C151.817 112.927 153.558 113.375 155.705 113.375Z" fill="#4E6F8A"/>
<path opacity="0.1" d="M140.81 114.886C142.957 114.886 144.698 114.438 144.698 113.886C144.698 113.334 142.957 112.886 140.81 112.886C138.663 112.886 136.922 113.334 136.922 113.886C136.922 114.438 138.663 114.886 140.81 114.886Z" fill="#4E6F8A"/>
<path opacity="0.1" d="M123.267 112.842C125.414 112.842 127.155 112.394 127.155 111.842C127.155 111.29 125.414 110.842 123.267 110.842C121.12 110.842 119.379 111.29 119.379 111.842C119.379 112.394 121.12 112.842 123.267 112.842Z" fill="#4E6F8A"/>
<path opacity="0.1" d="M146.772 119.185C148.299 119.185 149.536 118.737 149.536 118.185C149.536 117.633 148.299 117.185 146.772 117.185C145.246 117.185 144.008 117.633 144.008 118.185C144.008 118.737 145.246 119.185 146.772 119.185Z" fill="#4E6F8A"/>
<path opacity="0.1" d="M131.314 118.805C132.841 118.805 134.078 118.357 134.078 117.805C134.078 117.253 132.841 116.805 131.314 116.805C129.788 116.805 128.55 117.253 128.55 117.805C128.55 118.357 129.788 118.805 131.314 118.805Z" fill="#4E6F8A"/>
<path d="M140.728 113.764C140.728 113.764 146.181 95.889 139.874 88.729C135.157 83.373 129.802 84.013 127.4 84.679C126.78 84.8446 126.203 85.143 125.709 85.5536C125.215 85.9642 124.816 86.4771 124.54 87.057C123.702 88.865 123.852 91.802 129.772 95.228C139.682 100.965 140.302 108.836 140.302 108.836L140.728 113.764Z" fill="#00D09C"/>
<path d="M142.103 99.7769C142.103 99.7769 140.321 99.6349 140.287 100.489M128.257 87.2109C128.257 87.2109 144.332 92.2329 140.731 113.764L128.257 87.2109ZM137.647 89.0139C137.647 89.0139 135.432 90.5039 136.137 92.7399L137.647 89.0139ZM129.869 90.3359C129.869 90.3359 131.223 88.9589 132.869 89.7189L129.869 90.3359ZM136.232 97.2629C136.232 97.2629 138.607 96.0579 139.222 97.5679L136.232 97.2629Z" stroke="#565987" stroke-width="0.5"/>
<path d="M140.948 113.907C140.948 113.907 134.562 100.915 132.808 101.2C131.975 101.334 131.591 102.154 131.416 102.982C131.201 104.046 131.322 105.152 131.764 106.144C132.668 108.219 135.098 112.167 140.948 113.907Z" fill="#00D09C"/>
<path d="M138.212 109.783L138.165 110.944M132.855 103.665C132.855 103.665 139.558 113.385 140.855 113.813L132.855 103.665ZM132.237 105.183H133.802H132.237ZM134.112 108.74L136.564 108.845L134.112 108.74ZM135.604 105.895L135.338 107.173L135.604 105.895Z" stroke="#565987" stroke-width="0.5"/>
<path d="M140.759 113.907C140.759 113.907 147.145 100.915 148.899 101.2C149.733 101.334 150.117 102.154 150.291 102.982C150.506 104.047 150.384 105.152 149.942 106.144C149.03 108.219 146.6 112.167 140.759 113.907Z" fill="#00D09C"/>
<path d="M143.493 109.783L143.54 110.944M148.852 103.665C148.852 103.665 142.149 113.385 140.854 113.813L148.852 103.665ZM149.468 105.183H147.903H149.468ZM147.593 108.74L145.141 108.845L147.593 108.74ZM146.101 105.895L146.367 107.173L146.101 105.895Z" stroke="#565987" stroke-width="0.5"/>
<path d="M129.793 116.941C129.619 116.799 129.492 116.608 129.43 116.392C129.402 116.284 129.411 116.169 129.458 116.067C129.504 115.965 129.584 115.883 129.684 115.833C129.918 115.744 130.17 115.906 130.354 116.07C130.54 116.233 130.76 116.42 131.003 116.386C130.876 116.27 130.781 116.124 130.727 115.96C130.673 115.797 130.662 115.623 130.695 115.454C130.706 115.385 130.736 115.32 130.781 115.266C130.911 115.126 131.145 115.186 131.301 115.296C131.787 115.642 131.931 116.313 131.934 116.916C131.958 116.694 131.958 116.47 131.934 116.248C131.925 116.137 131.943 116.025 131.987 115.922C132.031 115.819 132.099 115.728 132.186 115.658C132.303 115.595 132.435 115.564 132.568 115.568C132.678 115.552 132.79 115.56 132.897 115.59C133.004 115.621 133.103 115.673 133.188 115.744C133.376 115.945 133.328 116.284 133.164 116.506C132.98 116.714 132.76 116.887 132.516 117.019C132.333 117.129 132.176 117.279 132.058 117.456C132.045 117.481 132.033 117.507 132.024 117.534H130.635C130.329 117.375 130.046 117.176 129.793 116.941ZM154.128 111.709C153.954 111.567 153.828 111.375 153.766 111.159C153.738 111.051 153.748 110.937 153.794 110.836C153.839 110.735 153.919 110.652 154.018 110.602C154.252 110.512 154.504 110.674 154.691 110.837C154.877 111.001 155.096 111.187 155.339 111.161C155.212 111.045 155.117 110.899 155.063 110.736C155.009 110.573 154.998 110.399 155.031 110.23C155.042 110.161 155.072 110.096 155.117 110.042C155.247 109.902 155.481 109.962 155.637 110.071C156.123 110.418 156.267 111.088 156.27 111.691C156.294 111.469 156.294 111.245 156.27 111.023C156.261 110.912 156.279 110.8 156.322 110.697C156.366 110.594 156.434 110.503 156.521 110.433C156.638 110.37 156.77 110.339 156.903 110.343C157.013 110.327 157.125 110.335 157.232 110.365C157.339 110.396 157.438 110.448 157.523 110.52C157.712 110.72 157.662 111.06 157.498 111.281C157.314 111.489 157.095 111.663 156.85 111.795C156.667 111.905 156.51 112.054 156.392 112.232C156.379 112.257 156.367 112.283 156.358 112.31H154.969C154.663 112.148 154.381 111.946 154.129 111.709H154.128ZM146.019 116.941C145.844 116.799 145.717 116.608 145.654 116.392C145.626 116.284 145.636 116.169 145.682 116.067C145.728 115.965 145.809 115.883 145.909 115.833C146.142 115.744 146.395 115.906 146.581 116.07C146.767 116.233 146.986 116.42 147.229 116.386C147.101 116.271 147.006 116.124 146.952 115.961C146.898 115.797 146.887 115.623 146.921 115.454C146.931 115.384 146.961 115.32 147.007 115.266C147.137 115.126 147.37 115.186 147.525 115.296C148.011 115.642 148.157 116.313 148.159 116.916C148.187 116.694 148.19 116.47 148.169 116.248C148.159 116.137 148.177 116.025 148.22 115.922C148.264 115.819 148.332 115.729 148.418 115.658C148.535 115.595 148.667 115.564 148.8 115.568C148.91 115.552 149.022 115.56 149.129 115.59C149.236 115.62 149.335 115.673 149.42 115.744C149.609 115.945 149.56 116.284 149.396 116.506C149.211 116.713 148.992 116.887 148.748 117.019C148.564 117.128 148.408 117.278 148.29 117.456C148.276 117.481 148.265 117.507 148.256 117.534H146.866C146.558 117.376 146.273 117.176 146.019 116.941ZM123.016 106.364C123.016 106.364 122.495 107.044 123.256 108.074C124.017 109.102 124.646 109.97 124.39 110.612C124.39 110.612 123.241 108.702 122.307 108.668C121.372 108.634 121.987 107.508 123.017 106.364H123.016Z" fill="#00D09C"/>
<path opacity="0.1" d="M123.016 106.364C122.97 106.43 122.934 106.502 122.909 106.578C121.997 107.649 121.511 108.65 122.388 108.674C123.206 108.699 124.186 110.16 124.419 110.528C124.413 110.557 124.404 110.585 124.392 110.612C124.392 110.612 123.243 108.702 122.308 108.668C121.374 108.634 121.988 107.508 123.016 106.364Z" fill="black"/>
<path d="M122.048 107.233C122.048 107.473 122.075 107.667 122.108 107.667C122.14 107.667 122.168 107.472 122.168 107.233C122.168 106.993 122.135 107.106 122.101 107.106C122.067 107.106 122.048 106.993 122.048 107.233Z" fill="#FFD037"/>
<path d="M121.715 107.52C121.926 107.633 122.109 107.702 122.125 107.673C122.142 107.644 121.985 107.527 121.774 107.413C121.564 107.297 121.646 107.382 121.63 107.413C121.613 107.443 121.505 107.404 121.715 107.519V107.52Z" fill="#FFD037"/>
<path d="M125.769 106.364C125.769 106.364 126.289 107.044 125.527 108.074C124.766 109.102 124.139 109.97 124.393 110.612C124.393 110.612 125.542 108.702 126.478 108.668C127.415 108.634 126.798 107.508 125.768 106.364H125.769Z" fill="#00D09C"/>
<path opacity="0.1" d="M125.769 106.364C125.814 106.43 125.849 106.502 125.874 106.578C126.788 107.649 127.274 108.65 126.396 108.674C125.586 108.699 124.599 110.16 124.364 110.528C124.364 110.557 124.382 110.584 124.392 110.612C124.392 110.612 125.54 108.702 126.477 108.668C127.413 108.634 126.797 107.508 125.769 106.364Z" fill="black"/>
<path d="M126.736 107.233C126.736 107.473 126.71 107.667 126.676 107.667C126.642 107.667 126.616 107.472 126.616 107.233C126.616 106.993 126.65 107.106 126.682 107.106C126.715 107.106 126.736 106.993 126.736 107.233Z" fill="#FFD037"/>
<path d="M127.07 107.52C126.859 107.633 126.674 107.702 126.66 107.673C126.645 107.644 126.8 107.527 127.011 107.413C127.221 107.297 127.139 107.382 127.155 107.413C127.172 107.443 127.28 107.404 127.07 107.519V107.52Z" fill="#FFD037"/>
<path d="M126.57 110.523C126.57 110.523 125.113 110.478 124.675 110.165C124.238 109.852 122.435 109.48 122.326 109.982C122.218 110.484 120.136 112.475 121.782 112.488C123.428 112.501 125.602 112.232 126.041 111.965C126.48 111.697 126.571 110.523 126.571 110.523H126.57Z" fill="#C5B4B7"/>
<path opacity="0.2" d="M121.751 112.313C123.397 112.326 125.573 112.057 126.011 111.79C126.344 111.587 126.478 110.858 126.522 110.521H126.571C126.571 110.521 126.478 111.696 126.041 111.963C125.603 112.23 123.426 112.499 121.781 112.486C121.307 112.486 121.142 112.313 121.151 112.063C121.218 112.216 121.398 112.31 121.751 112.313Z" fill="black"/>
<path opacity="0.1" d="M27.1011 115.549C30.2077 115.549 32.7261 115.101 32.7261 114.549C32.7261 113.997 30.2077 113.549 27.1011 113.549C23.9945 113.549 21.4761 113.997 21.4761 114.549C21.4761 115.101 23.9945 115.549 27.1011 115.549Z" fill="#4E6F8A"/>
<path opacity="0.1" d="M40.72 123.009C43.8266 123.009 46.345 122.561 46.345 122.009C46.345 121.457 43.8266 121.009 40.72 121.009C37.6134 121.009 35.095 121.457 35.095 122.009C35.095 122.561 37.6134 123.009 40.72 123.009Z" fill="#4E6F8A"/>
<path opacity="0.1" d="M100.806 103.57C102.863 103.57 104.53 103.122 104.53 102.57C104.53 102.018 102.863 101.57 100.806 101.57C98.7493 101.57 97.082 102.018 97.082 102.57C97.082 103.122 98.7493 103.57 100.806 103.57Z" fill="#4E6F8A"/>
<path opacity="0.1" d="M83.3961 115.549C85.4528 115.549 87.1201 115.101 87.1201 114.549C87.1201 113.997 85.4528 113.549 83.3961 113.549C81.3394 113.549 79.6721 113.997 79.6721 114.549C79.6721 115.101 81.3394 115.549 83.3961 115.549Z" fill="#4E6F8A"/>
<path opacity="0.1" d="M75.547 123.009C77.6037 123.009 79.271 122.561 79.271 122.009C79.271 121.457 77.6037 121.009 75.547 121.009C73.4903 121.009 71.823 121.457 71.823 122.009C71.823 122.561 73.4903 123.009 75.547 123.009Z" fill="#4E6F8A"/>
</g>
<defs>
<linearGradient id="paint0_linear" x1="32.0611" y1="101.383" x2="32.0611" y2="55.5954" gradientUnits="userSpaceOnUse">
<stop stop-color="#808080" stop-opacity="0.25"/>
<stop offset="0.54" stop-color="#808080" stop-opacity="0.12"/>
<stop offset="1" stop-color="#808080" stop-opacity="0.1"/>
</linearGradient>
<clipPath id="clip0">
<rect width="175" height="123" fill="white"/>
</clipPath>
</defs>
</svg>
