<?xml version="1.0" encoding="UTF-8"?>
<!DOCTYPE svg  PUBLIC '-//W3C//DTD SVG 1.1//EN'  'http://www.w3.org/Graphics/SVG/1.1/DTD/svg11.dtd'>
<svg width="240pt" height="240pt" version="1.1" viewBox="0 0 240 240" xmlns="http://www.w3.org/2000/svg">
<path d="m0 0h240v240h-240v-240z" fill="#fff" stroke="#fff" stroke-width=".09375"/>
<path d="m187.5 41.3-0.1-0.5c0.9-0.3 2.7-0.8 3.6-1.1 0.8 0 2.3-0.1 3-0.1 5.5 1 9.6 5.2 11.4 10.3 0 0.5 0.1 1.5 0.1 2 0.2 2.4 0.5 4.8 0.6 7.2-1.5 1.5-3.2 2.7-5 3.8l-1 0.3c-3.9 1.3-6.3-2.4-8.7-4.8 0-0.6 0-2-0.1-2.7 0.6 0.3 1.1 0.6 1.6 0.9 2.2 1.1 4.4 3.5 7.1 2.7 2.9-1.1 3.9-4.6 3.6-7.4-1.2-3.6-4.2-6.6-7.7-7.9-7.5-1.3-15.6 3.6-17.4 11.1-1.1 5.9-1.9 11.9-2.1 17.9-0.1 3.2-0.6 6.5-2.2 9.3l-1.5-3.6c0.4-2.4 0.9-4.7 1-7.2l0.8 0.1c-0.1-5.4 0.1-10.8 0.3-16.3 0.3 0.2 1 0.5 1.4 0.7l0.3-4.5h0.8c1.6-4.6 5.5-8.7 10.2-10.2z" fill="#5d4e0c" stroke="#5d4e0c" stroke-width=".09375"/>
<path d="m90.5 46.8c3.1-1 6.3-2 9.4-3.1 5.7-0.4 11.5-0.4 17.2 0 2.1 0.8 4.2 1.4 6.4 2v0.4l0.5 0.3c4 2.9 8.1 5.8 10.8 10 4.7 7.3 6 16.2 10.2 23.8-0.3 0.6-0.7 1.8-1 2.4-1.7-2.4-3.3-4.9-4.2-7.7-1.9-6.2-4.2-12.5-7.9-17.9-5.6-7.2-15-10.5-23.9-9.8-10.4-0.9-20.2 4.2-27.7 11-6.3 6.3-11.2 14-15.3 21.9-0.7-0.3-2.2-1-2.9-1.3v-0.4c0.1-0.7 0.4-2.1 0.6-2.8l0.7-0.1c0.4-1 0.8-2.1 1.2-3.1h1.1c-0.1-0.4-0.2-1.1-0.3-1.4 1-1.1 1.8-2.3 2.4-3.6l0.9 0.2c-0.1-0.5-0.2-1.5-0.3-2 0.5 0 1.5-0.1 2-0.2 0-0.5 0-1.4-0.1-1.9l0.8-0.1c1.9-2.8 4.5-5.1 6.8-7.5 1.8-1.7 3.6-3.3 5.6-4.8l0.1-0.8c0.4 0.1 1.4 0.3 1.9 0.5l-0.1-1.1c1-0.5 2.1-0.9 3.2-1.4l-0.1-1.1c0.5 0.2 1.4 0.5 1.9 0.6l0.1-1z" fill="#124028" stroke="#124028" stroke-width=".09375"/>
<path d="m178.5 55.1c1.8-7.5 9.9-12.4 17.4-11.1 3.5 1.3 6.5 4.3 7.7 7.9 0.3 2.8-0.7 6.3-3.6 7.4-2.7 0.8-4.9-1.6-7.1-2.7 2.8-1.5 6-1.2 9.1-1.2-0.1-5-5.5-10.9-10.6-8.2-0.7 0.3-1.3 0.6-2 0.9-2.5 1.4-6.3 1.8-7.3 5-1.5 5.5-2.4 11.2-2.5 16.9 0 6.3-3.5 11.9-3.9 18.1 4-0.9 7.7-2.9 10.9-5.4 6-4.3 12.6-9.4 13.5-17.2-2.2-0.3-4.5-0.4-6.7-1-1.8-1.4-1.7-4-2-6.1 2.4 2.4 4.8 6.1 8.7 4.8l1-0.3c0.8-0.2 2.3-0.6 3-0.8-0.5 2.4-1 4.7-1.7 7-2.4 4.8-5.8 9-9.4 12.9-4.6 3.3-9.2 7.1-15.1 7.8 0.8 0.2 1.5 0.3 2.3 0.5-3.4 0.3-6.8 0.9-10.2 1.4 0.8-3.4 2.3-6.5 4.2-9.4 1.6-2.8 2.1-6.1 2.2-9.3 0.2-6 1-12 2.1-17.9z" fill="#ece260" stroke="#ece260" stroke-width=".09375"/>
<path d="m124 46.4c3.1-0.3 5.4 2.2 7.5 4.1 5.6 5.4 8.5 12.8 10.7 20.1 1.5 5.2 4.2 10.4 8.9 13.4 3.1 1.4 6.5 1.8 9.9 2.4 3.8-0.5 6.9-2.9 10.4-4.3-1.6 3-4.9 4.1-7.8 5.3-7 1.2-14.5-1.4-18.6-7.2-4.2-7.6-5.5-16.5-10.2-23.8-2.7-4.2-6.8-7.1-10.8-10z" fill="#95a59a" stroke="#95a59a" stroke-width=".09375"/>
<path d="m191.4 47.2c5.1-2.7 10.5 3.2 10.6 8.2-3.1 0-6.3-0.3-9.1 1.2-0.5-0.3-1-0.6-1.6-0.9 0.1 0.7 0.1 2.1 0.1 2.7 0.3 2.1 0.2 4.7 2 6.1 2.2 0.6 4.5 0.7 6.7 1-0.9 7.8-7.5 12.9-13.5 17.2-3.2 2.5-6.9 4.5-10.9 5.4 0.4-6.2 3.9-11.8 3.9-18.1 0.1-5.7 1-11.4 2.5-16.9 1-3.2 4.8-3.6 7.3-5 0.1 0.6 0.1 1.9 0.2 2.6h2.1c-0.1-1.2-0.2-2.3-0.3-3.5z" fill="#f9eb37" stroke="#f9eb37" stroke-width=".09375"/>
<path d="m80.3 58.2c7.5-6.8 17.3-11.9 27.7-11 8.9-0.7 18.3 2.6 23.9 9.8 3.7 5.4 6 11.7 7.9 17.9 0.9 2.8 2.5 5.3 4.2 7.7 2.6 3.7 6.3 6.7 10.8 8 1.9 0.9 3.8 2 5.6 3.2-0.5 1.2-1 2.5-1.5 3.8-3.7 2.1-7.7 4-12 4.1-7.6 0.4-15.4 0.2-22.8-2-10.2-2.4-19.9-6.4-30.2-8 0.5-0.3 1.5-0.8 2-1.1-7.4 0.1-14.5-2-21.9-2-3.8-0.1-7.5 0.7-11.2 1-0.4-0.1-1-0.3-1.4-0.5 1.2-3 2.3-6.1 3.6-9 4.1-7.9 9-15.6 15.3-21.9z" fill="#2c8e5b" stroke="#2c8e5b" stroke-width=".09375"/>
<path d="m189.4 48.1c0.7-0.3 1.3-0.6 2-0.9 0.1 1.2 0.2 2.3 0.3 3.5h-2.1c-0.1-0.7-0.1-2-0.2-2.6z" fill="#5d4e0c" stroke="#5d4e0c" stroke-width=".09375"/>
<path d="m205.5 51.9 0.8-1.3c0.5 5.5 0.5 11 0 16.5-1.4 2.2-1.5 5-3.3 7-0.2-1.6-0.4-3.3-0.6-5 0.7-2.3 1.2-4.6 1.7-7-0.7 0.2-2.2 0.6-3 0.8 1.8-1.1 3.5-2.3 5-3.8-0.1-2.4-0.4-4.8-0.6-7.2z" fill="#787242" stroke="#787242" stroke-width=".09375"/>
<path d="m94.4 53.6c5.5-1.2 11.1-2.4 16.7-1.6 1.8 0.4 4.8-0.2 4.9 2.5-2.8 1.2-6 0.9-9 1.1-4.1 0.1-8.1 1.2-12.1 2-0.1-0.7-0.3-2.1-0.3-2.8-0.1-0.3-0.1-0.9-0.2-1.2z" fill="#024b1f" stroke="#024b1f" stroke-width=".09375"/>
<path d="m116 54.5c3.3-1.6 7.6-1.5 10.5 0.9 4.6 3.5 5.8 9.6 8.6 14.4 2 3.4 1.7 7.4 3.1 11 1.7 2.6 4.2 4.5 6.1 6.9 1.5 1.8 2.7 4 4.7 5.3 2.6 0.6 5.6-0.3 7.6 1.9-2.6 1.7-5.4 3.7-8.7 3.6-3.1-0.1-6.2 0.4-9.3 1-2.6 0.6-5.1-0.8-7.6-1.4-2.7-0.9-5.7-0.8-8.4-1.7-2.7-1.2-4.7-3.3-7.3-4.7-3.1-0.4-6.3 0.5-9.3-0.6-3.6-1.1-7.2-2.4-11-2.8-7.4-0.8-14.5-3.9-22-3.1-2.9 0.5-6.3-2.7-4.3-5.5 2.9-4.8 4.4-10.4 8.6-14.3 3.3-3.1 6.1-6.8 9.9-9.2 2.1-1.6 4.9-1.2 7.4-1.4 0 0.7 0.2 2.1 0.3 2.8 4-0.8 8-1.9 12.1-2 3-0.2 6.2 0.1 9-1.1z" fill="#17a052" stroke="#17a052" stroke-width=".09375"/>
<path d="m193 82c3.6-3.9 7-8.1 9.4-12.9 0.2 1.7 0.4 3.4 0.6 5-0.3 0.5-0.8 1.5-1 1.9-0.9 1.5-1.9 3-2.7 4.5l-0.9-0.1c0 0.7-0.1 1.9-0.2 2.5l-0.7-1c-0.3-0.4-0.8-1.3-1.1-1.7-1.2 0.6-2.3 1.2-3.4 1.8z" fill="#454010" stroke="#454010" stroke-width=".09375"/>
<path d="m34.9 76.9c1.9-1.8 3.8-3.9 6.7-3.6l-0.2-0.8c3.7-0.1 7.5-0.1 11.2 0l-0.3 0.8c1.4 0 2.7 0.4 3.8 1.2 0.3-0.1 1-0.1 1.4-0.2v1.3c0.5 0 1.5-0.1 1.9-0.1 0.1 0.4 0.2 1.1 0.2 1.5 0.6 0.4 1.9 1.1 2.5 1.4v0.4c-1.3 0.7-2.6 1.5-3.8 2.3-3.8-4.4-10-4-15.3-3.7-3.1-0.1-5.8 1.9-8.5 3.3l-1-1.1c0.5-0.9 1-1.8 1.4-2.7z" fill="#2e2704" stroke="#2e2704" stroke-width=".09375"/>
<path d="m34.5 80.7c2.7-1.4 5.4-3.4 8.5-3.3 5.3-0.3 11.5-0.7 15.3 3.7 0.3 0.7 1.1 2.1 1.5 2.8-0.4 0.8-1.3 2.5-1.7 3.3-5.6 2.3-12.4 3.6-17.9 0.5-2.8-1.4-4.2-4.4-5.7-7z" fill="#e3dc6c" stroke="#e3dc6c" stroke-width=".09375"/>
<path d="m39.8 80.9c4-3.5 10-2.1 14.3 0.1 1.8 0.8 1.6 2.8 1.7 4.5-3.8 1.3-8 2.7-11.9 0.8-2.3-0.6-5.7-2.7-4.1-5.4z" fill="#f6ea35" stroke="#f6ea35" stroke-width=".09375"/>
<path d="m58.3 81.1c1.2-0.8 2.5-1.6 3.8-2.3 0.7 0.3 2.2 1 2.9 1.3-1.3 2.9-2.4 6-3.6 9-1.1-0.6-2.2-1.2-3.3-1.9 0.4-0.8 1.3-2.5 1.7-3.3-0.4-0.7-1.2-2.1-1.5-2.8z" fill="#24490f" stroke="#24490f" stroke-width=".09375"/>
<path d="m172.7 78.7 1.5 3.6c-1.9 2.9-3.4 6-4.2 9.4 3.4-0.5 6.8-1.1 10.2-1.4-0.8-0.2-1.5-0.3-2.3-0.5 5.9-0.7 10.5-4.5 15.1-7.8 1.1-0.6 2.2-1.2 3.4-1.8 0.3 0.4 0.8 1.3 1.1 1.7-0.7 1.2-1.6 2.4-2.4 3.5-0.4 0-1.2 0.1-1.6 0.1 0 0.5-0.1 1.6-0.1 2.1-0.5-0.1-1.5-0.3-2-0.3 0.1 0.2 0.2 0.8 0.2 1-1.6 0.9-3.1 1.8-4.6 2.7-0.8 1.3-2.2 1.5-3.5 1.8v0.9c-0.5-0.1-1.4-0.3-1.9-0.4l-0.1 1c-1.7 0.4-3.4 1-5.1 1.4 0.4 1.6 0.9 3.2 1.3 4.8l0.7-0.1v7.1l-1.1 0.1c0.1 0.5 0.3 1.4 0.5 1.8l-1.5 0.2c0.1 0.4 0.2 1.1 0.3 1.5-1.5 0.7-2.7 1.8-3.6 3.2-0.7 0.1-1.9 0.2-2.5 0.2v0.9l-3.6 0.3c-7.1 2.4-14.6 1.9-21.9 1.8-5.6 0-11-2.4-16.6-2.2l0.2-1.2c-0.4 0.1-1.2 0.2-1.6 0.3-1.4-0.6-2.9-0.9-4.4-1.1l-0.1-0.9c-0.8 0.1-2.3 0.1-3.1 0.2l0.1-1.2c-0.4 0-1.1 0.1-1.5 0.1-2.1-0.9-4.3-1.7-6.6-2.2l0.1-1c-0.5 0.1-1.5 0.4-2 0.5v-1.2c-0.8-0.1-2.3-0.1-3-0.2v-0.7c-0.6-0.3-1.9-0.9-2.6-1.2-0.3 0-1.1 0.1-1.5 0.1l0.1-1.3c-0.4 0-1.1 0.1-1.4 0.1-1.2-0.6-2.4-1-3.6-1.2v-1.1l-2 0.8 0.1-1.3c-1.4-0.1-2.7-0.1-4.1-0.2v-0.8c-3.2 0-6.4-0.1-9.6 0.1-2.1 0.7-4.2 1.5-6.4 2l-0.1 1c-0.4-0.1-1.4-0.3-1.8-0.4l-0.1 1.3c-0.5 0-1.4-0.2-1.9-0.2l-0.1 0.8c-1.1 0.4-1.9 1.2-2.4 2.3h-1.6c0 0.5 0 1.5-0.1 2-0.4 0-1.4-0.1-1.9-0.2v1.4l-2-0.4 0.2 1.5-1.4-0.5 0.2 1.4c-0.5-0.1-1.5-0.3-1.9-0.4l-0.1 1.4c-0.5-0.1-1.4-0.2-1.9-0.3v1.1c-1.4 0.4-2.7 0.9-4.1 1.3v0.9c-0.5-0.1-1.4-0.2-1.9-0.3v1.1c-1 0-3.1 0.1-4.1 0.1l0.2 1c-1.8-0.1-3.5-0.1-5.3-0.1l-0.1-1-2 0.2v-1.7c0-0.3 0.1-1 0.1-1.3 2-0.4 3.9-0.8 5.9-1.3 10.1-3 17.6-11.1 27.1-15.5 5.5-0.5 11.1-1 16.6-0.3 3.7 0.6 7 2.1 10.5 3.4 18.2 8.9 38.5 15.4 59 12.8 5.3-0.6 11.4-2.2 14.1-7.2 1.5-2 0.9-4.7-0.8-6.4-2.4-2.8-6.5-1.8-9.7-1.9 2.3-1.6 3.7-4.1 5-6.5l-2.8-0.8c-0.4-0.1-1.1-0.3-1.4-0.3-0.4-0.9-1-2.5-1.3-3.3 2.9-1.2 6.2-2.3 7.8-5.3 0-0.4 0.1-1.3 0.2-1.7 0.2 0.1 0.7 0.3 0.9 0.4 0.1-0.6 0.2-1.6 0.2-2.1z" fill="#2e2908" stroke="#2e2908" stroke-width=".09375"/>
<path d="m33.5 79.6 1 1.1c1.5 2.6 2.9 5.6 5.7 7 5.5 3.1 12.3 1.8 17.9-0.5 1.1 0.7 2.2 1.3 3.3 1.9 0.4 0.2 1 0.4 1.4 0.5-0.1 0.6-0.2 1.9-0.3 2.5 5.5 0 11-0.3 16.5-0.3l1.6 1.6h-1.6c-6.3-0.2-12.8-0.1-18.9 2-0.3 0-0.9 0.2-1.2 0.3-6 2.5-11.1 6.8-14.9 12.1-1.2 1.3-2.5 2.4-3.9 3.5 0.5-3.1 2.1-5.9 3.9-8.5 0.9-1.4 1.8-3 3.5-3.6l-0.2-0.9 1.3 0.3-0.1-1.3c0.5 0.1 1.4 0.1 1.9 0.1v-1.6c0.5-0.3 1.5-0.9 2.1-1.2-2.4-0.2-4.7-0.3-7-0.3v-0.7c-1.4 0-2.7-0.1-4.1-0.1l0.1-1.3c-0.4 0.1-1.4 0.4-1.9 0.5l-0.1-1.3c-0.5 0.1-1.5 0.1-2 0.1v-2c-0.4 0-1.3 0.1-1.7 0.1-0.5-1.1-1-2.1-1.4-3.2l-0.9 0.2c-0.1-2.3-0.1-4.7 0-7z" fill="#30270f" stroke="#30270f" stroke-width=".09375"/>
<path d="m144 82.6c0.3-0.6 0.7-1.8 1-2.4 4.1 5.8 11.6 8.4 18.6 7.2 0.3 0.8 0.9 2.4 1.3 3.3-3.4-0.3-6.8-0.1-10.1-0.1-4.5-1.3-8.2-4.3-10.8-8z" fill="#022f18" stroke="#022f18" stroke-width=".09375"/>
<path d="m62.8 89.6c3.7-0.3 7.4-1.1 11.2-1 7.4 0 14.5 2.1 21.9 2-0.5 0.3-1.5 0.8-2 1.1 10.3 1.6 20 5.6 30.2 8 7.4 2.2 15.2 2.4 22.8 2 4.3-0.1 8.3-2 12-4.1 2.9-1.6 5.3-4 7.4-6.6l2.8 0.8c-1.3 2.4-2.7 4.9-5 6.5-2.6 1.2-4.9 2.8-7 4.6-0.1 0.1-0.3 0.2-0.4 0.2-6.2 1.1-12.3 3.1-18.7 2.4-8-0.8-15.9-2.4-23.6-4.9-2.9-1-6-1.5-9.1-2-8.2-2-16.2-5-24.7-5.2l-1.6-1.6c-5.5 0-11 0.3-16.5 0.3 0.1-0.6 0.2-1.9 0.3-2.5z" fill="#11380a" stroke="#11380a" stroke-width=".09375"/>
<path d="m154.8 90.6c3.3 0 6.7-0.2 10.1 0.1 0.3 0 1 0.2 1.4 0.3-2.1 2.6-4.5 5-7.4 6.6 0.5-1.3 1-2.6 1.5-3.8-1.8-1.2-3.7-2.3-5.6-3.2z" fill="#3f6d56" stroke="#3f6d56" stroke-width=".09375"/>
<path d="m60.1 95.4c6.1-2.1 12.6-2.2 18.9-2 0.3 0.6 1 1.7 1.3 2.3 2.3 0.3 4.6 0.6 6.8 0.9-4.1 0.5-8.2 0.3-12.3 0-0.1 0.3-0.3 1-0.4 1.3-9.5 4.4-17 12.5-27.1 15.5h-5.2c0.4-1.9 0.9-3.8 1.9-5.6 3.8-5.3 8.9-9.6 14.9-12.1 0.9 0.1 2.6 0.3 3.4 0.4-3.4 2.3-7.1 4.3-10.5 6.7-2.9 2-4.4 5.4-5.8 8.5 9.9-2.1 16.9-10.1 25.5-14.9-3.6-1.5-7.6-1.3-11.4-1z" fill="#ece767" stroke="#ece767" stroke-width=".09375"/>
<path d="m79 93.4h1.6c8.5 0.2 16.5 3.2 24.7 5.2 1 0.5 2 1 3 1.6-1.1 0.5-2.2 1.1-3.3 1.7-1.2-0.3-2.3-0.6-3.5-0.9-3.5-1.3-6.8-2.8-10.5-3.4-5.5-0.7-11.1-0.2-16.6 0.3 0.1-0.3 0.3-1 0.4-1.3 4.1 0.3 8.2 0.5 12.3 0-2.2-0.3-4.5-0.6-6.8-0.9-0.3-0.6-1-1.7-1.3-2.3z" fill="#d2cf8c" stroke="#d2cf8c" stroke-width=".09375"/>
<path d="m58.9 95.7c0.3-0.1 0.9-0.3 1.2-0.3 3.8-0.3 7.8-0.5 11.4 1-8.6 4.8-15.6 12.8-25.5 14.9 1.4-3.1 2.9-6.5 5.8-8.5 3.4-2.4 7.1-4.4 10.5-6.7-0.8-0.1-2.5-0.3-3.4-0.4z" fill="#f6ec39" stroke="#f6ec39" stroke-width=".09375"/>
<path d="m157.1 102.9c2.1-1.8 4.4-3.4 7-4.6 3.2 0.1 7.3-0.9 9.7 1.9 1.7 1.7 2.3 4.4 0.8 6.4-2.7 5-8.8 6.6-14.1 7.2-20.5 2.6-40.8-3.9-59-12.8 1.2 0.3 2.3 0.6 3.5 0.9 4.7 1.6 9.3 3.6 14.1 5.1 9.4 3.1 19.1 6.1 29.1 5.6 1 0 1.9 0 2.8-0.1 5.8-0.1 12.1 0.9 17.4-2.1 2.5-1.4 5.4-3.2 5.9-6.4-0.2-3.5-4.3-5-7.4-4.6-3.4 0.6-6.5 2.3-9.8 3.5z" fill="#9d9635" stroke="#9d9635" stroke-width=".09375"/>
<path d="m105.3 98.6c3.1 0.5 6.2 1 9.1 2 7.7 2.5 15.6 4.1 23.6 4.9 6.4 0.7 12.5-1.3 18.7-2.4-8.8 5.4-19.7 3.4-29.4 2.4-6.3-1.8-12.8-3.2-19-5.3-1-0.6-2-1.1-3-1.6z" fill="#747b22" stroke="#747b22" stroke-width=".09375"/>
<path d="m157.1 102.9c3.3-1.2 6.4-2.9 9.8-3.5 3.1-0.4 7.2 1.1 7.4 4.6-0.5 3.2-3.4 5-5.9 6.4-5.3 3-11.6 2-17.4 2.1 4.6-2.8 10.3-1.1 14.9-3.6 1.5-0.8 3-1.6 4.3-2.8 0.7-1.5 0.3-3.2 0.5-4.8-2.1 0.1-4.4 0-6.3 1.1-5.7 3.1-11.7 5.4-17.9 7.1 0.6 1.1 1.2 2.1 1.7 3.1-10 0.5-19.7-2.5-29.1-5.6l-2.4-2.4c3.6 0.3 7.1 0.6 10.6 0.9 9.7 1 20.6 3 29.4-2.4 0.1 0 0.3-0.1 0.4-0.2z" fill="#f5ea57" stroke="#f5ea57" stroke-width=".09375"/>
<path d="m105 101.9c1.1-0.6 2.2-1.2 3.3-1.7 6.2 2.1 12.7 3.5 19 5.3-3.5-0.3-7-0.6-10.6-0.9l2.4 2.4c-4.8-1.5-9.4-3.5-14.1-5.1z" fill="#e3dc6c" stroke="#e3dc6c" stroke-width=".09375"/>
<path d="m164.4 102.4c1.9-1.1 4.2-1 6.3-1.1-0.2 1.6 0.2 3.3-0.5 4.8-1.3 1.2-2.8 2-4.3 2.8-4.6 2.5-10.3 0.8-14.9 3.6-0.9 0.1-1.8 0.1-2.8 0.1-0.5-1-1.1-2-1.7-3.1 6.2-1.7 12.2-4 17.9-7.1z" fill="#f9e934" stroke="#f9e934" stroke-width=".09375"/>
<path d="m42.9 102.1c0.3 0.2 0.8 0.5 1.1 0.7-1.8 2.6-3.4 5.4-3.9 8.5 1.4-1.1 2.7-2.2 3.9-3.5-1 1.8-1.5 3.7-1.9 5.6h5.2c-2 0.5-3.9 0.9-5.9 1.3 0 0.3-0.1 1-0.1 1.3l-0.4 1.2c-0.8-1.1-1.5-2.1-2.3-3.1v-5c1.4-2.4 2.9-4.7 4.3-7z" fill="#737152" stroke="#737152" stroke-width=".09375"/>
<path d="m115.2 137.6c3.9-1.7 8.3-1 12.4-0.8l0.2 0.5 0.3 0.6c-3.6-0.2-7.3-0.1-11-0.3h-1.9z" fill="#bfbfbf" stroke="#bfbfbf" stroke-width=".09375"/>
<path d="m135.9 138.8c1-0.8 1.9-1.6 2.9-2.4 1.4 1 3.1 1.9 3.8 3.7 2 4.9 4.4 9.7 5.9 14.7 0.4-0.1 1-0.2 1.4-0.3l-2.2 1.1c-3-6-4.6-12.8-8.6-18.3-4.3 4.7-4.8 11.4-8.5 16.3 0-2.7 1.2-5.2 2.3-7.6 1.2-2.4 2.2-4.8 3-7.2z" fill="#6e6e6e" stroke="#6e6e6e" stroke-width=".09375"/>
<path d="m153.5 137.9c3.9-2.3 8.6-1.2 12.7-0.3 0.3 0.6 0.9 1.8 1.3 2.4l-1.5 3c-3.1-0.7-6.8 0.3-9.4-1.7 3.3-0.8 6.5-0.1 9.7 0.2-0.4-4.2-5.3-3.7-8.4-3.6-2.7-0.1-4.7 2-6.6 3.7-0.1 1.6-0.1 3.3-0.1 4.9 3.5 3.9 9.1 3.9 13.3 6.7-0.7 1.1-1.3 2.2-2 3.3-2.7 0.2-5.4 0.2-8-0.7 2.9-0.6 7.4 1.4 8.4-2.6-4.3-1.7-10.1-1.8-12.5-6.4-2.2-3.2 0.3-7.2 3.1-8.9z" fill="#989898" stroke="#989898" stroke-width=".09375"/>
<path d="m93.5 137.5c3.5-1.7 7.7-0.8 11.5-0.6 2.7 0 4.8 1.9 6.6 3.8 0.5-0.1 1.5-0.3 2.1-0.4 0.2 2.7 0.2 5.4 0 8-0.8 0.3-2.4 0.8-3.2 1.1-0.1-3.1 1.2-7.1-1.6-9.4-4.2-3.1-9.7-2.4-14.5-1.7-0.6 7.1-0.6 14.2-0.7 21.3-0.3 0-0.9-0.1-1.1-0.2-0.6-3.5-0.1-7-0.7-10.5-0.6-3.8-0.6-8.2 1.6-11.4z" fill="#c1c1c1" stroke="#c1c1c1" stroke-width=".09375"/>
<path d="m113.4 137.8c0.6-0.1 1.2-0.1 1.8-0.2h1.9c-1.1 0.8-2.7 1.6-2.4 3.3-0.1 5.7-0.5 11.5 0.1 17.3 0.3 0.4 0.8 1.2 1.1 1.6 2.5-2.2 1-6.3 1.5-9.4 3.8 0 7.6 0 11.1-1.4-3.4-1.9-7.4-1.4-11.1-1.6 0-2.2 0.1-4.4 0.2-6.6 3.9 0 7.8-0.1 11.8-0.2-0.3-0.7-0.9-2-1.3-2.7l-0.3-0.6c0.7 0.1 2 0.4 2.6 0.5 0.2 1.9-0.5 3.5-2.1 4.7-3.4-0.2-6.7-0.2-10 0.1-0.4 5.6 6.8 3.2 10.3 4-0.1 1.6-0.1 3.1-0.1 4.7-3.3 0-6.6 0.1-9.9 0.3 0 3-0.1 5.9-0.3 8.9-1.5 0-3 0-4.6-0.1-0.3-4-0.3-8 0-12.1 0.2-2.6 0.2-5.3 0-8-0.1-0.6-0.2-1.8-0.3-2.5z" fill="#7b7b7b" stroke="#7b7b7b" stroke-width=".09375"/>
<path d="m73.8 137.8c4.2-0.5 8.4-0.1 12.7-0.1v0.9c0.4 0 1.1 0 1.5 0.1 0.5 1 1.3 1.8 2.4 2.2 0.3 2.6 0.3 5.1 0.3 7.7l-1.3-0.1c0.1 0.5 0.2 1.4 0.2 1.9-1.4 0.4-2.9 0.9-4.3 1.3l0.5 0.8c-2.8 0-5.5 0.1-8.3 0.2v6.9c-1.3 0-2.6 0-3.9 0.1 0-7.3-0.4-14.6 0.2-21.9z" fill="#080808" stroke="#080808" stroke-width=".09375"/>
<path d="m94.4 138.3c4.8-0.7 10.3-1.4 14.5 1.7 2.8 2.3 1.5 6.3 1.6 9.4l-1.1-0.2 0.2 1.3-1.1 0.2-0.2 0.8c-0.4 0-1.4-0.2-1.8-0.3l0.1 1.3c-3 0.1-6 0.1-9 0.1v7.1c-1.3 0-2.6-0.1-3.9-0.1 0.1-7.1 0.1-14.2 0.7-21.3z" fill="#0b0b0a" stroke="#0b0b0a" stroke-width=".09375"/>
<path d="m117.1 137.6c3.7 0.2 7.4 0.1 11 0.3 0.4 0.7 1 2 1.3 2.7-4 0.1-7.9 0.2-11.8 0.2-0.1 2.2-0.2 4.4-0.2 6.6 3.7 0.2 7.7-0.3 11.1 1.6-3.5 1.4-7.3 1.4-11.1 1.4-0.5 3.1 1 7.2-1.5 9.4-0.3-0.4-0.8-1.2-1.1-1.6-0.6-5.8-0.2-11.6-0.1-17.3-0.3-1.7 1.3-2.5 2.4-3.3z" fill="#040404" stroke="#040404" stroke-width=".09375"/>
<path d="m130.6 153.6c3.7-4.9 4.2-11.6 8.5-16.3 4 5.5 5.6 12.3 8.6 18.3l2.1 0.2-0.6 1.2c-0.3 0.8-1.1 2.3-1.5 3.1-1.4-1.7-2.7-3.6-3.8-5.7-3.3-0.1-6.8-0.6-10 0.3-1.4 1.3-1.3 3.4-1.8 5.1l-3.6-0.3c0.1-0.8 0.1-2.3 0.1-3l1 0.1v-2.6l1-0.4z" fill="#040404" stroke="#040404" stroke-width=".09375"/>
<path d="m151.3 141.6c1.9-1.7 3.9-3.8 6.6-3.7 3.1-0.1 8-0.6 8.4 3.6-3.2-0.3-6.4-1-9.7-0.2-0.1 0.3-0.2 1.1-0.3 1.4-0.4 0-1.2-0.1-1.6-0.2v2.8c1.6 0.5 3.2 1 4.9 1.4l-0.2 0.8h4.2l-0.1 0.8c1.1 0.5 2.1 1 3.2 1.5l-0.4 1.6 1.3-0.1c0 1.8 0 3.5-0.1 5.3l-1.2-0.2c0 0.5 0.1 1.5 0.1 2h-1.9l0.1 1.2h-3v1c-2.1-0.1-4.1-0.1-6.2-0.1l0.2-0.8c-1.1-0.1-3.1-0.2-4.1-0.3l-0.3-4.2c1.1 0.2 2.2 0.3 3.3 0.6 2.6 0.9 5.3 0.9 8 0.7 0.7-1.1 1.3-2.2 2-3.3-4.2-2.8-9.8-2.8-13.3-6.7 0-1.6 0-3.3 0.1-4.9z" fill="#101010" stroke="#101010" stroke-width=".09375"/>
<path d="m77.4 148.5v-7.1c3.5-0.1 7.3-0.5 10 2.1 0.1 0.6 0.1 1.9 0.1 2.5-2.3 3.3-6.6 2.6-10.1 2.5z" fill="#c1c1c1" stroke="#c1c1c1" stroke-width=".09375"/>
<path d="m98.7 142.6-0.4-1.2c2.2 0.3 4.9-0.5 6.7 1.1 0.4 0 1.1-0.1 1.4-0.2l-0.1 1.3 1.2-0.2c-0.1 0.7-0.1 2.2-0.1 3h-1l0.1 1.3c-0.5-0.1-1.4-0.3-1.8-0.3l-0.2 1c-2.1 0-4.1 0.1-6.2 0.1l0.4-1.2-1.2 0.3c0.1-1.7 0.1-3.5 0.1-5.2l1.1 0.2z" fill="#fafafa" stroke="#fafafa" stroke-width=".09375"/>
<path d="m79 143.1c2.3-0.6 4.6 0.1 6.9 0.4-0.2 0.9-0.7 2.7-0.9 3.5-2.2 0.1-4.4 0.1-6.7 0.1 0.2-1.4 0.4-2.7 0.7-4z" fill="#fcfcfa" stroke="#fcfcfa" stroke-width=".09375"/>
<path d="m137.5 143.5c1.2 0.4 2.4 0.9 3.6 1.3l1.5 6.6c-2.3 0-4.6 0-6.9-0.1 0-1.1 0.2-3.2 0.3-4.2l1.4 1.1c0 0.6 0.1 1.8 0.1 2.4 1.2-0.1 2.4-0.1 3.7-0.2-0.8-2.2-1.8-4.2-3.2-6.1l-0.5-0.8z" fill="#646464" stroke="#646464" stroke-width=".09375"/>
<path d="m137.4 148.2 0.6-3.9c1.4 1.9 2.4 3.9 3.2 6.1-1.3 0.1-2.5 0.1-3.7 0.2 0-0.6-0.1-1.8-0.1-2.4z" fill="#fafafa" stroke="#fafafa" stroke-width=".09375"/>
<path d="m133.9 154.7c3.2-0.9 6.7-0.4 10-0.3 1.1 2.1 2.4 4 3.8 5.7 0.4-0.8 1.2-2.3 1.5-3.1l1.9-1.5c0.7 2.7-3.7 8.3-5.8 4.4-0.9-1.3-1.5-2.9-2.1-4.4-2.5-0.1-5-0.2-7.5 0-1.4 1.3-2.4 2.9-3.6 4.3 0.5-1.7 0.4-3.8 1.8-5.1z" fill="#919191" stroke="#919191" stroke-width=".09375"/>
<path d="m31 169.8c1.1-0.1 2.3-0.2 3.5-0.3 4.7 4 5.3 10.7 8.1 16.1l-1.6 0.8c-1.3-5.2-3.6-10.1-5.8-15h-3.4c-0.3 0.4-1 1.2-1.4 1.6l-1-0.7c0.4-0.6 1.2-1.8 1.6-2.5z" fill="#a7a7a7" stroke="#a7a7a7" stroke-width=".09375"/>
<path d="m123.8 169.7c1.3-0.2 2.6-0.3 4-0.4 1.2 4.5 0.6 9.1 0.7 13.7 0 3 0.3 6.1-0.2 9.1-0.2 2.6-3 1.3-4.7 1.4-0.1-8-0.4-15.9 0.2-23.8z" fill="#7b7b7b" stroke="#7b7b7b" stroke-width=".09375"/>
<path d="m203.6 172.6c1.1-1.2 1.9-2.8 3.5-3.5 1.1 0.2 2.1 0.4 3.2 0.6 0.2 7.9 0 15.9 0.1 23.8-1.8 0.2-3.6 0.2-5.4 0.3-3.8 1.5-8.3 0.5-10.9-2.9-2.1-2.6-1.4-6.1-1.4-9.2-0.5-0.2-1.4-0.6-1.9-0.7-0.3-0.4-1-1.1-1.3-1.4-1.1-1-2.1-2.2-3.4-2.9-3.2 0.4-6.4 1.2-9.6 0.6-0.1 5.3-0.2 10.6 0 15.9 5.6-1.2 0.9-8.4 3.9-11.8 1.3-1.5 3.3-1.8 5.2-2.1 0.1 0.2 0.5 0.8 0.6 1.1l0.1 1.3c-0.9-0.1-2.7-0.3-3.5-0.4-0.6 0.4-1.8 1.3-2.4 1.7 0 3.4-0.1 6.8-0.1 10.3-2 1.4-4.2 0.7-5.7-1 0.1-4.5 0-9 0-13.5 0.5-1 1-1.9 1.5-2.8 3.7-0.1 7.3-0.5 11-0.1 2.5 0.7 3.5 3.4 4.9 5.3 2.3-3.1 5.6-5 9.1-6.6l-0.7 1.1c1.1 0.1 3.2 0.1 4.3 0.2v-3.6l-1.1 0.3z" fill="#979797" stroke="#979797" stroke-width=".09375"/>
<path d="m50.4 170.6h3l0.1 0.7c1.1 7.3 1.6 14.9-0.3 22.2-3.4-3.9-1.3-9.5-1.6-14.2-1.1 0.2-2.1 0.3-3.1 0.5l0.4 1.2c-0.1 0.9-0.3 2.7-0.4 3.7l-0.7-0.3c-0.4 1.3-0.8 2.5-1.2 3.7 0 0.4 0.1 1 0.1 1.4l-1.3-0.1c0 0.5 0.1 1.3 0.2 1.7-0.4 0.6-1.1 1.7-1.5 2.3-1 0-2.8 0-3.8-0.1 0.1-0.4 0.2-1.4 0.3-1.8h-1.3c0.1-0.5 0.3-1.4 0.4-1.9h-1.2c0-0.8-0.1-2.4-0.1-3.2l-0.9 0.4c-0.1-0.8-0.3-2.2-0.4-2.9-0.3-2.3-2.1-4-3.3-5.8-0.2 4.9-0.2 9.7-0.3 14.6-0.8 0-2.4-0.2-3.3-0.2 0.2-6.5 0-13 0.2-19.5 0.4-0.4 1.1-1.2 1.4-1.6h3.4c2.2 4.9 4.5 9.8 5.8 15 0.8 0.1 1.7 0.1 2.5 0.1 0-0.7 0.1-2.2 0.1-3l1.1-0.1c-0.1-0.4-0.3-1.3-0.4-1.8l0.9-0.1c0.5-1.6 1.1-3.3 1.6-4.9l0.4-0.2c0.5-1.7 1.1-3.3 1.6-4.9 0.5 0 1.3 0.1 1.7 0.2l-0.1-1.1z" fill="#080808" stroke="#080808" stroke-width=".09375"/>
<path d="m141.4 170.5c4.3-0.3 8.7-0.3 13 0.1 2 0 2.2 2.2 2.3 3.7-1.3 0.5-2.6 0.9-3.9 1.3-2.5-0.1-5.1-0.7-7.5 0.2-0.2 0.9-0.6 2.6-0.8 3.4 3.4 0.2 6.7 0.2 10 0.3 0.2 0.6 0.6 1.7 0.8 2.3 2.1-0.8 1-3.5 1.4-5.2 1.2-0.4 3.5-1.4 4.1-0.1v1c-0.6 0-1.7-0.2-2.3-0.2-0.9 5.2-2.1 11.6 2.2 15.7 2.4-0.2 4.8-0.6 7.1-1.1 1.2 0.3 2.4 0.6 3.7 0.9 0.1-5.1 0.1-10.2 0-15.2 0.4 0 1.4 0.1 1.8 0.1-0.2 5.3 0.3 10.7-0.8 15.9-2.8-0.1-5.7 0.1-8.5 0.7-2.6 0.7-4.7-1.3-6.7-2.6-0.6-3-1-6-0.7-9-0.6 0.1-1.7 0.3-2.3 0.4l0.6 1.4c-3.4 0.2-6.7 0.3-10 0.2-0.1 3-0.2 6-0.3 8.9-1.7 0-3.3-0.1-5-0.1-0.4-6.2-0.1-12.3-0.2-18.5 0.1-1.6-0.1-4.2 2-4.5z" fill="#838383" stroke="#838383" stroke-width=".09375"/>
<path d="m206.6 170.1c1.3 0.2 2.9 1.2 2.7 2.8 0.1 6.1 0.2 12.3 0 18.4 0.1 1.5-1.8 1.2-2.7 1.3-3.6-0.2-7.9 1.4-10.7-1.7-2.9-3-2.5-7.4-1.1-11 1.6-1.3 3.2-2.8 5.3-3.2 2.1 0.1 4.2 0.6 6.3 1 0-2.5 0.1-5 0.2-7.6z" fill="#090909" stroke="#090909" stroke-width=".09375"/>
<path d="m53.5 171.3c0.4 0.1 1.3 0.4 1.8 0.5 0.5 7.2 0.3 14.4 0 21.6-1.6 0.1-3.2 0.2-4.8 0.2-0.7-4.2 0.5-8.7-1.6-12.6l-0.4-1.2c1-0.2 2-0.3 3.1-0.5 0.3 4.7-1.8 10.3 1.6 14.2 1.9-7.3 1.4-14.9 0.3-22.2z" fill="#797979" stroke="#797979" stroke-width=".09375"/>
<path d="m124.6 181c0.3-3.8-1-8.1 1.5-11.3 2.2 4.1 1 8.8 1.3 13.3-0.2 3.5 0.8 7.4-1.4 10.6-2.5-3.8-1-8.4-1.4-12.6z" fill="#060606" stroke="#060606" stroke-width=".09375"/>
<path d="m79.7 172.7h2.4c0.3 1 0.5 2.1 0.8 3.1 2.1 0.4 4.3 0.8 6.5 1l-0.8 0.2c-0.5 0.1-1.7 0.3-2.2 0.5v2.6c-1.3 0.6-2.5 1.2-3.8 1.8 0 2.5 0.1 5 0.2 7.5 1.7 0 3.3 0.1 4.9 0.1 0.9 5.9-7.8 6.5-10.1 2.3-0.8-3.6 0-7.4-0.9-11-0.8-0.2-2.4-0.5-3.2-0.7-0.4-1.1-0.4-2.6-1.6-3.2-1.7-0.4-2.9 1.5-2.9 3-0.3 2.8 0.1 5.6 0.4 8.4-2.1 1.4-5.3 3-7.3 0.5-0.7-3.7-0.2-7.6-0.3-11.4-0.7 0-2.2-0.1-2.9-0.1 0 5.2-1.3 11.4 2.6 15.6 1.7-0.1 3.3-0.3 4.9-0.5 1.3 0.3 2.6 0.6 3.8 0.9-3.3 0.5-7.3 2.3-10.1-0.4-4.2-4.2-2.5-10.8-2.4-16 0.5-0.3 1.7-1 2.2-1.3 1.1 0.5 2.2 0.9 3.3 1.3 0.1 4 0.1 8 0.3 12 1.7-0.3 3.8 0 4.7-1.9 0.5-3.5 0.2-7 0.3-10.4 2.2-1 4.5-0.3 6.3 1.1 1.8-1.5 3.3-3.3 4.9-5z" fill="#888" stroke="#888" stroke-width=".09375"/>
<path d="m140.8 179c-0.2-2.6 0-5.1 0.7-7.6 4.3 0.2 8.6-0.1 13 0.2 0 0.7-0.1 2-0.1 2.6-3.4 0.3-6.9 0.1-10.3 0.2-0.3 2.1-0.1 4.1 0.2 6.2 3.2 0.1 6.4 0.1 9.6-0.1 0 1 0.1 2 0.1 3-3.3-0.2-6.6-0.1-9.9-0.1-0.8 3.3 1 8.1-2.6 9.9-1.1-4.7-0.5-9.6-0.7-14.3z" fill="#101010" stroke="#101010" stroke-width=".09375"/>
<path d="m76.1 178.8c0.9-2.1 2.9-3.4 4.7-4.6 1 2.1 3.1 3.1 5.3 3.9-1.2 0.8-2.5 1.4-3.8 1.8-0.4 1.7-0.6 3.5-0.6 5.3-1.2-0.1-2.3-0.1-3.4-0.1 0.1-1.4 0.2-2.8 0.2-4.3-0.8-0.6-1.6-1.3-2.4-2z" fill="#070707" stroke="#070707" stroke-width=".09375"/>
<path d="m107.5 176.5c2.9-0.5 5.9-0.8 8.8-0.9 1.9 1.7 4.5 3.5 4.6 6.3 0.5 3.4 0.2 6.9 0.5 10.3-0.6 0.3-1.9 0.9-2.5 1.2h-6.2c0.9-0.6 1.8-1.1 2.6-1.7 1.4 0.3 2.7 0.7 4.1 1 0.1-4.5 0.1-9 0.2-13.4-3-1.5-6.3-2.8-9.6-1.9-1.8-0.2-1.7 2-2.1 3.1 2.9-0.9 7.6-2.6 8.8 1.7-1.5 1.4-3.8 1.1-5.7 1.7-2.1 0.3-3.7 1.9-5.3 3.2 0-0.3 0-1-0.1-1.4 2.5-3.4 6.9-3 10.6-3.8-2.8-0.5-5.6-0.5-8.4-0.6-0.3-0.2-0.7-0.7-1-0.9v-1.9c0.2-0.5 0.5-1.5 0.7-2z" fill="#757575" stroke="#757575" stroke-width=".09375"/>
<path d="m89.4 176.8c1-0.2 2-0.3 2.9-0.5 0.1 4.4 0.1 8.9 0.2 13.3 2.6 0.3 5.1 0 7-1.9v-10.2c0.7-0.3 2.2-1.1 2.9-1.5 1.5 5.7 1.4 11.7 0.2 17.3-1.3-0.7-2.6-1.3-3.9-1.9-0.4 0.3-1.2 1.1-1.6 1.4-1.7 0-3.5-0.1-5.2-0.2-0.9-0.7-1.8-1.5-2.7-2.2l-0.5-0.4c-0.5-4.3-0.4-8.7-0.1-13l0.8-0.2z" fill="#090909" stroke="#090909" stroke-width=".09375"/>
<path d="m98.9 175.6c2.9-0.2 5.9 0.6 7.9 2.9v1.9c-0.4-0.4-1.1-1.2-1.5-1.6-0.6 2.3-0.4 4.7 0.3 6.9 0.1 0.4 0.1 1.1 0.1 1.4 0 0.6 0.1 1.6 0.1 2.1 0.9 1.5 2 2.8 3.1 4.2h3.8 6.2c0.6-0.3 1.9-0.9 2.5-1.2-0.7 2.7-3.3 2.6-5.4 1.8-2.2 0.5-4.6 2-6.8 0.7-1.7-0.8-3.1-2.2-4.6-3.4-0.2 0.5-0.6 1.6-0.8 2.1l-1.2-0.1c1.2-5.6 1.3-11.6-0.2-17.3-0.7 0.4-2.2 1.2-2.9 1.5v10.2c-1.9 1.9-4.4 2.2-7 1.9-0.1-4.4-0.1-8.9-0.2-13.3 2.9 3.7 0.2 8.8 2.7 12.8 0.6-0.3 1.7-0.8 2.3-1.1 0.8-4.1-0.1-8.4 1.6-12.4z" fill="#d2d2d2" stroke="#d2d2d2" stroke-width=".09375"/>
<path d="m167.5 176.5c2.1-0.9 4.5-0.9 5.8 1.2-0.4 0-1.4-0.1-1.8-0.1l-3-0.3v10.4c-1.9 2-4.5 2.3-7.1 2.2-0.7-4.1-0.6-8.3-0.6-12.4v-1c2.9 3.4 0.9 8.3 1.5 12.3 1.9-0.1 3.6-0.7 5.2-1.6-0.1-3.6-0.1-7.2 0-10.7z" fill="#a7a7a7" stroke="#a7a7a7" stroke-width=".09375"/>
<path d="m69 179.9c0-1.5 1.2-3.4 2.9-3 1.2 0.6 1.2 2.1 1.6 3.2 0.5 4.4 0.1 8.9 0 13.3-0.6 0-1.7 0.1-2.3 0.2l-1-0.3c-1.2-0.3-2.5-0.6-3.8-0.9 1.9-0.6 3.9-0.6 5.8-0.1-0.2-4.7 0.7-9.5-0.5-14.1h-1c-0.5 3.3-0.2 6.8-1.3 10.1-0.3-2.8-0.7-5.6-0.4-8.4z" fill="#5b5b5b" stroke="#5b5b5b" stroke-width=".09375"/>
<path d="m168.5 177.3 3 0.3c0.1 5 0.1 10.1 0 15.2-1.3-0.3-2.5-0.6-3.7-0.9-2.3 0.5-4.7 0.9-7.1 1.1-4.3-4.1-3.1-10.5-2.2-15.7 0.6 0 1.7 0.2 2.3 0.2 0 4.1-0.1 8.3 0.6 12.4 2.6 0.1 5.2-0.2 7.1-2.2v-10.4z" fill="#080808" stroke="#080808" stroke-width=".09375"/>
<path d="m176.5 177.3c3.2 0.6 6.4-0.2 9.6-0.6 1.3 0.7 2.3 1.9 3.4 2.9-0.3 4.5 1.4 9.6-1.4 13.6-1.1-4.2 0.4-9-1.9-12.8-0.1-0.3-0.5-0.9-0.6-1.1-1.9 0.3-3.9 0.6-5.2 2.1-3 3.4 1.7 10.6-3.9 11.8-0.2-5.3-0.1-10.6 0-15.9z" fill="#060606" stroke="#060606" stroke-width=".09375"/>
<path d="m33.8 178.1c1.2 1.8 3 3.5 3.3 5.8-0.4 0.2-1.2 0.7-1.6 1 0.1 2.9-0.2 5.8-0.9 8.7-1.8 0.3-4.2 1.6-4.4-1.1 0.9 0 2.5 0.2 3.3 0.2 0.1-4.9 0.1-9.7 0.3-14.6z" fill="#9a9a9a" stroke="#9a9a9a" stroke-width=".09375"/>
<path d="m58.9 177.3c0.7 0 2.2 0.1 2.9 0.1 0.1 3.8-0.4 7.7 0.3 11.4 2 2.5 5.2 0.9 7.3-0.5 1.1-3.3 0.8-6.8 1.3-10.1h1c1.2 4.6 0.3 9.4 0.5 14.1-1.9-0.5-3.9-0.5-5.8 0.1-1.6 0.2-3.2 0.4-4.9 0.5-3.9-4.2-2.6-10.4-2.6-15.6z" fill="#0a0a0a" stroke="#0a0a0a" stroke-width=".09375"/>
<path d="m107.9 180.5c0.4-1.1 0.3-3.3 2.1-3.1 3.3-0.9 6.6 0.4 9.6 1.9-0.1 4.4-0.1 8.9-0.2 13.4-1.4-0.3-2.7-0.7-4.1-1-0.8 0.6-1.7 1.1-2.6 1.7h-3.8c-1.1-1.4-2.2-2.7-3.1-4.2 0-0.5-0.1-1.5-0.1-2.1 1.6-1.3 3.2-2.9 5.3-3.2 1.9-0.6 4.2-0.3 5.7-1.7-1.2-4.3-5.9-2.6-8.8-1.7z" fill="#090909" stroke="#090909" stroke-width=".09375"/>
<path d="m105.6 185.7c-0.7-2.2-0.9-4.6-0.3-6.9 0.4 0.4 1.1 1.2 1.5 1.6 0.3 0.2 0.7 0.7 1 0.9 2.8 0.1 5.6 0.1 8.4 0.6-3.7 0.8-8.1 0.4-10.6 3.8z" fill="#fafafa" stroke="#fafafa" stroke-width=".09375"/>
<path d="m198.1 181.4c1.8-3.6 6.3-1.5 8.3 0.6 0.1 1.8 0.1 3.5 0 5.3-1.4 2.8-5.3 3.6-7.9 2.1-2.2-1.8-3.2-5.9-0.3-7.7 0 1.8 0.1 3.6 0.4 5.4 1 1.1 2.2 2 3.4 2.9 2.8-2 2.9-5.3 2.8-8.4-2.2-0.1-4.4-0.1-6.7-0.2z" fill="#898989" stroke="#898989" stroke-width=".09375"/>
<path d="m189.5 179.6c0.3 0.3 1 1 1.3 1.4l0.7 0.7c-0.2 3.6-0.1 7.1 0 10.7-1.4 1-3.2 1.2-4.9 1.3-0.4-4-0.3-8-0.3-12l-0.1-1.3c2.3 3.8 0.8 8.6 1.9 12.8 2.8-4 1.1-9.1 1.4-13.6z" fill="#535353" stroke="#535353" stroke-width=".09375"/>
<path d="m198.1 181.4c2.3 0.1 4.5 0.1 6.7 0.2 0.1 3.1 0 6.4-2.8 8.4-1.2-0.9-2.4-1.8-3.4-2.9-0.3-1.8-0.4-3.6-0.4-5.4l-0.1-0.3z" fill="#fcfcfc" stroke="#fcfcfc" stroke-width=".09375"/>
<path d="m78.1 185.9h3.8c0 0.9-0.2 2.8-0.2 3.7 1.3 0.1 2.7 0.2 4.1 0.3-0.1 0.6-0.3 2-0.3 2.7-1.8 0.3-3.7 0.2-5.5 0.2-1.2-2.1-1.6-4.5-1.9-6.9z" fill="#121212" stroke="#121212" stroke-width=".09375"/>
<path d="m109.5 186.3c2.4-0.2 4.7-0.2 7.1-0.1-0.1 1-0.2 2.1-0.3 3.2-2.3 0.7-4.7 1-7 0.3 0-1.1 0.1-2.2 0.2-3.4z" fill="#6e6e6e" stroke="#6e6e6e" stroke-width=".09375"/>
<path d="m110.5 187.9c1.2-1.7 3.5-1.1 5.2-1.4 0.3 2.7-5 4.7-5.2 1.4z" fill="#e6e6e6" stroke="#e6e6e6" stroke-width=".09375"/>
<path d="m89.2 190.4c0.9 0.7 1.8 1.5 2.7 2.2 1.7 0.1 3.5 0.2 5.2 0.2 0.4-0.3 1.2-1.1 1.6-1.4 1.3 0.6 2.6 1.2 3.9 1.9 0.7 2.4-2.6 0.1-3.6 0.1-3.3 1.6-9.7 1.8-9.8-3z" fill="#949494" stroke="#949494" stroke-width=".09375"/>
</svg>
