<svg xmlns="http://www.w3.org/2000/svg" width="166" height="112" viewBox="0 0 166 112">
    <g fill="none" fill-rule="evenodd">
        <path fill="#00D09C" fill-rule="nonzero" d="M51.257 5.712C56.89.7 65.731-.318 73.777.077c23.333 1.159 44.57 11.631 63.22 24.078 1.555 1.037-64.908 4.52-63.39 5.581 1.613 1.127 71.221-.159 72.797 1.02 5.403 4.043 10.43 8.467 14.02 13.788.557.825-119.839 10.361-119.366 11.222.925 1.686 122.599-5.257 123.203-3.468 4.31 12.768.511 27.63-10.325 37.142-4.466 3.921-9.88 6.93-15.44 9.593-9.879 4.738-20.547 8.541-31.764 9.625-8.001.77-16.1.144-24.052-.934-22.218-3.01-44.028-9.665-62.308-21.05-6.596-4.11-12.882-9.04-16.743-15.158-.831-1.318 150.308 10.084 149.723 8.653C152.915 79.1.714 65.219.468 64.093c-1.613-7.39.918-15.648 8.021-19.798 3.387-1.977 72.547-2.332 76.51-3.17 5.834-1.236-53.35-2.991-48.086-5.5 5.438-2.593 11.878-7.607 10.795-13.34-1.149-6.16-2.077-11.566 3.55-16.573z" opacity=".1"/>
        <circle cx="98" cy="43" r="3" fill="#D8D8D8" stroke="#979797"/>
        <ellipse cx="86.655" cy="109.108" fill="#44475B" fill-rule="nonzero" opacity=".2" rx="77.655" ry="2.771"/>
        <g fill-rule="nonzero" transform="translate(45 39)">
            <path fill="#F2F2F2" d="M0 12v56.044c0 .518.205 1.016.57 1.383.366.367.862.573 1.379.573H82.05A1.953 1.953 0 0 0 84 68.044V12H0z"/>
            <rect width="20" height="12" x="7" y="17" fill="#000" opacity=".1" rx="1"/>
            <rect width="20" height="12" x="32" y="17" fill="#000" opacity=".1" rx="1"/>
            <rect width="20" height="11" x="7" y="17" fill="#00D09C" rx="1"/>
            <rect width="20" height="12" x="57" y="17" fill="#FFF" rx="1" transform="rotate(-180 67 23)"/>
            <rect width="20" height="11" x="32" y="17" fill="#00D09C" rx="1" transform="rotate(-180 42 22.5)"/>
            <rect width="20" height="12" x="7" y="33" fill="#FFF" rx="1"/>
            <rect width="20" height="12" x="57" y="33" fill="#FFF" rx="1" transform="rotate(-180 67 39)"/>
            <rect width="20" height="12" x="32" y="33" fill="#FFF" rx="1" transform="rotate(-180 42 39)"/>
            <rect width="20" height="11" x="7" y="50" fill="#FFF" rx="1"/>
            <rect width="20" height="11" x="57" y="50" fill="#FFF" rx="1" transform="rotate(-180 67 55.5)"/>
            <rect width="20" height="11" x="32" y="50" fill="#FFF" rx="1" transform="rotate(-180 42 55.5)"/>
            <path fill="#44475B" d="M0 1.935V12h84V1.935c0-.513-.205-1.005-.57-1.368A1.956 1.956 0 0 0 82.05 0H1.95C1.432 0 .936.204.57.567.205.93 0 1.422 0 1.935zm21 3.398c-.892 0-1.615-.746-1.615-1.666C19.385 2.747 20.108 2 21 2s1.615.746 1.615 1.667c0 .92-.723 1.666-1.615 1.666zm42 0c-.892 0-1.615-.746-1.615-1.666C61.385 2.747 62.108 2 63 2s1.615.746 1.615 1.667c0 .442-.17.866-.474 1.18a1.59 1.59 0 0 1-1.144.486H63z"/>
            <path fill="#000" d="M21.001 1A2 2 0 1 0 21 5 2 2 0 0 0 21 1zm.332 3.333a1.667 1.667 0 1 1 0-3.333 1.667 1.667 0 0 1 0 3.333zM63 1a2 2 0 1 0 0 4 2 2 0 0 0 0-4zm.333 3.333a1.667 1.667 0 1 1 0-3.333 1.667 1.667 0 0 1 0 3.333z" opacity=".1"/>
            <path fill="#625EEB" d="M23.852 16.081l-.94-.935a.502.502 0 0 0-.71 0l-5.904 5.787-2.498-2.489a.502.502 0 0 0-.704 0l-.95.93a.495.495 0 0 0 0 .702l3.793 3.78a.507.507 0 0 0 .708 0l7.205-7.073a.491.491 0 0 0 0-.702zM49.852 16.081l-.94-.935a.502.502 0 0 0-.71 0l-5.904 5.787-2.498-2.489a.502.502 0 0 0-.704 0l-.95.93a.495.495 0 0 0 0 .702l3.793 3.78a.507.507 0 0 0 .708 0l7.205-7.073a.491.491 0 0 0 0-.702z"/>
            <rect width="20" height="12" x="57" y="50" fill="#000" opacity=".1" rx="1"/>
            <rect width="20" height="11" x="57" y="50" fill="#00D09C" rx="1" transform="rotate(-180 67 55.5)"/>
            <path fill="#625EEB" d="M74.852 49.081l-.94-.935a.502.502 0 0 0-.71 0l-5.904 5.787-2.498-2.489a.502.502 0 0 0-.704 0l-.95.93a.495.495 0 0 0 0 .702l3.793 3.78a.507.507 0 0 0 .708 0l7.205-7.073a.491.491 0 0 0 0-.702z"/>
        </g>
        <path stroke="#3F3D56" d="M140.178 108.602c-.396-.727.053-1.619.566-2.267.513-.647 1.136-1.32 1.123-2.15-.02-1.187-1.28-1.889-2.287-2.518a11.084 11.084 0 0 1-2.053-1.65 3.009 3.009 0 0 1-.63-.845c-.21-.465-.204-.993-.19-1.5.044-1.695.128-3.388.251-5.08"/>
        <path fill="#FFB61B" fill-rule="nonzero" d="M135.045 92.5c.029-.63.377-1.203.924-1.517l.414.82-.013-.993a1.847 1.847 0 1 1-1.325 1.69z"/>
        <path fill="#57B894" fill-rule="nonzero" d="M138.344 105.034a1.847 1.847 0 1 0-.09-1.49l1.157.94-1.273-.294c0 .294.071.583.206.844zM139.268 101.439a1.847 1.847 0 0 0 .58-3.628l.01.763-.419-.83a1.847 1.847 0 0 0-1.936 1.763 1.847 1.847 0 0 0 1.764 1.932zM134.765 98.447a1.847 1.847 0 1 0-.82-3.466l.328.897-.673-.646a1.847 1.847 0 0 0-.551 1.789c.187.806.889 1.39 1.716 1.426z"/>
        <path fill="#000" fill-rule="nonzero" d="M135.293 92.994c.428.046.843.179 1.272.205.429.027.9-.075 1.172-.409.145-.18.219-.406.342-.603a1.32 1.32 0 0 1 .467-.439 1.847 1.847 0 1 1-3.463 1.23c.07.002.14.008.21.016zM134.765 98.447a1.847 1.847 0 0 0 1.762-2.639 1.368 1.368 0 0 0-.372.372c-.132.2-.213.43-.367.613-.29.339-.781.45-1.229.43-.447-.02-.878-.148-1.32-.189-.061 0-.123-.01-.186-.01a1.847 1.847 0 0 0 1.712 1.423zM139.268 101.439a1.847 1.847 0 0 0 1.776-2.608c-.154.1-.288.228-.396.376-.144.203-.234.437-.396.624-.313.349-.838.471-1.31.46-.473-.01-.902-.122-1.357-.157.229.747.902 1.269 1.683 1.305zM138.344 105.034a1.85 1.85 0 1 0 3.377-1.51c-.154.099-.29.221-.407.362-.177.214-.293.458-.496.66-.379.372-.99.528-1.535.54a7.917 7.917 0 0 1-.94-.052z" opacity=".1"/>
        <path fill="#656380" fill-rule="nonzero" d="M142.971 107.764s-1.462-.044-1.902-.358c-.441-.315-2.244-.688-2.357-.185-.113.503-2.197 2.507-.548 2.515 1.65.008 3.835-.264 4.276-.528.44-.264.531-1.444.531-1.444z"/>
        <path fill="#000" fill-rule="nonzero" d="M138.135 109.562c1.651.013 3.835-.258 4.274-.528.336-.205.469-.936.514-1.273h.048s-.092 1.18-.527 1.451c-.436.272-2.625.538-4.276.528-.476 0-.64-.173-.63-.424.062.148.242.24.597.246z" opacity=".2"/>
        <g>
            <path stroke="#3F3D56" d="M34.59 107.953c-.579-1.071.078-2.386.833-3.342.755-.957 1.676-1.95 1.657-3.167-.029-1.751-1.887-2.784-3.373-3.713a16.443 16.443 0 0 1-3.027-2.434 4.459 4.459 0 0 1-.923-1.245c-.308-.685-.298-1.464-.279-2.214.064-2.499.187-4.995.37-7.489"/>
            <path fill="#FFB61B" fill-rule="nonzero" d="M27.019 84.21a2.729 2.729 0 0 1 1.363-2.242l.612 1.21-.018-1.465a2.731 2.731 0 1 1-1.957 2.492v.006z"/>
            <path fill="#57B894" fill-rule="nonzero" d="M31.89 102.693a2.73 2.73 0 1 0-.133-2.198l1.705 1.387-1.879-.434c.001.434.106.86.306 1.245zM33.238 97.392a2.731 2.731 0 0 0 .865-5.358l.015 1.125-.619-1.224h-.007a2.731 2.731 0 1 0-.254 5.457zM26.608 92.98a2.733 2.733 0 0 0 2.856-2.6c.02-.447-.07-.892-.264-1.295a2.727 2.727 0 0 0-3.804-1.215l.481 1.32-.992-.953a2.731 2.731 0 0 0 1.715 4.74l.008.003z"/>
            <path fill="#000" fill-rule="nonzero" d="M27.387 84.938c.63.07 1.243.264 1.875.305.632.04 1.327-.113 1.727-.605.215-.264.324-.599.506-.888.172-.269.408-.491.687-.648a2.731 2.731 0 1 1-5.105 1.813c.103.004.207.012.31.023zM26.608 92.98a2.733 2.733 0 0 0 2.856-2.6c.02-.447-.07-.892-.264-1.295a2.03 2.03 0 0 0-.549.55c-.194.293-.313.632-.541.902-.425.5-1.152.66-1.81.633-.659-.026-1.296-.216-1.952-.277a4.758 4.758 0 0 0-.276-.017 2.73 2.73 0 0 0 2.536 2.104zM33.238 97.392a2.73 2.73 0 0 0 2.619-3.846c-.225.149-.42.337-.577.556-.212.3-.344.644-.593.924-.46.513-1.235.694-1.934.678-.675-.016-1.327-.18-1.999-.232a2.733 2.733 0 0 0 2.484 1.92zM31.89 102.693a2.731 2.731 0 0 0 4.978-2.228 2.758 2.758 0 0 0-.6.528c-.265.316-.43.675-.732.97-.558.548-1.459.774-2.261.793-.463.006-.926-.015-1.386-.063z" opacity=".1"/>
            <path fill="#656380" fill-rule="nonzero" d="M38.709 106.72s-2.155-.067-2.806-.528c-.65-.462-3.314-1.015-3.475-.274-.161.742-3.24 3.695-.807 3.71 2.434.014 5.655-.38 6.302-.775.648-.396.786-2.134.786-2.134z"/>
            <path fill="#000" fill-rule="nonzero" d="M31.583 109.368c2.433.02 5.654-.379 6.302-.774.494-.3.692-1.38.756-1.877h.073s-.132 1.738-.785 2.132c-.653.395-3.87.792-6.302.775-.702 0-.945-.256-.932-.626.096.226.36.366.888.37z" opacity=".2"/>
        </g>
    </g>
</svg>
