<svg width="166" height="112" viewBox="0 0 166 112" fill="none" xmlns="http://www.w3.org/2000/svg">
<path d="M51.257 5.71197C56.89 0.699972 65.731 -0.318027 73.777 0.0769726C97.11 1.23597 118.347 11.708 136.997 24.155C138.552 25.192 72.089 28.675 73.607 29.736C75.22 30.863 144.828 29.577 146.404 30.756C151.807 34.799 156.834 39.223 160.424 44.544C160.981 45.369 40.585 54.905 41.058 55.766C41.983 57.452 163.657 50.509 164.261 52.298C168.571 65.066 164.772 79.928 153.936 89.44C149.47 93.361 144.056 96.37 138.496 99.033C128.617 103.771 117.949 107.574 106.732 108.658C98.731 109.428 90.632 108.802 82.68 107.724C60.462 104.714 38.652 98.059 20.372 86.674C13.776 82.564 7.49002 77.634 3.62902 71.516C2.79802 70.198 153.937 81.6 153.352 80.169C152.915 79.1 0.714016 65.219 0.468016 64.093C-1.14498 56.703 1.38602 48.445 8.48902 44.295C11.876 42.318 81.036 41.963 84.999 41.125C90.833 39.889 31.649 38.134 36.913 35.625C42.351 33.032 48.791 28.018 47.708 22.285C46.559 16.125 45.631 10.719 51.258 5.71197H51.257Z" fill="#0E231E"/>
<path d="M98 46C99.6569 46 101 44.6569 101 43C101 41.3431 99.6569 40 98 40C96.3431 40 95 41.3431 95 43C95 44.6569 96.3431 46 98 46Z" fill="#D8D8D8" stroke="#979797"/>
<path opacity="0.2" d="M86.655 111.879C129.543 111.879 164.31 110.638 164.31 109.108C164.31 107.578 129.543 106.337 86.655 106.337C43.7673 106.337 9 107.578 9 109.108C9 110.638 43.7673 111.879 86.655 111.879Z" fill="#44475B"/>
<path d="M45 51V107.044C45 107.562 45.205 108.06 45.57 108.427C45.936 108.794 46.432 109 46.949 109H127.05C127.306 109 127.56 108.949 127.797 108.85C128.034 108.752 128.249 108.607 128.43 108.426C128.611 108.244 128.755 108.029 128.852 107.792C128.95 107.555 129 107.3 129 107.044V51H45Z" fill="#2A2A2A"/>
<path opacity="0.1" d="M71 56H53C52.4477 56 52 56.4477 52 57V67C52 67.5523 52.4477 68 53 68H71C71.5523 68 72 67.5523 72 67V57C72 56.4477 71.5523 56 71 56Z" fill="black"/>
<path opacity="0.1" d="M96 56H78C77.4477 56 77 56.4477 77 57V67C77 67.5523 77.4477 68 78 68H96C96.5523 68 97 67.5523 97 67V57C97 56.4477 96.5523 56 96 56Z" fill="black"/>
<path d="M71 56H53C52.4477 56 52 56.4477 52 57V66C52 66.5523 52.4477 67 53 67H71C71.5523 67 72 66.5523 72 66V57C72 56.4477 71.5523 56 71 56Z" fill="#0ABB92"/>
<path d="M103 68H121C121.552 68 122 67.5523 122 67V57C122 56.4477 121.552 56 121 56H103C102.448 56 102 56.4477 102 57V67C102 67.5523 102.448 68 103 68Z" fill="#404042"/>
<path d="M78 67H96C96.5523 67 97 66.5523 97 66V57C97 56.4477 96.5523 56 96 56H78C77.4477 56 77 56.4477 77 57V66C77 66.5523 77.4477 67 78 67Z" fill="#0ABB92"/>
<path d="M71 72H53C52.4477 72 52 72.4477 52 73V83C52 83.5523 52.4477 84 53 84H71C71.5523 84 72 83.5523 72 83V73C72 72.4477 71.5523 72 71 72Z" fill="#404042"/>
<path d="M103 84H121C121.552 84 122 83.5523 122 83V73C122 72.4477 121.552 72 121 72H103C102.448 72 102 72.4477 102 73V83C102 83.5523 102.448 84 103 84Z" fill="#404042"/>
<path d="M78 84H96C96.5523 84 97 83.5523 97 83V73C97 72.4477 96.5523 72 96 72H78C77.4477 72 77 72.4477 77 73V83C77 83.5523 77.4477 84 78 84Z" fill="#404042"/>
<path d="M71 89H53C52.4477 89 52 89.4477 52 90V99C52 99.5523 52.4477 100 53 100H71C71.5523 100 72 99.5523 72 99V90C72 89.4477 71.5523 89 71 89Z" fill="#404042"/>
<path d="M103 100H121C121.552 100 122 99.5523 122 99V90C122 89.4477 121.552 89 121 89H103C102.448 89 102 89.4477 102 90V99C102 99.5523 102.448 100 103 100Z" fill="white"/>
<path d="M78 100H96C96.5523 100 97 99.5523 97 99V90C97 89.4477 96.5523 89 96 89H78C77.4477 89 77 89.4477 77 90V99C77 99.5523 77.4477 100 78 100Z" fill="#404042"/>
<path d="M45 40.935V51H129V40.935C129 40.422 128.795 39.93 128.43 39.567C128.063 39.2031 127.567 38.9993 127.05 39H46.95C46.432 39 45.936 39.204 45.57 39.567C45.205 39.93 45 40.422 45 40.935ZM66 44.333C65.108 44.333 64.385 43.587 64.385 42.667C64.385 41.747 65.108 41 66 41C66.892 41 67.615 41.746 67.615 42.667C67.615 43.587 66.892 44.333 66 44.333ZM108 44.333C107.108 44.333 106.385 43.587 106.385 42.667C106.385 41.747 107.108 41 108 41C108.892 41 109.615 41.746 109.615 42.667C109.615 43.109 109.445 43.533 109.141 43.847C108.993 44.0007 108.815 44.1229 108.618 44.2064C108.422 44.2899 108.211 44.333 107.997 44.333H108Z" fill="#EBEBF5"/>
<path opacity="0.1" d="M66.001 40C65.4706 39.9999 64.9618 40.2105 64.5866 40.5854C64.2115 40.9604 64.0006 41.4691 64.0005 41.9995C64.0004 42.5299 64.2109 43.0387 64.5859 43.4139C64.9609 43.789 65.4696 43.9999 66 44C66.5304 44 67.0391 43.7893 67.4142 43.4142C67.7893 43.0392 68 42.5304 68 42C68 41.4696 67.7893 40.9609 67.4142 40.5858C67.0391 40.2107 66.5304 40 66 40H66.001ZM66.333 43.333C66.1107 43.3385 65.8896 43.2994 65.6826 43.2181C65.4757 43.1368 65.2871 43.0149 65.1279 42.8596C64.9688 42.7043 64.8423 42.5188 64.756 42.3139C64.6696 42.109 64.6252 41.8889 64.6252 41.6665C64.6252 41.4442 64.6696 41.2241 64.756 41.0192C64.8423 40.8143 64.9688 40.6287 65.1279 40.4734C65.2871 40.3181 65.4757 40.1962 65.6826 40.1149C65.8896 40.0336 66.1107 39.9946 66.333 40C66.7679 40.0107 67.1814 40.1909 67.4853 40.5023C67.7891 40.8137 67.9592 41.2315 67.9592 41.6665C67.9592 42.1016 67.7891 42.5194 67.4853 42.8307C67.1814 43.1421 66.7679 43.3224 66.333 43.333ZM108 40C107.47 40 106.961 40.2107 106.586 40.5858C106.211 40.9609 106 41.4696 106 42C106 42.5304 106.211 43.0392 106.586 43.4142C106.961 43.7893 107.47 44 108 44C108.53 44 109.039 43.7893 109.414 43.4142C109.789 43.0392 110 42.5304 110 42C110 41.4696 109.789 40.9609 109.414 40.5858C109.039 40.2107 108.53 40 108 40ZM108.333 43.333C108.111 43.3385 107.89 43.2994 107.683 43.2181C107.476 43.1368 107.287 43.0149 107.128 42.8596C106.969 42.7043 106.842 42.5188 106.756 42.3139C106.67 42.109 106.625 41.8889 106.625 41.6665C106.625 41.4442 106.67 41.2241 106.756 41.0192C106.842 40.8143 106.969 40.6287 107.128 40.4734C107.287 40.3181 107.476 40.1962 107.683 40.1149C107.89 40.0336 108.111 39.9946 108.333 40C108.768 40.0107 109.181 40.1909 109.485 40.5023C109.789 40.8137 109.959 41.2315 109.959 41.6665C109.959 42.1016 109.789 42.5194 109.485 42.8307C109.181 43.1421 108.768 43.3224 108.333 43.333Z" fill="black"/>
<path d="M68.852 55.081L67.912 54.146C67.8654 54.0993 67.81 54.0624 67.7491 54.0371C67.6882 54.0119 67.6229 53.9989 67.557 53.9989C67.491 53.9989 67.4257 54.0119 67.3648 54.0371C67.3039 54.0624 67.2486 54.0993 67.202 54.146L61.298 59.933L58.8 57.444C58.7061 57.3516 58.5797 57.2999 58.448 57.2999C58.3163 57.2999 58.1899 57.3516 58.096 57.444L57.146 58.374C57.0997 58.42 57.063 58.4747 57.0379 58.5349C57.0129 58.5951 57 58.6597 57 58.725C57 58.7902 57.0129 58.8548 57.0379 58.915C57.063 58.9753 57.0997 59.03 57.146 59.076L60.939 62.856C61.0337 62.9483 61.1607 63 61.293 63C61.4252 63 61.5523 62.9483 61.647 62.856L68.852 55.783C68.8987 55.7372 68.9359 55.6826 68.9612 55.6224C68.9866 55.5621 68.9996 55.4974 68.9996 55.432C68.9996 55.3666 68.9866 55.3018 68.9612 55.2416C68.9359 55.1813 68.8987 55.1267 68.852 55.081ZM94.852 55.081L93.912 54.146C93.8653 54.0993 93.81 54.0624 93.7491 54.0371C93.6882 54.0119 93.6229 53.9989 93.557 53.9989C93.491 53.9989 93.4258 54.0119 93.3648 54.0371C93.3039 54.0624 93.2486 54.0993 93.202 54.146L87.298 59.933L84.8 57.444C84.7061 57.3516 84.5797 57.2999 84.448 57.2999C84.3163 57.2999 84.1899 57.3516 84.096 57.444L83.146 58.374C83.0997 58.42 83.063 58.4747 83.0379 58.5349C83.0129 58.5951 83 58.6597 83 58.725C83 58.7902 83.0129 58.8548 83.0379 58.915C83.063 58.9753 83.0997 59.03 83.146 59.076L86.939 62.856C87.0337 62.9483 87.1607 63 87.293 63C87.4252 63 87.5523 62.9483 87.647 62.856L94.852 55.783C94.8987 55.7372 94.9359 55.6826 94.9612 55.6224C94.9866 55.5621 94.9996 55.4974 94.9996 55.432C94.9996 55.3666 94.9866 55.3018 94.9612 55.2416C94.9359 55.1813 94.8987 55.1267 94.852 55.081Z" fill="white"/>
<path opacity="0.1" d="M121 89H103C102.448 89 102 89.4477 102 90V100C102 100.552 102.448 101 103 101H121C121.552 101 122 100.552 122 100V90C122 89.4477 121.552 89 121 89Z" fill="black"/>
<path d="M103 100H121C121.552 100 122 99.5523 122 99V90C122 89.4477 121.552 89 121 89H103C102.448 89 102 89.4477 102 90V99C102 99.5523 102.448 100 103 100Z" fill="#0ABB92"/>
<path d="M119.852 88.081L118.912 87.146C118.865 87.0993 118.81 87.0624 118.749 87.0371C118.688 87.0119 118.623 86.9989 118.557 86.9989C118.491 86.9989 118.426 87.0119 118.365 87.0371C118.304 87.0624 118.249 87.0993 118.202 87.146L112.298 92.933L109.8 90.444C109.706 90.3516 109.58 90.2999 109.448 90.2999C109.316 90.2999 109.19 90.3516 109.096 90.444L108.146 91.374C108.1 91.42 108.063 91.4747 108.038 91.5349C108.013 91.5951 108 91.6597 108 91.725C108 91.7902 108.013 91.8548 108.038 91.915C108.063 91.9753 108.1 92.03 108.146 92.076L111.939 95.856C112.034 95.9483 112.161 96 112.293 96C112.425 96 112.552 95.9483 112.647 95.856L119.852 88.783C119.899 88.7372 119.936 88.6826 119.961 88.6224C119.987 88.5621 120 88.4974 120 88.432C120 88.3666 119.987 88.3018 119.961 88.2416C119.936 88.1813 119.899 88.1267 119.852 88.081Z" fill="white"/>
<path d="M140.178 108.602C139.782 107.875 140.231 106.983 140.744 106.335C141.257 105.688 141.88 105.015 141.867 104.185C141.847 102.998 140.587 102.296 139.58 101.667C138.833 101.2 138.143 100.647 137.527 100.017C137.269 99.7745 137.056 99.4885 136.897 99.1719C136.687 98.7069 136.693 98.1789 136.707 97.6719C136.751 95.9769 136.835 94.2839 136.958 92.5919" stroke="#3F3D56"/>
<path d="M135.045 92.5C135.074 91.87 135.422 91.297 135.969 90.983L136.383 91.803L136.37 90.81C136.746 90.6998 137.146 90.7117 137.515 90.8439C137.883 90.9762 138.2 91.222 138.419 91.5459C138.639 91.8698 138.75 92.2551 138.736 92.6462C138.723 93.0372 138.585 93.4139 138.344 93.7218C138.102 94.0298 137.769 94.2531 137.393 94.3595C137.016 94.466 136.616 94.4502 136.249 94.3142C135.882 94.1783 135.567 93.9294 135.351 93.6033C135.135 93.2772 135.028 92.8909 135.045 92.5Z" fill="#FFB61B"/>
<path d="M138.344 105.034C138.538 105.41 138.856 105.709 139.244 105.879C139.632 106.049 140.067 106.08 140.475 105.968C140.884 105.856 141.241 105.606 141.488 105.262C141.734 104.917 141.855 104.499 141.829 104.076C141.804 103.653 141.633 103.252 141.347 102.939C141.061 102.627 140.676 102.423 140.257 102.36C139.838 102.298 139.41 102.381 139.046 102.597C138.681 102.812 138.402 103.147 138.254 103.544L139.411 104.484L138.138 104.19C138.138 104.484 138.209 104.773 138.344 105.034ZM139.268 101.439C139.724 101.464 140.173 101.319 140.529 101.032C140.884 100.745 141.121 100.337 141.193 99.8863C141.265 99.4353 141.167 98.9736 140.919 98.5904C140.671 98.2071 140.289 97.9294 139.848 97.8109L139.858 98.5739L139.439 97.744C139.196 97.732 138.953 97.7682 138.724 97.8504C138.495 97.9326 138.285 98.0593 138.105 98.2231C137.925 98.3869 137.779 98.5847 137.676 98.805C137.572 99.0253 137.514 99.2639 137.503 99.507C137.492 99.7497 137.528 99.9924 137.611 100.221C137.693 100.45 137.82 100.66 137.984 100.839C138.148 101.019 138.346 101.164 138.566 101.267C138.786 101.37 139.024 101.428 139.267 101.439H139.268ZM134.765 98.4469C135.049 98.4572 135.332 98.4018 135.591 98.2849C135.85 98.168 136.079 97.9928 136.259 97.773C136.44 97.5532 136.567 97.2948 136.631 97.0177C136.695 96.7407 136.695 96.4526 136.629 96.1759C136.564 95.8992 136.435 95.6414 136.254 95.4224C136.072 95.2035 135.843 95.0295 135.583 94.9138C135.323 94.7982 135.04 94.7441 134.756 94.7557C134.472 94.7673 134.194 94.8444 133.945 94.9809L134.273 95.8779L133.6 95.2319C133.357 95.454 133.178 95.7369 133.081 96.0515C132.984 96.366 132.973 96.7007 133.049 97.021C133.236 97.827 133.938 98.4109 134.765 98.4469Z" fill="#57B894"/>
<path opacity="0.1" d="M135.293 92.9939C135.721 93.0399 136.136 93.1729 136.565 93.1989C136.994 93.2259 137.465 93.1239 137.737 92.7899C137.882 92.6099 137.956 92.3839 138.079 92.1869C138.196 92.0044 138.357 91.8537 138.546 91.7479C138.657 91.9813 138.717 92.2354 138.724 92.4937C138.73 92.7519 138.682 93.0087 138.583 93.2473C138.484 93.4859 138.336 93.7011 138.149 93.879C137.961 94.0569 137.739 94.1935 137.495 94.2799C137.252 94.3664 136.993 94.4008 136.735 94.381C136.478 94.3612 136.227 94.2875 136 94.1648C135.773 94.0421 135.574 93.8731 135.416 93.6686C135.258 93.4642 135.144 93.2289 135.083 92.9779C135.153 92.9799 135.223 92.9859 135.293 92.9939ZM134.765 98.4469C135.084 98.4633 135.403 98.3964 135.689 98.2529C135.974 98.1093 136.218 97.894 136.396 97.628C136.573 97.3619 136.679 97.0543 136.702 96.7353C136.725 96.4162 136.665 96.0967 136.527 95.8079C136.38 95.9067 136.254 96.033 136.155 96.1799C136.023 96.3799 135.942 96.6099 135.788 96.7929C135.498 97.1319 135.007 97.2429 134.559 97.2229C134.112 97.2029 133.681 97.0749 133.239 97.0339C133.178 97.0339 133.116 97.0239 133.053 97.0239C133.145 97.415 133.362 97.7655 133.671 98.0223C133.979 98.2791 134.364 98.4282 134.765 98.4469ZM139.268 101.439C139.585 101.455 139.9 101.39 140.184 101.249C140.468 101.108 140.71 100.896 140.889 100.634C141.067 100.372 141.175 100.069 141.202 99.7527C141.23 99.437 141.175 99.1195 141.044 98.8309C140.89 98.9309 140.756 99.0589 140.648 99.2069C140.504 99.4099 140.414 99.6439 140.252 99.8309C139.939 100.18 139.414 100.302 138.942 100.291C138.469 100.281 138.04 100.169 137.585 100.134C137.814 100.881 138.487 101.403 139.268 101.439ZM138.344 105.034C138.44 105.261 138.58 105.466 138.756 105.638C138.932 105.81 139.141 105.945 139.37 106.035C139.599 106.125 139.844 106.169 140.09 106.163C140.336 106.158 140.578 106.103 140.803 106.002C141.028 105.902 141.23 105.758 141.398 105.578C141.567 105.398 141.697 105.187 141.783 104.956C141.868 104.725 141.907 104.48 141.896 104.234C141.886 103.988 141.826 103.747 141.721 103.524C141.567 103.623 141.431 103.745 141.314 103.886C141.137 104.1 141.021 104.344 140.818 104.546C140.439 104.918 139.828 105.074 139.283 105.086C138.969 105.087 138.655 105.07 138.343 105.034H138.344Z" fill="black"/>
<path d="M142.971 107.764C142.971 107.764 141.509 107.72 141.069 107.406C140.628 107.091 138.825 106.718 138.712 107.221C138.599 107.724 136.515 109.728 138.164 109.736C139.814 109.744 141.999 109.472 142.44 109.208C142.88 108.944 142.971 107.764 142.971 107.764Z" fill="#656380"/>
<path opacity="0.2" d="M138.135 109.562C139.786 109.575 141.97 109.304 142.409 109.034C142.745 108.829 142.878 108.098 142.923 107.761H142.971C142.971 107.761 142.879 108.941 142.444 109.212C142.008 109.484 139.819 109.75 138.168 109.74C137.692 109.74 137.528 109.567 137.538 109.316C137.6 109.464 137.78 109.556 138.135 109.562Z" fill="black"/>
<path d="M34.5899 107.953C34.0109 106.882 34.6679 105.567 35.4229 104.611C36.1779 103.654 37.0989 102.661 37.0799 101.444C37.0509 99.693 35.1929 98.66 33.7069 97.731C32.6053 97.0421 31.5892 96.2251 30.6799 95.297C30.3019 94.9391 29.9895 94.5177 29.7569 94.052C29.4489 93.367 29.4589 92.588 29.4779 91.838C29.5419 89.339 29.6649 86.843 29.8479 84.349" stroke="#3F3D56"/>
<path d="M27.0191 84.21C27.0396 83.7519 27.1753 83.3063 27.4135 82.9145C27.6517 82.5226 27.9848 82.1971 28.3821 81.968L28.9941 83.178L28.9761 81.713C29.5315 81.5496 30.1245 81.5669 30.6694 81.7624C31.2143 81.9579 31.683 82.3215 32.0078 82.8007C32.3326 83.28 32.4967 83.85 32.4764 84.4286C32.4562 85.0072 32.2525 85.5644 31.895 86.0197C31.5374 86.475 31.0444 86.8049 30.4871 86.9618C29.9298 87.1186 29.3371 87.0943 28.7946 86.8924C28.252 86.6905 27.7876 86.3214 27.4685 85.8383C27.1494 85.3553 26.992 84.7833 27.0191 84.205V84.211V84.21Z" fill="#FFB61B"/>
<path d="M31.89 102.693C32.1768 103.25 32.6463 103.691 33.2198 103.943C33.7933 104.195 34.436 104.242 35.04 104.076C35.644 103.91 36.1725 103.541 36.5371 103.032C36.9016 102.523 37.0799 101.904 37.0421 101.278C37.0043 100.653 36.7526 100.06 36.3293 99.5982C35.906 99.1366 35.3369 98.8345 34.7173 98.7427C34.0977 98.6509 33.4654 98.7749 32.9264 99.094C32.3874 99.413 31.9745 99.9077 31.757 100.495L33.462 101.882L31.583 101.448C31.584 101.882 31.689 102.308 31.889 102.693H31.89ZM33.238 97.3921C33.9084 97.4239 34.567 97.2077 35.0882 96.7848C35.6093 96.3619 35.9565 95.762 36.0635 95.0994C36.1705 94.4368 36.0297 93.7581 35.6681 93.1927C35.3065 92.6273 34.7493 92.2148 34.103 92.0341L34.118 93.1591L33.499 91.9351H33.492C33.1337 91.9184 32.7756 91.9725 32.4382 92.0942C32.1008 92.2159 31.7906 92.4029 31.5255 92.6444C31.2603 92.886 31.0453 93.1774 30.8928 93.5021C30.7403 93.8267 30.6532 94.1783 30.6365 94.5366C30.6198 94.8949 30.6739 95.253 30.7956 95.5904C30.9173 95.9278 31.1043 96.238 31.3458 96.5031C31.5874 96.7683 31.8789 96.9832 32.2035 97.1358C32.5282 97.2883 32.8797 97.3754 33.238 97.3921ZM26.608 92.9801C27.3314 93.0135 28.0384 92.7584 28.5739 92.271C29.1094 91.7835 29.4295 91.1034 29.464 90.3801C29.484 89.9331 29.394 89.4881 29.2 89.0851C29.0404 88.7461 28.8126 88.4436 28.5308 88.1966C28.2491 87.9495 27.9195 87.7632 27.5626 87.6492C27.2056 87.5352 26.829 87.496 26.4563 87.534C26.0835 87.572 25.7226 87.6864 25.396 87.8701L25.877 89.1901L24.885 88.2371C24.4879 88.6014 24.2075 89.0752 24.0791 89.5986C23.9507 90.1219 23.9801 90.6716 24.1634 91.1784C24.3468 91.6852 24.676 92.1264 25.1095 92.4464C25.5431 92.7665 26.0617 92.9511 26.6 92.9771L26.608 92.9801Z" fill="#57B894"/>
<path opacity="0.1" d="M27.387 84.9381C28.017 85.0081 28.63 85.202 29.262 85.243C29.894 85.283 30.589 85.1301 30.989 84.6381C31.204 84.3741 31.313 84.0391 31.495 83.7501C31.667 83.4811 31.903 83.2591 32.182 83.1021C32.3575 83.4482 32.4571 83.8277 32.4744 84.2154C32.4917 84.6031 32.4261 84.99 32.2821 85.3503C32.1381 85.7107 31.9189 86.0362 31.6392 86.3052C31.3596 86.5742 31.0258 86.7805 30.6601 86.9104C30.2944 87.0402 29.9052 87.0907 29.5185 87.0583C29.1318 87.026 28.7564 86.9116 28.4174 86.7228C28.0784 86.534 27.7835 86.2751 27.5524 85.9634C27.3212 85.6517 27.1592 85.2943 27.077 84.9151C27.18 84.9191 27.284 84.9271 27.387 84.9381ZM26.608 92.9801C27.3314 93.0135 28.0385 92.7584 28.5739 92.2709C29.1094 91.7835 29.4296 91.1034 29.464 90.3801C29.484 89.9331 29.394 89.4881 29.2 89.0851C28.9833 89.2313 28.7969 89.4181 28.651 89.6351C28.457 89.9281 28.338 90.2671 28.11 90.5371C27.685 91.0371 26.958 91.1971 26.3 91.1701C25.641 91.1441 25.004 90.9541 24.348 90.8931C24.2562 90.8847 24.1642 90.879 24.072 90.8761C24.2078 91.4551 24.529 91.974 24.9868 92.3538C25.4445 92.7336 26.0138 92.9535 26.608 92.9801ZM33.238 97.3921C33.7042 97.4141 34.1683 97.3162 34.5859 97.1078C35.0035 96.8994 35.3607 96.5875 35.6234 96.2017C35.8861 95.8159 36.0455 95.3693 36.0864 94.9043C36.1273 94.4394 36.0483 93.9718 35.857 93.5461C35.632 93.6951 35.437 93.8831 35.28 94.1021C35.068 94.4021 34.936 94.7461 34.687 95.0261C34.227 95.5391 33.452 95.7201 32.753 95.7041C32.078 95.6881 31.426 95.5241 30.754 95.4721C30.9205 96.0086 31.2483 96.4808 31.6928 96.8243C32.1373 97.1679 32.6768 97.3661 33.238 97.3921ZM31.89 102.693C32.2098 103.314 32.7553 103.789 33.4144 104.02C34.0736 104.251 34.7962 104.221 35.4338 103.936C36.0713 103.65 36.5753 103.132 36.8421 102.486C37.1088 101.84 37.1181 101.117 36.868 100.465C36.6434 100.611 36.4413 100.789 36.268 100.993C36.003 101.309 35.838 101.668 35.536 101.963C34.978 102.511 34.077 102.737 33.275 102.756C32.812 102.762 32.349 102.741 31.889 102.693H31.89Z" fill="black"/>
<path d="M38.7091 106.72C38.7091 106.72 36.5541 106.653 35.9031 106.192C35.2531 105.73 32.5891 105.177 32.4281 105.918C32.2671 106.66 29.1881 109.613 31.6211 109.628C34.0551 109.642 37.2761 109.248 37.9231 108.853C38.5711 108.457 38.7091 106.719 38.7091 106.719V106.72Z" fill="#656380"/>
<path opacity="0.2" d="M31.5831 109.368C34.0161 109.388 37.2371 108.989 37.8851 108.594C38.3791 108.294 38.5771 107.214 38.6411 106.717H38.7141C38.7141 106.717 38.5821 108.455 37.9291 108.849C37.2761 109.244 34.0591 109.641 31.6271 109.624C30.9251 109.624 30.6821 109.368 30.6951 108.998C30.7911 109.224 31.0551 109.364 31.5831 109.368Z" fill="black"/>
</svg>
