<svg xmlns="http://www.w3.org/2000/svg" width="36" height="36" viewBox="0 0 36 36">
  <g fill="none" fill-rule="evenodd">
    <rect width="36" height="36" fill="#FFF"/>
    <g fill-rule="nonzero" stroke-width=".5" transform="translate(1 14)">
      <path fill="#0074C1" stroke="#0074C1" d="M.27755102.145454545C2.91428571.145454545 5.62040816.145454545 8.25714286.145454545 8.25714286.727272727 8.25714286 1.81818182 8.1877551 2.32727273 7.4244898 2.32727273 6.66122449 2.32727273 5.89795918 2.32727273 5.89795918 4.21818182 5.89795918 6.03636364 5.89795918 7.92727273 4.7877551 7.92727273 3.67755102 7.92727273 2.56734694 7.92727273 2.56734694 6.03636364 2.56734694 4.21818182 2.56734694 2.32727273 2.0122449 2.32727273.832653061 2.32727273.27755102 2.32727273.27755102 1.81818182.27755102.654545455.27755102.145454545zM10.755102.0727272727C11.9346939.145454545 13.1142857.145454545 14.2938776.145454545 15.2653061 2.76363636 16.444898 5.30909091 17.555102 7.92727273 16.444898 7.85454545 15.3346939 7.85454545 14.2244898 7.92727273 13.6 6.4 13.044898 4.87272727 12.4897959 3.41818182 11.8653061 4.87272727 11.2408163 6.4 10.6857143 7.85454545 9.5755102 7.85454545 8.46530612 7.85454545 7.4244898 7.92727273 8.53469388 5.30909091 9.64489796 2.69090909 10.755102.0727272727z"/>
      <path fill="#0071C0" stroke="#0071C0" d="M16.722449,0.145454545 C19.3591837,0.145454545 21.9959184,0.145454545 24.7020408,0.145454545 C24.7020408,0.654545455 24.7020408,1.81818182 24.7020408,2.32727273 C24.077551,2.32727273 22.8979592,2.32727273 22.3428571,2.32727273 C22.3428571,4.21818182 22.3428571,6.03636364 22.3428571,7.85454545 C21.2326531,7.85454545 20.0530612,7.92727273 18.9428571,7.92727273 C18.9428571,6.03636364 18.9428571,4.21818182 18.9428571,2.32727273 C18.3877551,2.32727273 17.277551,2.32727273 16.722449,2.32727273 C16.722449,1.81818182 16.722449,0.727272727 16.722449,0.145454545 Z"/>
      <path fill="#0074C1" stroke="#0074C1" d="M27.1306122,0.145454545 C28.2408163,0.145454545 29.4204082,0.145454545 30.6,0.0727272727 C31.7102041,2.69090909 32.7510204,5.30909091 33.9306122,7.92727273 C32.8204082,7.85454545 31.7102041,7.85454545 30.6,7.85454545 C30.044898,6.4 29.4204082,4.94545455 28.8653061,3.49090909 C28.2408163,4.94545455 27.6163265,6.4 27.0612245,7.85454545 C25.9510204,7.85454545 24.9102041,7.92727273 23.8,7.92727273 C24.9102041,5.30909091 26.0897959,2.76363636 27.1306122,0.145454545 Z"/>
    </g>
  </g>
</svg>
